ISO-10303-21;
HEADER;
FILE_DESCRIPTION(('FreeCAD Model'),'2;1');
FILE_NAME('Open CASCADE Shape Model','2026-10-04T17:03:40',('FreeCAD'),(
    'FreeCAD'),'Open CASCADE STEP processor 7.5','FreeCAD','Unknown');
FILE_SCHEMA(('AUTOMOTIVE_DESIGN { 1 0 10303 214 1 1 1 1 }'));
ENDSEC;
DATA;
#1 = APPLICATION_PROTOCOL_DEFINITION('international standard',
  'automotive_design',2000,#2);
#2 = APPLICATION_CONTEXT(
  'core data for automotive mechanical design processes');
#3 = SHAPE_DEFINITION_REPRESENTATION(#4,#10);
#4 = PRODUCT_DEFINITION_SHAPE('','',#5);
#5 = PRODUCT_DEFINITION('design','',#6,#9);
#6 = PRODUCT_DEFINITION_FORMATION('','',#7);
#7 = PRODUCT('Open CASCADE STEP translator 7.5 6',
  'Open CASCADE STEP translator 7.5 6','',(#8));
#8 = PRODUCT_CONTEXT('',#2,'mechanical');
#9 = PRODUCT_DEFINITION_CONTEXT('part definition',#2,'design');
#10 = ADVANCED_BREP_SHAPE_REPRESENTATION('',(#11,#15),#1083);
#11 = AXIS2_PLACEMENT_3D('',#12,#13,#14);
#12 = CARTESIAN_POINT('',(0.,0.,0.));
#13 = DIRECTION('',(0.,0.,1.));
#14 = DIRECTION('',(1.,0.,-0.));
#15 = MANIFOLD_SOLID_BREP('',#16);
#16 = CLOSED_SHELL('',(#17,#105,#202,#289,#316,#566,#593,#796,#893,#920,
    #1002,#1029,#1056));
#17 = ADVANCED_FACE('',(#18),#31,.T.);
#18 = FACE_BOUND('',#19,.T.);
#19 = EDGE_LOOP('',(#20,#54,#77,#104));
#20 = ORIENTED_EDGE('',*,*,#21,.F.);
#21 = EDGE_CURVE('',#22,#22,#24,.T.);
#22 = VERTEX_POINT('',#23);
#23 = CARTESIAN_POINT('',(5.,-1.224646799147E-15,6.4));
#24 = SURFACE_CURVE('',#25,(#30,#42),.PCURVE_S1.);
#25 = CIRCLE('',#26,5.);
#26 = AXIS2_PLACEMENT_3D('',#27,#28,#29);
#27 = CARTESIAN_POINT('',(0.,0.,6.4));
#28 = DIRECTION('',(0.,0.,1.));
#29 = DIRECTION('',(1.,0.,-0.));
#30 = PCURVE('',#31,#36);
#31 = CYLINDRICAL_SURFACE('',#32,5.);
#32 = AXIS2_PLACEMENT_3D('',#33,#34,#35);
#33 = CARTESIAN_POINT('',(0.,0.,5.2));
#34 = DIRECTION('',(0.,0.,1.));
#35 = DIRECTION('',(1.,0.,-0.));
#36 = DEFINITIONAL_REPRESENTATION('',(#37),#41);
#37 = LINE('',#38,#39);
#38 = CARTESIAN_POINT('',(0.,1.2));
#39 = VECTOR('',#40,1.);
#40 = DIRECTION('',(1.,0.));
#41 = ( GEOMETRIC_REPRESENTATION_CONTEXT(2) 
PARAMETRIC_REPRESENTATION_CONTEXT() REPRESENTATION_CONTEXT('2D SPACE',''
  ) );
#42 = PCURVE('',#43,#48);
#43 = PLANE('',#44);
#44 = AXIS2_PLACEMENT_3D('',#45,#46,#47);
#45 = CARTESIAN_POINT('',(0.,0.,6.4));
#46 = DIRECTION('',(0.,0.,1.));
#47 = DIRECTION('',(1.,0.,-0.));
#48 = DEFINITIONAL_REPRESENTATION('',(#49),#53);
#49 = CIRCLE('',#50,5.);
#50 = AXIS2_PLACEMENT_2D('',#51,#52);
#51 = CARTESIAN_POINT('',(0.,0.));
#52 = DIRECTION('',(1.,0.));
#53 = ( GEOMETRIC_REPRESENTATION_CONTEXT(2) 
PARAMETRIC_REPRESENTATION_CONTEXT() REPRESENTATION_CONTEXT('2D SPACE',''
  ) );
#54 = ORIENTED_EDGE('',*,*,#55,.F.);
#55 = EDGE_CURVE('',#56,#22,#58,.T.);
#56 = VERTEX_POINT('',#57);
#57 = CARTESIAN_POINT('',(5.,-1.224646799147E-15,5.2));
#58 = SEAM_CURVE('',#59,(#63,#70),.PCURVE_S1.);
#59 = LINE('',#60,#61);
#60 = CARTESIAN_POINT('',(5.,-1.224646799147E-15,5.2));
#61 = VECTOR('',#62,1.);
#62 = DIRECTION('',(0.,0.,1.));
#63 = PCURVE('',#31,#64);
#64 = DEFINITIONAL_REPRESENTATION('',(#65),#69);
#65 = LINE('',#66,#67);
#66 = CARTESIAN_POINT('',(6.28318530718,-0.));
#67 = VECTOR('',#68,1.);
#68 = DIRECTION('',(0.,1.));
#69 = ( GEOMETRIC_REPRESENTATION_CONTEXT(2) 
PARAMETRIC_REPRESENTATION_CONTEXT() REPRESENTATION_CONTEXT('2D SPACE',''
  ) );
#70 = PCURVE('',#31,#71);
#71 = DEFINITIONAL_REPRESENTATION('',(#72),#76);
#72 = LINE('',#73,#74);
#73 = CARTESIAN_POINT('',(0.,-0.));
#74 = VECTOR('',#75,1.);
#75 = DIRECTION('',(0.,1.));
#76 = ( GEOMETRIC_REPRESENTATION_CONTEXT(2) 
PARAMETRIC_REPRESENTATION_CONTEXT() REPRESENTATION_CONTEXT('2D SPACE',''
  ) );
#77 = ORIENTED_EDGE('',*,*,#78,.T.);
#78 = EDGE_CURVE('',#56,#56,#79,.T.);
#79 = SURFACE_CURVE('',#80,(#85,#92),.PCURVE_S1.);
#80 = CIRCLE('',#81,5.);
#81 = AXIS2_PLACEMENT_3D('',#82,#83,#84);
#82 = CARTESIAN_POINT('',(0.,0.,5.2));
#83 = DIRECTION('',(0.,0.,1.));
#84 = DIRECTION('',(1.,0.,-0.));
#85 = PCURVE('',#31,#86);
#86 = DEFINITIONAL_REPRESENTATION('',(#87),#91);
#87 = LINE('',#88,#89);
#88 = CARTESIAN_POINT('',(0.,0.));
#89 = VECTOR('',#90,1.);
#90 = DIRECTION('',(1.,0.));
#91 = ( GEOMETRIC_REPRESENTATION_CONTEXT(2) 
PARAMETRIC_REPRESENTATION_CONTEXT() REPRESENTATION_CONTEXT('2D SPACE',''
  ) );
#92 = PCURVE('',#93,#98);
#93 = PLANE('',#94);
#94 = AXIS2_PLACEMENT_3D('',#95,#96,#97);
#95 = CARTESIAN_POINT('',(0.,0.,5.2));
#96 = DIRECTION('',(0.,0.,1.));
#97 = DIRECTION('',(1.,0.,-0.));
#98 = DEFINITIONAL_REPRESENTATION('',(#99),#103);
#99 = CIRCLE('',#100,5.);
#100 = AXIS2_PLACEMENT_2D('',#101,#102);
#101 = CARTESIAN_POINT('',(0.,0.));
#102 = DIRECTION('',(1.,0.));
#103 = ( GEOMETRIC_REPRESENTATION_CONTEXT(2) 
PARAMETRIC_REPRESENTATION_CONTEXT() REPRESENTATION_CONTEXT('2D SPACE',''
  ) );
#104 = ORIENTED_EDGE('',*,*,#55,.T.);
#105 = ADVANCED_FACE('',(#106,#109,#140,#171),#43,.T.);
#106 = FACE_BOUND('',#107,.T.);
#107 = EDGE_LOOP('',(#108));
#108 = ORIENTED_EDGE('',*,*,#21,.T.);
#109 = FACE_BOUND('',#110,.T.);
#110 = EDGE_LOOP('',(#111));
#111 = ORIENTED_EDGE('',*,*,#112,.F.);
#112 = EDGE_CURVE('',#113,#113,#115,.T.);
#113 = VERTEX_POINT('',#114);
#114 = CARTESIAN_POINT('',(-2.5,-2.694222958124E-16,6.4));
#115 = SURFACE_CURVE('',#116,(#121,#128),.PCURVE_S1.);
#116 = CIRCLE('',#117,1.1);
#117 = AXIS2_PLACEMENT_3D('',#118,#119,#120);
#118 = CARTESIAN_POINT('',(-3.6,0.,6.4));
#119 = DIRECTION('',(0.,0.,1.));
#120 = DIRECTION('',(1.,0.,-0.));
#121 = PCURVE('',#43,#122);
#122 = DEFINITIONAL_REPRESENTATION('',(#123),#127);
#123 = CIRCLE('',#124,1.1);
#124 = AXIS2_PLACEMENT_2D('',#125,#126);
#125 = CARTESIAN_POINT('',(-3.6,0.));
#126 = DIRECTION('',(1.,0.));
#127 = ( GEOMETRIC_REPRESENTATION_CONTEXT(2) 
PARAMETRIC_REPRESENTATION_CONTEXT() REPRESENTATION_CONTEXT('2D SPACE',''
  ) );
#128 = PCURVE('',#129,#134);
#129 = CYLINDRICAL_SURFACE('',#130,1.1);
#130 = AXIS2_PLACEMENT_3D('',#131,#132,#133);
#131 = CARTESIAN_POINT('',(-3.6,0.,-1.));
#132 = DIRECTION('',(0.,0.,1.));
#133 = DIRECTION('',(1.,0.,-0.));
#134 = DEFINITIONAL_REPRESENTATION('',(#135),#139);
#135 = LINE('',#136,#137);
#136 = CARTESIAN_POINT('',(0.,7.4));
#137 = VECTOR('',#138,1.);
#138 = DIRECTION('',(1.,0.));
#139 = ( GEOMETRIC_REPRESENTATION_CONTEXT(2) 
PARAMETRIC_REPRESENTATION_CONTEXT() REPRESENTATION_CONTEXT('2D SPACE',''
  ) );
#140 = FACE_BOUND('',#141,.T.);
#141 = EDGE_LOOP('',(#142));
#142 = ORIENTED_EDGE('',*,*,#143,.F.);
#143 = EDGE_CURVE('',#144,#144,#146,.T.);
#144 = VERTEX_POINT('',#145);
#145 = CARTESIAN_POINT('',(1.8,-4.40872847693E-16,6.4));
#146 = SURFACE_CURVE('',#147,(#152,#159),.PCURVE_S1.);
#147 = CIRCLE('',#148,1.8);
#148 = AXIS2_PLACEMENT_3D('',#149,#150,#151);
#149 = CARTESIAN_POINT('',(0.,0.,6.4));
#150 = DIRECTION('',(0.,0.,1.));
#151 = DIRECTION('',(1.,0.,-0.));
#152 = PCURVE('',#43,#153);
#153 = DEFINITIONAL_REPRESENTATION('',(#154),#158);
#154 = CIRCLE('',#155,1.8);
#155 = AXIS2_PLACEMENT_2D('',#156,#157);
#156 = CARTESIAN_POINT('',(0.,0.));
#157 = DIRECTION('',(1.,0.));
#158 = ( GEOMETRIC_REPRESENTATION_CONTEXT(2) 
PARAMETRIC_REPRESENTATION_CONTEXT() REPRESENTATION_CONTEXT('2D SPACE',''
  ) );
#159 = PCURVE('',#160,#165);
#160 = CYLINDRICAL_SURFACE('',#161,1.8);
#161 = AXIS2_PLACEMENT_3D('',#162,#163,#164);
#162 = CARTESIAN_POINT('',(0.,0.,-1.));
#163 = DIRECTION('',(0.,0.,1.));
#164 = DIRECTION('',(1.,0.,-0.));
#165 = DEFINITIONAL_REPRESENTATION('',(#166),#170);
#166 = LINE('',#167,#168);
#167 = CARTESIAN_POINT('',(0.,7.4));
#168 = VECTOR('',#169,1.);
#169 = DIRECTION('',(1.,0.));
#170 = ( GEOMETRIC_REPRESENTATION_CONTEXT(2) 
PARAMETRIC_REPRESENTATION_CONTEXT() REPRESENTATION_CONTEXT('2D SPACE',''
  ) );
#171 = FACE_BOUND('',#172,.T.);
#172 = EDGE_LOOP('',(#173));
#173 = ORIENTED_EDGE('',*,*,#174,.F.);
#174 = EDGE_CURVE('',#175,#175,#177,.T.);
#175 = VERTEX_POINT('',#176);
#176 = CARTESIAN_POINT('',(4.7,-2.694222958124E-16,6.4));
#177 = SURFACE_CURVE('',#178,(#183,#190),.PCURVE_S1.);
#178 = CIRCLE('',#179,1.1);
#179 = AXIS2_PLACEMENT_3D('',#180,#181,#182);
#180 = CARTESIAN_POINT('',(3.6,0.,6.4));
#181 = DIRECTION('',(0.,0.,1.));
#182 = DIRECTION('',(1.,0.,-0.));
#183 = PCURVE('',#43,#184);
#184 = DEFINITIONAL_REPRESENTATION('',(#185),#189);
#185 = CIRCLE('',#186,1.1);
#186 = AXIS2_PLACEMENT_2D('',#187,#188);
#187 = CARTESIAN_POINT('',(3.6,0.));
#188 = DIRECTION('',(1.,0.));
#189 = ( GEOMETRIC_REPRESENTATION_CONTEXT(2) 
PARAMETRIC_REPRESENTATION_CONTEXT() REPRESENTATION_CONTEXT('2D SPACE',''
  ) );
#190 = PCURVE('',#191,#196);
#191 = CYLINDRICAL_SURFACE('',#192,1.1);
#192 = AXIS2_PLACEMENT_3D('',#193,#194,#195);
#193 = CARTESIAN_POINT('',(3.6,0.,-1.));
#194 = DIRECTION('',(0.,0.,1.));
#195 = DIRECTION('',(1.,0.,-0.));
#196 = DEFINITIONAL_REPRESENTATION('',(#197),#201);
#197 = LINE('',#198,#199);
#198 = CARTESIAN_POINT('',(0.,7.4));
#199 = VECTOR('',#200,1.);
#200 = DIRECTION('',(1.,0.));
#201 = ( GEOMETRIC_REPRESENTATION_CONTEXT(2) 
PARAMETRIC_REPRESENTATION_CONTEXT() REPRESENTATION_CONTEXT('2D SPACE',''
  ) );
#202 = ADVANCED_FACE('',(#203,#206,#232,#263),#93,.F.);
#203 = FACE_BOUND('',#204,.F.);
#204 = EDGE_LOOP('',(#205));
#205 = ORIENTED_EDGE('',*,*,#78,.T.);
#206 = FACE_BOUND('',#207,.F.);
#207 = EDGE_LOOP('',(#208));
#208 = ORIENTED_EDGE('',*,*,#209,.F.);
#209 = EDGE_CURVE('',#210,#210,#212,.T.);
#210 = VERTEX_POINT('',#211);
#211 = CARTESIAN_POINT('',(-2.5,-2.694222958124E-16,5.2));
#212 = SURFACE_CURVE('',#213,(#218,#225),.PCURVE_S1.);
#213 = CIRCLE('',#214,1.1);
#214 = AXIS2_PLACEMENT_3D('',#215,#216,#217);
#215 = CARTESIAN_POINT('',(-3.6,0.,5.2));
#216 = DIRECTION('',(0.,0.,1.));
#217 = DIRECTION('',(1.,0.,-0.));
#218 = PCURVE('',#93,#219);
#219 = DEFINITIONAL_REPRESENTATION('',(#220),#224);
#220 = CIRCLE('',#221,1.1);
#221 = AXIS2_PLACEMENT_2D('',#222,#223);
#222 = CARTESIAN_POINT('',(-3.6,0.));
#223 = DIRECTION('',(1.,0.));
#224 = ( GEOMETRIC_REPRESENTATION_CONTEXT(2) 
PARAMETRIC_REPRESENTATION_CONTEXT() REPRESENTATION_CONTEXT('2D SPACE',''
  ) );
#225 = PCURVE('',#129,#226);
#226 = DEFINITIONAL_REPRESENTATION('',(#227),#231);
#227 = LINE('',#228,#229);
#228 = CARTESIAN_POINT('',(0.,6.2));
#229 = VECTOR('',#230,1.);
#230 = DIRECTION('',(1.,0.));
#231 = ( GEOMETRIC_REPRESENTATION_CONTEXT(2) 
PARAMETRIC_REPRESENTATION_CONTEXT() REPRESENTATION_CONTEXT('2D SPACE',''
  ) );
#232 = FACE_BOUND('',#233,.F.);
#233 = EDGE_LOOP('',(#234));
#234 = ORIENTED_EDGE('',*,*,#235,.F.);
#235 = EDGE_CURVE('',#236,#236,#238,.T.);
#236 = VERTEX_POINT('',#237);
#237 = CARTESIAN_POINT('',(2.2,-5.388445916248E-16,5.2));
#238 = SURFACE_CURVE('',#239,(#244,#251),.PCURVE_S1.);
#239 = CIRCLE('',#240,2.2);
#240 = AXIS2_PLACEMENT_3D('',#241,#242,#243);
#241 = CARTESIAN_POINT('',(0.,0.,5.2));
#242 = DIRECTION('',(0.,0.,1.));
#243 = DIRECTION('',(1.,0.,-0.));
#244 = PCURVE('',#93,#245);
#245 = DEFINITIONAL_REPRESENTATION('',(#246),#250);
#246 = CIRCLE('',#247,2.2);
#247 = AXIS2_PLACEMENT_2D('',#248,#249);
#248 = CARTESIAN_POINT('',(0.,0.));
#249 = DIRECTION('',(1.,0.));
#250 = ( GEOMETRIC_REPRESENTATION_CONTEXT(2) 
PARAMETRIC_REPRESENTATION_CONTEXT() REPRESENTATION_CONTEXT('2D SPACE',''
  ) );
#251 = PCURVE('',#252,#257);
#252 = CYLINDRICAL_SURFACE('',#253,2.2);
#253 = AXIS2_PLACEMENT_3D('',#254,#255,#256);
#254 = CARTESIAN_POINT('',(0.,0.,1.2));
#255 = DIRECTION('',(0.,0.,1.));
#256 = DIRECTION('',(1.,0.,-0.));
#257 = DEFINITIONAL_REPRESENTATION('',(#258),#262);
#258 = LINE('',#259,#260);
#259 = CARTESIAN_POINT('',(0.,4.));
#260 = VECTOR('',#261,1.);
#261 = DIRECTION('',(1.,0.));
#262 = ( GEOMETRIC_REPRESENTATION_CONTEXT(2) 
PARAMETRIC_REPRESENTATION_CONTEXT() REPRESENTATION_CONTEXT('2D SPACE',''
  ) );
#263 = FACE_BOUND('',#264,.F.);
#264 = EDGE_LOOP('',(#265));
#265 = ORIENTED_EDGE('',*,*,#266,.F.);
#266 = EDGE_CURVE('',#267,#267,#269,.T.);
#267 = VERTEX_POINT('',#268);
#268 = CARTESIAN_POINT('',(4.7,-2.694222958124E-16,5.2));
#269 = SURFACE_CURVE('',#270,(#275,#282),.PCURVE_S1.);
#270 = CIRCLE('',#271,1.1);
#271 = AXIS2_PLACEMENT_3D('',#272,#273,#274);
#272 = CARTESIAN_POINT('',(3.6,0.,5.2));
#273 = DIRECTION('',(0.,0.,1.));
#274 = DIRECTION('',(1.,0.,-0.));
#275 = PCURVE('',#93,#276);
#276 = DEFINITIONAL_REPRESENTATION('',(#277),#281);
#277 = CIRCLE('',#278,1.1);
#278 = AXIS2_PLACEMENT_2D('',#279,#280);
#279 = CARTESIAN_POINT('',(3.6,0.));
#280 = DIRECTION('',(1.,0.));
#281 = ( GEOMETRIC_REPRESENTATION_CONTEXT(2) 
PARAMETRIC_REPRESENTATION_CONTEXT() REPRESENTATION_CONTEXT('2D SPACE',''
  ) );
#282 = PCURVE('',#191,#283);
#283 = DEFINITIONAL_REPRESENTATION('',(#284),#288);
#284 = LINE('',#285,#286);
#285 = CARTESIAN_POINT('',(0.,6.2));
#286 = VECTOR('',#287,1.);
#287 = DIRECTION('',(1.,0.));
#288 = ( GEOMETRIC_REPRESENTATION_CONTEXT(2) 
PARAMETRIC_REPRESENTATION_CONTEXT() REPRESENTATION_CONTEXT('2D SPACE',''
  ) );
#289 = ADVANCED_FACE('',(#290),#129,.F.);
#290 = FACE_BOUND('',#291,.F.);
#291 = EDGE_LOOP('',(#292,#293,#314,#315));
#292 = ORIENTED_EDGE('',*,*,#112,.F.);
#293 = ORIENTED_EDGE('',*,*,#294,.F.);
#294 = EDGE_CURVE('',#210,#113,#295,.T.);
#295 = SEAM_CURVE('',#296,(#300,#307),.PCURVE_S1.);
#296 = LINE('',#297,#298);
#297 = CARTESIAN_POINT('',(-2.5,-2.694222958124E-16,-1.));
#298 = VECTOR('',#299,1.);
#299 = DIRECTION('',(0.,0.,1.));
#300 = PCURVE('',#129,#301);
#301 = DEFINITIONAL_REPRESENTATION('',(#302),#306);
#302 = LINE('',#303,#304);
#303 = CARTESIAN_POINT('',(6.28318530718,-0.));
#304 = VECTOR('',#305,1.);
#305 = DIRECTION('',(0.,1.));
#306 = ( GEOMETRIC_REPRESENTATION_CONTEXT(2) 
PARAMETRIC_REPRESENTATION_CONTEXT() REPRESENTATION_CONTEXT('2D SPACE',''
  ) );
#307 = PCURVE('',#129,#308);
#308 = DEFINITIONAL_REPRESENTATION('',(#309),#313);
#309 = LINE('',#310,#311);
#310 = CARTESIAN_POINT('',(0.,-0.));
#311 = VECTOR('',#312,1.);
#312 = DIRECTION('',(0.,1.));
#313 = ( GEOMETRIC_REPRESENTATION_CONTEXT(2) 
PARAMETRIC_REPRESENTATION_CONTEXT() REPRESENTATION_CONTEXT('2D SPACE',''
  ) );
#314 = ORIENTED_EDGE('',*,*,#209,.T.);
#315 = ORIENTED_EDGE('',*,*,#294,.T.);
#316 = ADVANCED_FACE('',(#317,#371),#160,.F.);
#317 = FACE_BOUND('',#318,.F.);
#318 = EDGE_LOOP('',(#319,#342,#343,#344));
#319 = ORIENTED_EDGE('',*,*,#320,.T.);
#320 = EDGE_CURVE('',#321,#144,#323,.T.);
#321 = VERTEX_POINT('',#322);
#322 = CARTESIAN_POINT('',(1.8,-4.40872847693E-16,0.));
#323 = SEAM_CURVE('',#324,(#328,#335),.PCURVE_S1.);
#324 = LINE('',#325,#326);
#325 = CARTESIAN_POINT('',(1.8,-4.40872847693E-16,-1.));
#326 = VECTOR('',#327,1.);
#327 = DIRECTION('',(0.,0.,1.));
#328 = PCURVE('',#160,#329);
#329 = DEFINITIONAL_REPRESENTATION('',(#330),#334);
#330 = LINE('',#331,#332);
#331 = CARTESIAN_POINT('',(6.28318530718,-0.));
#332 = VECTOR('',#333,1.);
#333 = DIRECTION('',(0.,1.));
#334 = ( GEOMETRIC_REPRESENTATION_CONTEXT(2) 
PARAMETRIC_REPRESENTATION_CONTEXT() REPRESENTATION_CONTEXT('2D SPACE',''
  ) );
#335 = PCURVE('',#160,#336);
#336 = DEFINITIONAL_REPRESENTATION('',(#337),#341);
#337 = LINE('',#338,#339);
#338 = CARTESIAN_POINT('',(0.,-0.));
#339 = VECTOR('',#340,1.);
#340 = DIRECTION('',(0.,1.));
#341 = ( GEOMETRIC_REPRESENTATION_CONTEXT(2) 
PARAMETRIC_REPRESENTATION_CONTEXT() REPRESENTATION_CONTEXT('2D SPACE',''
  ) );
#342 = ORIENTED_EDGE('',*,*,#143,.F.);
#343 = ORIENTED_EDGE('',*,*,#320,.F.);
#344 = ORIENTED_EDGE('',*,*,#345,.T.);
#345 = EDGE_CURVE('',#321,#321,#346,.T.);
#346 = SURFACE_CURVE('',#347,(#352,#359),.PCURVE_S1.);
#347 = CIRCLE('',#348,1.8);
#348 = AXIS2_PLACEMENT_3D('',#349,#350,#351);
#349 = CARTESIAN_POINT('',(0.,0.,0.));
#350 = DIRECTION('',(0.,0.,1.));
#351 = DIRECTION('',(1.,0.,-0.));
#352 = PCURVE('',#160,#353);
#353 = DEFINITIONAL_REPRESENTATION('',(#354),#358);
#354 = LINE('',#355,#356);
#355 = CARTESIAN_POINT('',(0.,1.));
#356 = VECTOR('',#357,1.);
#357 = DIRECTION('',(1.,0.));
#358 = ( GEOMETRIC_REPRESENTATION_CONTEXT(2) 
PARAMETRIC_REPRESENTATION_CONTEXT() REPRESENTATION_CONTEXT('2D SPACE',''
  ) );
#359 = PCURVE('',#360,#365);
#360 = PLANE('',#361);
#361 = AXIS2_PLACEMENT_3D('',#362,#363,#364);
#362 = CARTESIAN_POINT('',(0.,0.,0.));
#363 = DIRECTION('',(0.,0.,1.));
#364 = DIRECTION('',(1.,0.,-0.));
#365 = DEFINITIONAL_REPRESENTATION('',(#366),#370);
#366 = CIRCLE('',#367,1.8);
#367 = AXIS2_PLACEMENT_2D('',#368,#369);
#368 = CARTESIAN_POINT('',(0.,0.));
#369 = DIRECTION('',(1.,0.));
#370 = ( GEOMETRIC_REPRESENTATION_CONTEXT(2) 
PARAMETRIC_REPRESENTATION_CONTEXT() REPRESENTATION_CONTEXT('2D SPACE',''
  ) );
#371 = FACE_BOUND('',#372,.F.);
#372 = EDGE_LOOP('',(#373));
#373 = ORIENTED_EDGE('',*,*,#374,.F.);
#374 = EDGE_CURVE('',#375,#375,#377,.T.);
#375 = VERTEX_POINT('',#376);
#376 = CARTESIAN_POINT('',(-1.469576158977E-16,1.8,3.8));
#377 = SURFACE_CURVE('',#378,(#437,#499),.PCURVE_S1.);
#378 = B_SPLINE_CURVE_WITH_KNOTS('',8,(#379,#380,#381,#382,#383,#384,
    #385,#386,#387,#388,#389,#390,#391,#392,#393,#394,#395,#396,#397,
    #398,#399,#400,#401,#402,#403,#404,#405,#406,#407,#408,#409,#410,
    #411,#412,#413,#414,#415,#416,#417,#418,#419,#420,#421,#422,#423,
    #424,#425,#426,#427,#428,#429,#430,#431,#432,#433,#434,#435,#436),
  .UNSPECIFIED.,.T.,.F.,(9,7,7,7,7,7,7,7,9),(0.,8.204781564209E-02,
    0.193180307999,0.301761424073,0.44233888971,0.58677069606,
    0.80695752322,0.918010636765,1.),.UNSPECIFIED.);
#379 = CARTESIAN_POINT('',(0.,1.8,3.8));
#380 = CARTESIAN_POINT('',(4.048840854398E-02,1.799999999325,
    3.799999995951));
#381 = CARTESIAN_POINT('',(8.092530481825E-02,1.798959150222,
    3.796877497072));
#382 = CARTESIAN_POINT('',(0.12099718833,1.796882167064,3.790646435656)
  );
#383 = CARTESIAN_POINT('',(0.160393746289,1.793815293299,3.781364970984)
  );
#384 = CARTESIAN_POINT('',(0.198812507864,1.7898458622,3.769135053879));
#385 = CARTESIAN_POINT('',(0.235964647539,1.785098134585,3.75410282666)
  );
#386 = CARTESIAN_POINT('',(0.271581937555,1.779725413525,3.736459858504)
  );
#387 = CARTESIAN_POINT('',(0.351264548145,1.766005885479,3.689335693966)
  );
#388 = CARTESIAN_POINT('',(0.393891651335,1.757272736352,3.657849773591)
  );
#389 = CARTESIAN_POINT('',(0.432919296781,1.748081938308,3.622437915131)
  );
#390 = CARTESIAN_POINT('',(0.46801937277,1.738848336083,3.583567468196)
  );
#391 = CARTESIAN_POINT('',(0.498920536738,1.729987352921,3.541719487356)
  );
#392 = CARTESIAN_POINT('',(0.525406283972,1.72188502895,3.497384946374)
  );
#393 = CARTESIAN_POINT('',(0.547313066385,1.714869414526,3.451060351259)
  );
#394 = CARTESIAN_POINT('',(0.581348625861,1.703627763724,3.35652294798)
  );
#395 = CARTESIAN_POINT('',(0.593704983866,1.699336766656,3.308337006576)
  );
#396 = CARTESIAN_POINT('',(0.601474555382,1.696543026222,3.25915700743)
  );
#397 = CARTESIAN_POINT('',(0.604589995482,1.695403186283,3.209448716933)
  );
#398 = CARTESIAN_POINT('',(0.603027102678,1.695979528139,3.159674331282)
  );
#399 = CARTESIAN_POINT('',(0.596800279807,1.698233308438,3.110295547603)
  );
#400 = CARTESIAN_POINT('',(0.585965947433,1.702029742493,3.06177696326)
  );
#401 = CARTESIAN_POINT('',(0.550783874387,1.713789710517,2.953497676243)
  );
#402 = CARTESIAN_POINT('',(0.523350119135,1.722666309635,2.894499337228)
  );
#403 = CARTESIAN_POINT('',(0.488521547133,1.733334708781,2.838664233956)
  );
#404 = CARTESIAN_POINT('',(0.446647127288,1.745108174455,2.787039717937)
  );
#405 = CARTESIAN_POINT('',(0.398225891904,1.757144102721,2.740640126872)
  );
#406 = CARTESIAN_POINT('',(0.343904412806,1.768557727662,2.700430879039)
  );
#407 = CARTESIAN_POINT('',(0.284475858081,1.778533224014,2.667315575828)
  );
#408 = CARTESIAN_POINT('',(0.155529794992,1.794476447485,2.616262217827)
  );
#409 = CARTESIAN_POINT('',(8.604075758419E-02,1.800295041748,
    2.598868203798));
#410 = CARTESIAN_POINT('',(1.400690413859E-02,1.803087873497,
    2.590955187179));
#411 = CARTESIAN_POINT('',(-5.876364922927E-02,1.802397366489,
    2.593002605229));
#412 = CARTESIAN_POINT('',(-0.130417427203,1.798214655384,2.605004331028
    ));
#413 = CARTESIAN_POINT('',(-0.199145290026,1.791007627263,2.626481251075
    ));
#414 = CARTESIAN_POINT('',(-0.263281596017,1.781623809935,2.656459211678
    ));
#415 = CARTESIAN_POINT('',(-0.410244270226,1.754945988165,2.74972456075)
  );
#416 = CARTESIAN_POINT('',(-0.485946592268,1.735952998207,2.822690450484
    ));
#417 = CARTESIAN_POINT('',(-0.545828018027,1.717098154216,2.908806535873
    ));
#418 = CARTESIAN_POINT('',(-0.58778057784,1.70174916422,3.004311065191)
  );
#419 = CARTESIAN_POINT('',(-0.610748798299,1.692936340957,3.105249926697
    ));
#420 = CARTESIAN_POINT('',(-0.614310885495,1.691877304057,3.207871636952
    ));
#421 = CARTESIAN_POINT('',(-0.598661706985,1.697909402831,3.308434015187
    ));
#422 = CARTESIAN_POINT('',(-0.547313066385,1.714869414526,3.451060351259
    ));
#423 = CARTESIAN_POINT('',(-0.525406283972,1.72188502895,3.497384946374)
  );
#424 = CARTESIAN_POINT('',(-0.498920536738,1.729987352921,3.541719487356
    ));
#425 = CARTESIAN_POINT('',(-0.46801937277,1.738848336083,3.583567468196)
  );
#426 = CARTESIAN_POINT('',(-0.432919296781,1.748081938308,3.622437915131
    ));
#427 = CARTESIAN_POINT('',(-0.393891651335,1.757272736352,3.657849773591
    ));
#428 = CARTESIAN_POINT('',(-0.351264548145,1.766005885479,3.689335693966
    ));
#429 = CARTESIAN_POINT('',(-0.271581874797,1.77972542433,3.736459895619)
  );
#430 = CARTESIAN_POINT('',(-0.235964525796,1.785098152786,3.754102885916
    ));
#431 = CARTESIAN_POINT('',(-0.198812350925,1.789845880902,3.769135111795
    ));
#432 = CARTESIAN_POINT('',(-0.160393590908,1.79381530618,3.7813650096));
#433 = CARTESIAN_POINT('',(-0.120997071508,1.796882171847,3.79064645045)
  );
#434 = CARTESIAN_POINT('',(-8.092524850172E-02,1.798959149874,
    3.796877497299));
#435 = CARTESIAN_POINT('',(-4.048840484321E-02,1.799999999325,
    3.799999995951));
#436 = CARTESIAN_POINT('',(0.,1.8,3.8));
#437 = PCURVE('',#160,#438);
#438 = DEFINITIONAL_REPRESENTATION('',(#439),#498);
#439 = B_SPLINE_CURVE_WITH_KNOTS('',8,(#440,#441,#442,#443,#444,#445,
    #446,#447,#448,#449,#450,#451,#452,#453,#454,#455,#456,#457,#458,
    #459,#460,#461,#462,#463,#464,#465,#466,#467,#468,#469,#470,#471,
    #472,#473,#474,#475,#476,#477,#478,#479,#480,#481,#482,#483,#484,
    #485,#486,#487,#488,#489,#490,#491,#492,#493,#494,#495,#496,#497),
  .UNSPECIFIED.,.T.,.F.,(9,7,7,7,7,7,7,7,9),(0.,8.204781564209E-02,
    0.193180307999,0.301761424073,0.44233888971,0.58677069606,
    0.80695752322,0.918010636765,1.),.UNSPECIFIED.);
#440 = CARTESIAN_POINT('',(1.570796326795,4.8));
#441 = CARTESIAN_POINT('',(1.548302766493,4.799999995895));
#442 = CARTESIAN_POINT('',(1.525837800457,4.796877497124));
#443 = CARTESIAN_POINT('',(1.503558363076,4.790646435681));
#444 = CARTESIAN_POINT('',(1.481619504491,4.781364970948));
#445 = CARTESIAN_POINT('',(1.460174966364,4.769135053857));
#446 = CARTESIAN_POINT('',(1.43937610554,4.754102826688));
#447 = CARTESIAN_POINT('',(1.419369165617,4.736459858504));
#448 = CARTESIAN_POINT('',(1.374449677008,4.689335693966));
#449 = CARTESIAN_POINT('',(1.350288198362,4.657849773591));
#450 = CARTESIAN_POINT('',(1.328027683761,4.622437915131));
#451 = CARTESIAN_POINT('',(1.307875552239,4.583567468196));
#452 = CARTESIAN_POINT('',(1.290022457517,4.541719487356));
#453 = CARTESIAN_POINT('',(1.274637033517,4.497384946374));
#454 = CARTESIAN_POINT('',(1.261858346468,4.451060351259));
#455 = CARTESIAN_POINT('',(1.241945000072,4.35652294798));
#456 = CARTESIAN_POINT('',(1.234679068504,4.308337006576));
#457 = CARTESIAN_POINT('',(1.230092135063,4.25915700743));
#458 = CARTESIAN_POINT('',(1.228248983788,4.209448716933));
#459 = CARTESIAN_POINT('',(1.229174525036,4.159674331282));
#460 = CARTESIAN_POINT('',(1.232853510459,4.110295547603));
#461 = CARTESIAN_POINT('',(1.239230744515,4.06177696326));
#462 = CARTESIAN_POINT('',(1.259839348074,3.953497676243));
#463 = CARTESIAN_POINT('',(1.275857497883,3.894499337228));
#464 = CARTESIAN_POINT('',(1.296090172286,3.838664233956));
#465 = CARTESIAN_POINT('',(1.320241822265,3.787039717937));
#466 = CARTESIAN_POINT('',(1.347931492821,3.740640126872));
#467 = CARTESIAN_POINT('',(1.378728616249,3.700430879039));
#468 = CARTESIAN_POINT('',(1.412175076372,3.667315575828));
#469 = CARTESIAN_POINT('',(1.484357273745,3.616262217827));
#470 = CARTESIAN_POINT('',(1.523067207423,3.598868203798));
#471 = CARTESIAN_POINT('',(1.563048575372,3.590955187179));
#472 = CARTESIAN_POINT('',(1.603384223295,3.593002605229));
#473 = CARTESIAN_POINT('',(1.643171783829,3.605004331028));
#474 = CARTESIAN_POINT('',(1.681509462663,3.626481251075));
#475 = CARTESIAN_POINT('',(1.717498872095,3.656459211678));
#476 = CARTESIAN_POINT('',(1.800479112538,3.74972456075));
#477 = CARTESIAN_POINT('',(1.843744912496,3.822690450484));
#478 = CARTESIAN_POINT('',(1.878536539,3.908806535873));
#479 = CARTESIAN_POINT('',(1.903357673038,4.004311065191));
#480 = CARTESIAN_POINT('',(1.917033784439,4.105249926697));
#481 = CARTESIAN_POINT('',(1.919083094197,4.207871636952));
#482 = CARTESIAN_POINT('',(1.9097771001,4.308434015187));
#483 = CARTESIAN_POINT('',(1.879734307121,4.451060351259));
#484 = CARTESIAN_POINT('',(1.866955620072,4.497384946374));
#485 = CARTESIAN_POINT('',(1.851570196073,4.541719487356));
#486 = CARTESIAN_POINT('',(1.83371710135,4.583567468196));
#487 = CARTESIAN_POINT('',(1.813564969829,4.622437915131));
#488 = CARTESIAN_POINT('',(1.791304455228,4.657849773591));
#489 = CARTESIAN_POINT('',(1.767142976581,4.689335693966));
#490 = CARTESIAN_POINT('',(1.722223452594,4.736459895619));
#491 = CARTESIAN_POINT('',(1.702216479655,4.754102885945));
#492 = CARTESIAN_POINT('',(1.681417599309,4.769135111773));
#493 = CARTESIAN_POINT('',(1.659973062526,4.781365009565));
#494 = CARTESIAN_POINT('',(1.638034226018,4.790646450474));
#495 = CARTESIAN_POINT('',(1.61575482244,4.796877497349));
#496 = CARTESIAN_POINT('',(1.593289885041,4.799999995895));
#497 = CARTESIAN_POINT('',(1.570796326795,4.8));
#498 = ( GEOMETRIC_REPRESENTATION_CONTEXT(2) 
PARAMETRIC_REPRESENTATION_CONTEXT() REPRESENTATION_CONTEXT('2D SPACE',''
  ) );
#499 = PCURVE('',#500,#505);
#500 = CYLINDRICAL_SURFACE('',#501,0.6);
#501 = AXIS2_PLACEMENT_3D('',#502,#503,#504);
#502 = CARTESIAN_POINT('',(0.,-1.4,3.2));
#503 = DIRECTION('',(0.,1.,0.));
#504 = DIRECTION('',(0.,-0.,1.));
#505 = DEFINITIONAL_REPRESENTATION('',(#506),#565);
#506 = B_SPLINE_CURVE_WITH_KNOTS('',8,(#507,#508,#509,#510,#511,#512,
    #513,#514,#515,#516,#517,#518,#519,#520,#521,#522,#523,#524,#525,
    #526,#527,#528,#529,#530,#531,#532,#533,#534,#535,#536,#537,#538,
    #539,#540,#541,#542,#543,#544,#545,#546,#547,#548,#549,#550,#551,
    #552,#553,#554,#555,#556,#557,#558,#559,#560,#561,#562,#563,#564),
  .UNSPECIFIED.,.F.,.F.,(9,7,7,7,7,7,7,7,9),(0.,8.204781564209E-02,
    0.193180307999,0.301761424073,0.44233888971,0.58677069606,
    0.80695752322,0.918010636765,1.),.UNSPECIFIED.);
#507 = CARTESIAN_POINT('',(0.,3.2));
#508 = CARTESIAN_POINT('',(6.748068090663E-02,3.199999999325));
#509 = CARTESIAN_POINT('',(0.134875409921,3.198959150222));
#510 = CARTESIAN_POINT('',(0.202130378413,3.196882167064));
#511 = CARTESIAN_POINT('',(0.269190865206,3.193815293299));
#512 = CARTESIAN_POINT('',(0.335996727819,3.1898458622));
#513 = CARTESIAN_POINT('',(0.402476522593,3.185098134585));
#514 = CARTESIAN_POINT('',(0.468540253714,3.179725413525));
#515 = CARTESIAN_POINT('',(0.622830792363,3.166005885479));
#516 = CARTESIAN_POINT('',(0.710695207329,3.157272736352));
#517 = CARTESIAN_POINT('',(0.797791849121,3.148081938308));
#518 = CARTESIAN_POINT('',(0.88422978958,3.138848336083));
#519 = CARTESIAN_POINT('',(0.970105247221,3.129987352921));
#520 = CARTESIAN_POINT('',(1.055506463021,3.12188502895));
#521 = CARTESIAN_POINT('',(1.14051752404,3.114869414526));
#522 = CARTESIAN_POINT('',(1.307980122911,3.103627763724));
#523 = CARTESIAN_POINT('',(1.390517763832,3.099336766656));
#524 = CARTESIAN_POINT('',(1.472889700277,3.096543026222));
#525 = CARTESIAN_POINT('',(1.555168940732,3.095403186283));
#526 = CARTESIAN_POINT('',(1.637437264938,3.095979528139));
#527 = CARTESIAN_POINT('',(1.719776985444,3.098233308438));
#528 = CARTESIAN_POINT('',(1.80226306534,3.102029742493));
#529 = CARTESIAN_POINT('',(1.992015698616,3.113789710517));
#530 = CARTESIAN_POINT('',(2.099662617037,3.122666309635));
#531 = CARTESIAN_POINT('',(2.207974774082,3.133334708781));
#532 = CARTESIAN_POINT('',(2.317065602017,3.145108174455));
#533 = CARTESIAN_POINT('',(2.427078315111,3.157144102721));
#534 = CARTESIAN_POINT('',(2.538183750325,3.168557727662));
#535 = CARTESIAN_POINT('',(2.650593621365,3.178533224014));
#536 = CARTESIAN_POINT('',(2.881735308007,3.194476447485));
#537 = CARTESIAN_POINT('',(3.000089430125,3.200295041748));
#538 = CARTESIAN_POINT('',(3.119018691615,3.203087873497));
#539 = CARTESIAN_POINT('',(3.238091428979,3.202397366489));
#540 = CARTESIAN_POINT('',(3.356933730293,3.198214655384));
#541 = CARTESIAN_POINT('',(3.475141604963,3.191007627263));
#542 = CARTESIAN_POINT('',(3.592166473304,3.181623809935));
#543 = CARTESIAN_POINT('',(3.882264411499,3.154945988165));
#544 = CARTESIAN_POINT('',(4.053957169298,3.135952998207));
#545 = CARTESIAN_POINT('',(4.223310897747,3.117098154216));
#546 = CARTESIAN_POINT('',(4.390877471017,3.10174916422));
#547 = CARTESIAN_POINT('',(4.557365678564,3.092936340957));
#548 = CARTESIAN_POINT('',(4.723489343797,3.091877304057));
#549 = CARTESIAN_POINT('',(4.890020935671,3.097909402831));
#550 = CARTESIAN_POINT('',(5.142667783139,3.114869414526));
#551 = CARTESIAN_POINT('',(5.227678844159,3.12188502895));
#552 = CARTESIAN_POINT('',(5.313080059958,3.129987352921));
#553 = CARTESIAN_POINT('',(5.3989555176,3.138848336083));
#554 = CARTESIAN_POINT('',(5.485393458058,3.148081938308));
#555 = CARTESIAN_POINT('',(5.57249009985,3.157272736352));
#556 = CARTESIAN_POINT('',(5.660354514817,3.166005885479));
#557 = CARTESIAN_POINT('',(5.814645174984,3.17972542433));
#558 = CARTESIAN_POINT('',(5.880709009452,3.185098152786));
#559 = CARTESIAN_POINT('',(5.947188855143,3.189845880902));
#560 = CARTESIAN_POINT('',(6.013994706041,3.19381530618));
#561 = CARTESIAN_POINT('',(6.081055125405,3.196882171847));
#562 = CARTESIAN_POINT('',(6.148309993545,3.198959149874));
#563 = CARTESIAN_POINT('',(6.215704632441,3.199999999325));
#564 = CARTESIAN_POINT('',(6.28318530718,3.2));
#565 = ( GEOMETRIC_REPRESENTATION_CONTEXT(2) 
PARAMETRIC_REPRESENTATION_CONTEXT() REPRESENTATION_CONTEXT('2D SPACE',''
  ) );
#566 = ADVANCED_FACE('',(#567),#191,.F.);
#567 = FACE_BOUND('',#568,.F.);
#568 = EDGE_LOOP('',(#569,#570,#591,#592));
#569 = ORIENTED_EDGE('',*,*,#174,.F.);
#570 = ORIENTED_EDGE('',*,*,#571,.F.);
#571 = EDGE_CURVE('',#267,#175,#572,.T.);
#572 = SEAM_CURVE('',#573,(#577,#584),.PCURVE_S1.);
#573 = LINE('',#574,#575);
#574 = CARTESIAN_POINT('',(4.7,-2.694222958124E-16,-1.));
#575 = VECTOR('',#576,1.);
#576 = DIRECTION('',(0.,0.,1.));
#577 = PCURVE('',#191,#578);
#578 = DEFINITIONAL_REPRESENTATION('',(#579),#583);
#579 = LINE('',#580,#581);
#580 = CARTESIAN_POINT('',(6.28318530718,-0.));
#581 = VECTOR('',#582,1.);
#582 = DIRECTION('',(0.,1.));
#583 = ( GEOMETRIC_REPRESENTATION_CONTEXT(2) 
PARAMETRIC_REPRESENTATION_CONTEXT() REPRESENTATION_CONTEXT('2D SPACE',''
  ) );
#584 = PCURVE('',#191,#585);
#585 = DEFINITIONAL_REPRESENTATION('',(#586),#590);
#586 = LINE('',#587,#588);
#587 = CARTESIAN_POINT('',(0.,-0.));
#588 = VECTOR('',#589,1.);
#589 = DIRECTION('',(0.,1.));
#590 = ( GEOMETRIC_REPRESENTATION_CONTEXT(2) 
PARAMETRIC_REPRESENTATION_CONTEXT() REPRESENTATION_CONTEXT('2D SPACE',''
  ) );
#591 = ORIENTED_EDGE('',*,*,#266,.T.);
#592 = ORIENTED_EDGE('',*,*,#571,.T.);
#593 = ADVANCED_FACE('',(#594,#648),#252,.T.);
#594 = FACE_BOUND('',#595,.T.);
#595 = EDGE_LOOP('',(#596,#619,#620,#621));
#596 = ORIENTED_EDGE('',*,*,#597,.T.);
#597 = EDGE_CURVE('',#598,#236,#600,.T.);
#598 = VERTEX_POINT('',#599);
#599 = CARTESIAN_POINT('',(2.2,-5.388445916248E-16,1.2));
#600 = SEAM_CURVE('',#601,(#605,#612),.PCURVE_S1.);
#601 = LINE('',#602,#603);
#602 = CARTESIAN_POINT('',(2.2,-5.388445916248E-16,1.2));
#603 = VECTOR('',#604,1.);
#604 = DIRECTION('',(0.,0.,1.));
#605 = PCURVE('',#252,#606);
#606 = DEFINITIONAL_REPRESENTATION('',(#607),#611);
#607 = LINE('',#608,#609);
#608 = CARTESIAN_POINT('',(6.28318530718,-0.));
#609 = VECTOR('',#610,1.);
#610 = DIRECTION('',(0.,1.));
#611 = ( GEOMETRIC_REPRESENTATION_CONTEXT(2) 
PARAMETRIC_REPRESENTATION_CONTEXT() REPRESENTATION_CONTEXT('2D SPACE',''
  ) );
#612 = PCURVE('',#252,#613);
#613 = DEFINITIONAL_REPRESENTATION('',(#614),#618);
#614 = LINE('',#615,#616);
#615 = CARTESIAN_POINT('',(0.,-0.));
#616 = VECTOR('',#617,1.);
#617 = DIRECTION('',(0.,1.));
#618 = ( GEOMETRIC_REPRESENTATION_CONTEXT(2) 
PARAMETRIC_REPRESENTATION_CONTEXT() REPRESENTATION_CONTEXT('2D SPACE',''
  ) );
#619 = ORIENTED_EDGE('',*,*,#235,.F.);
#620 = ORIENTED_EDGE('',*,*,#597,.F.);
#621 = ORIENTED_EDGE('',*,*,#622,.T.);
#622 = EDGE_CURVE('',#598,#598,#623,.T.);
#623 = SURFACE_CURVE('',#624,(#629,#636),.PCURVE_S1.);
#624 = CIRCLE('',#625,2.2);
#625 = AXIS2_PLACEMENT_3D('',#626,#627,#628);
#626 = CARTESIAN_POINT('',(0.,0.,1.2));
#627 = DIRECTION('',(0.,0.,1.));
#628 = DIRECTION('',(1.,0.,-0.));
#629 = PCURVE('',#252,#630);
#630 = DEFINITIONAL_REPRESENTATION('',(#631),#635);
#631 = LINE('',#632,#633);
#632 = CARTESIAN_POINT('',(0.,0.));
#633 = VECTOR('',#634,1.);
#634 = DIRECTION('',(1.,0.));
#635 = ( GEOMETRIC_REPRESENTATION_CONTEXT(2) 
PARAMETRIC_REPRESENTATION_CONTEXT() REPRESENTATION_CONTEXT('2D SPACE',''
  ) );
#636 = PCURVE('',#637,#642);
#637 = PLANE('',#638);
#638 = AXIS2_PLACEMENT_3D('',#639,#640,#641);
#639 = CARTESIAN_POINT('',(0.,0.,1.2));
#640 = DIRECTION('',(0.,0.,1.));
#641 = DIRECTION('',(1.,0.,-0.));
#642 = DEFINITIONAL_REPRESENTATION('',(#643),#647);
#643 = CIRCLE('',#644,2.2);
#644 = AXIS2_PLACEMENT_2D('',#645,#646);
#645 = CARTESIAN_POINT('',(0.,0.));
#646 = DIRECTION('',(1.,0.));
#647 = ( GEOMETRIC_REPRESENTATION_CONTEXT(2) 
PARAMETRIC_REPRESENTATION_CONTEXT() REPRESENTATION_CONTEXT('2D SPACE',''
  ) );
#648 = FACE_BOUND('',#649,.T.);
#649 = EDGE_LOOP('',(#650));
#650 = ORIENTED_EDGE('',*,*,#651,.F.);
#651 = EDGE_CURVE('',#652,#652,#654,.T.);
#652 = VERTEX_POINT('',#653);
#653 = CARTESIAN_POINT('',(-1.469576158977E-16,2.2,3.8));
#654 = SURFACE_CURVE('',#655,(#700,#748),.PCURVE_S1.);
#655 = B_SPLINE_CURVE_WITH_KNOTS('',8,(#656,#657,#658,#659,#660,#661,
    #662,#663,#664,#665,#666,#667,#668,#669,#670,#671,#672,#673,#674,
    #675,#676,#677,#678,#679,#680,#681,#682,#683,#684,#685,#686,#687,
    #688,#689,#690,#691,#692,#693,#694,#695,#696,#697,#698,#699),
  .UNSPECIFIED.,.T.,.F.,(9,7,7,7,7,7,9),(0.,0.131776309488,
    0.251131626903,0.500005612491,0.748879598079,0.868235460334,1.),
  .UNSPECIFIED.);
#656 = CARTESIAN_POINT('',(0.,2.2,3.8));
#657 = CARTESIAN_POINT('',(6.534951358822E-02,2.199999999109,
    3.799999993465));
#658 = CARTESIAN_POINT('',(0.130303805584,2.197781740112,3.791865418744)
  );
#659 = CARTESIAN_POINT('',(0.193667856189,2.193391350468,3.775769382212)
  );
#660 = CARTESIAN_POINT('',(0.254289997153,2.18709088869,3.752095975695)
  );
#661 = CARTESIAN_POINT('',(0.311093929912,2.179339109916,3.721444029395)
  );
#662 = CARTESIAN_POINT('',(0.363126108809,2.170735148289,3.684626649758)
  );
#663 = CARTESIAN_POINT('',(0.409618489389,2.161925116136,3.642666542269)
  );
#664 = CARTESIAN_POINT('',(0.486702225868,2.145814934747,3.555232205984)
  );
#665 = CARTESIAN_POINT('',(0.518608187277,2.138403421235,3.51020235619)
  );
#666 = CARTESIAN_POINT('',(0.545513648612,2.131618540053,3.462296499353)
  );
#667 = CARTESIAN_POINT('',(0.567219740218,2.125807853998,3.412105562338)
  );
#668 = CARTESIAN_POINT('',(0.583587472405,2.12125368986,3.36021123661));
#669 = CARTESIAN_POINT('',(0.594528674396,2.118151946452,3.307186158954)
  );
#670 = CARTESIAN_POINT('',(0.6,2.116601048852,3.253595505635));
#671 = CARTESIAN_POINT('',(0.6,2.116601048852,3.088245221196));
#672 = CARTESIAN_POINT('',(0.576211715982,2.123345694442,2.974358875404)
  );
#673 = CARTESIAN_POINT('',(0.527043407879,2.137275128265,2.865283141637)
  );
#674 = CARTESIAN_POINT('',(0.453868001672,2.156430751076,2.767734486613)
  );
#675 = CARTESIAN_POINT('',(0.359503755681,2.176087406409,2.687683515954)
  );
#676 = CARTESIAN_POINT('',(0.248495259764,2.191708313597,2.630401722844)
  );
#677 = CARTESIAN_POINT('',(0.126334845058,2.2,2.6));
#678 = CARTESIAN_POINT('',(-0.126334845058,2.2,2.6));
#679 = CARTESIAN_POINT('',(-0.248495259765,2.191708313597,2.630401722844
    ));
#680 = CARTESIAN_POINT('',(-0.35950375568,2.176087406409,2.687683515954)
  );
#681 = CARTESIAN_POINT('',(-0.453868001673,2.156430751076,2.767734486613
    ));
#682 = CARTESIAN_POINT('',(-0.527043407878,2.137275128265,2.865283141637
    ));
#683 = CARTESIAN_POINT('',(-0.576211715982,2.123345694442,2.974358875404
    ));
#684 = CARTESIAN_POINT('',(-0.6,2.116601048852,3.088245221196));
#685 = CARTESIAN_POINT('',(-0.6,2.116601048852,3.25359575029));
#686 = CARTESIAN_POINT('',(-0.594528633022,2.118151947255,3.30718649553)
  );
#687 = CARTESIAN_POINT('',(-0.583587377722,2.121253716016,3.360211621222
    ));
#688 = CARTESIAN_POINT('',(-0.567219587872,2.125807904656,3.412105963492
    ));
#689 = CARTESIAN_POINT('',(-0.545513456237,2.131618592512,3.46229686133)
  );
#690 = CARTESIAN_POINT('',(-0.518608009777,2.138403456374,3.510202608874
    ));
#691 = CARTESIAN_POINT('',(-0.486702136188,2.14581495349,3.555232307707)
  );
#692 = CARTESIAN_POINT('',(-0.40962238571,2.161924301821,3.64266212276)
  );
#693 = CARTESIAN_POINT('',(-0.363130611705,2.170734362075,3.684623613753
    ));
#694 = CARTESIAN_POINT('',(-0.311095419902,2.179339132879,3.72144460606)
  );
#695 = CARTESIAN_POINT('',(-0.25428606413,2.187091748712,3.752099451874)
  );
#696 = CARTESIAN_POINT('',(-0.193658450429,2.193392440861,3.775773427447
    ));
#697 = CARTESIAN_POINT('',(-0.130291765062,2.197782370319,3.791867745386
    ));
#698 = CARTESIAN_POINT('',(-6.534023201699E-02,2.199999999109,
    3.799999993466));
#699 = CARTESIAN_POINT('',(0.,2.2,3.8));
#700 = PCURVE('',#252,#701);
#701 = DEFINITIONAL_REPRESENTATION('',(#702),#747);
#702 = B_SPLINE_CURVE_WITH_KNOTS('',8,(#703,#704,#705,#706,#707,#708,
    #709,#710,#711,#712,#713,#714,#715,#716,#717,#718,#719,#720,#721,
    #722,#723,#724,#725,#726,#727,#728,#729,#730,#731,#732,#733,#734,
    #735,#736,#737,#738,#739,#740,#741,#742,#743,#744,#745,#746),
  .UNSPECIFIED.,.T.,.F.,(9,7,7,7,7,7,9),(0.,0.131776309488,
    0.251131626903,0.500005612491,0.748879598079,0.868235460334,1.),
  .UNSPECIFIED.);
#703 = CARTESIAN_POINT('',(1.570796326795,2.6));
#704 = CARTESIAN_POINT('',(1.541092002437,2.599999993405));
#705 = CARTESIAN_POINT('',(1.511567170946,2.5918654188));
#706 = CARTESIAN_POINT('',(1.48272584513,2.575769382239));
#707 = CARTESIAN_POINT('',(1.455052104367,2.552095975656));
#708 = CARTESIAN_POINT('',(1.429014859269,2.521444029371));
#709 = CARTESIAN_POINT('',(1.405054128098,2.484626649788));
#710 = CARTESIAN_POINT('',(1.383548824908,2.442666542269));
#711 = CARTESIAN_POINT('',(1.347753722821,2.355232205984));
#712 = CARTESIAN_POINT('',(1.33286862262,2.31020235619));
#713 = CARTESIAN_POINT('',(1.320258894304,2.262296499353));
#714 = CARTESIAN_POINT('',(1.310046331442,2.212105562338));
#715 = CARTESIAN_POINT('',(1.30232399129,2.16021123661));
#716 = CARTESIAN_POINT('',(1.297154591225,2.107186158954));
#717 = CARTESIAN_POINT('',(1.294569696031,2.053595505635));
#718 = CARTESIAN_POINT('',(1.294569696031,1.888245221196));
#719 = CARTESIAN_POINT('',(1.305809080399,1.774358875404));
#720 = CARTESIAN_POINT('',(1.329035666632,1.665283141637));
#721 = CARTESIAN_POINT('',(1.363419495737,1.567734486613));
#722 = CARTESIAN_POINT('',(1.407097098651,1.487683515954));
#723 = CARTESIAN_POINT('',(1.457843851864,1.430401722844));
#724 = CARTESIAN_POINT('',(1.513371397223,1.4));
#725 = CARTESIAN_POINT('',(1.628221256367,1.4));
#726 = CARTESIAN_POINT('',(1.683748801725,1.430401722844));
#727 = CARTESIAN_POINT('',(1.734495554939,1.487683515954));
#728 = CARTESIAN_POINT('',(1.778173157852,1.567734486613));
#729 = CARTESIAN_POINT('',(1.812556986958,1.665283141637));
#730 = CARTESIAN_POINT('',(1.835783573191,1.774358875404));
#731 = CARTESIAN_POINT('',(1.847022957558,1.888245221196));
#732 = CARTESIAN_POINT('',(1.847022957558,2.05359575029));
#733 = CARTESIAN_POINT('',(1.844438051409,2.10718649553));
#734 = CARTESIAN_POINT('',(1.839268618477,2.160211621222));
#735 = CARTESIAN_POINT('',(1.831546243556,2.212105963492));
#736 = CARTESIAN_POINT('',(1.821333666414,2.26229686133));
#737 = CARTESIAN_POINT('',(1.808723953118,2.310202608874));
#738 = CARTESIAN_POINT('',(1.793838889125,2.355232307707));
#739 = CARTESIAN_POINT('',(1.758045638002,2.44266212276));
#740 = CARTESIAN_POINT('',(1.736540597513,2.484623613784));
#741 = CARTESIAN_POINT('',(1.71257846195,2.521444606036));
#742 = CARTESIAN_POINT('',(1.686538732237,2.552099451834));
#743 = CARTESIAN_POINT('',(1.658862512078,2.575773427475));
#744 = CARTESIAN_POINT('',(1.630020007133,2.591867745443));
#745 = CARTESIAN_POINT('',(1.600496432257,2.599999993406));
#746 = CARTESIAN_POINT('',(1.570796326795,2.6));
#747 = ( GEOMETRIC_REPRESENTATION_CONTEXT(2) 
PARAMETRIC_REPRESENTATION_CONTEXT() REPRESENTATION_CONTEXT('2D SPACE',''
  ) );
#748 = PCURVE('',#500,#749);
#749 = DEFINITIONAL_REPRESENTATION('',(#750),#795);
#750 = B_SPLINE_CURVE_WITH_KNOTS('',8,(#751,#752,#753,#754,#755,#756,
    #757,#758,#759,#760,#761,#762,#763,#764,#765,#766,#767,#768,#769,
    #770,#771,#772,#773,#774,#775,#776,#777,#778,#779,#780,#781,#782,
    #783,#784,#785,#786,#787,#788,#789,#790,#791,#792,#793,#794),
  .UNSPECIFIED.,.F.,.F.,(9,7,7,7,7,7,9),(0.,0.131776309488,
    0.251131626903,0.500005612491,0.748879598079,0.868235460334,1.),
  .UNSPECIFIED.);
#751 = CARTESIAN_POINT('',(0.,3.6));
#752 = CARTESIAN_POINT('',(0.10891585598,3.599999999109));
#753 = CARTESIAN_POINT('',(0.217172070203,3.597781740112));
#754 = CARTESIAN_POINT('',(0.324750037089,3.593391350468));
#755 = CARTESIAN_POINT('',(0.43159194933,3.58709088869));
#756 = CARTESIAN_POINT('',(0.537595910381,3.579339109916));
#757 = CARTESIAN_POINT('',(0.64259079237,3.570735148289));
#758 = CARTESIAN_POINT('',(0.746290839433,3.561925116136));
#759 = CARTESIAN_POINT('',(0.940560594549,3.545814934747));
#760 = CARTESIAN_POINT('',(1.032022588494,3.538403421235));
#761 = CARTESIAN_POINT('',(1.122767978979,3.531618540053));
#762 = CARTESIAN_POINT('',(1.212943478795,3.525807853998));
#763 = CARTESIAN_POINT('',(1.302691500176,3.52125368986));
#764 = CARTESIAN_POINT('',(1.392152754462,3.518151946452));
#765 = CARTESIAN_POINT('',(1.48147048407,3.516601048852));
#766 = CARTESIAN_POINT('',(1.757054291469,3.516601048852));
#767 = CARTESIAN_POINT('',(1.946863125353,3.523345694442));
#768 = CARTESIAN_POINT('',(2.138513086665,3.537275128265));
#769 = CARTESIAN_POINT('',(2.332175569273,3.556430751076));
#770 = CARTESIAN_POINT('',(2.528200325552,3.576087406409));
#771 = CARTESIAN_POINT('',(2.727432961537,3.591708313597));
#772 = CARTESIAN_POINT('',(2.931034578493,3.6));
#773 = CARTESIAN_POINT('',(3.352150728686,3.6));
#774 = CARTESIAN_POINT('',(3.555752345642,3.591708313597));
#775 = CARTESIAN_POINT('',(3.75498498163,3.576087406409));
#776 = CARTESIAN_POINT('',(3.951009737903,3.556430751076));
#777 = CARTESIAN_POINT('',(4.144672220517,3.537275128265));
#778 = CARTESIAN_POINT('',(4.336322181826,3.523345694442));
#779 = CARTESIAN_POINT('',(4.526131015711,3.516601048852));
#780 = CARTESIAN_POINT('',(4.801715230868,3.516601048852));
#781 = CARTESIAN_POINT('',(4.891033112183,3.518151947255));
#782 = CARTESIAN_POINT('',(4.980494456089,3.521253716016));
#783 = CARTESIAN_POINT('',(5.070242534561,3.525807904656));
#784 = CARTESIAN_POINT('',(5.160418006347,3.531618592512));
#785 = CARTESIAN_POINT('',(5.251163229323,3.538403456374));
#786 = CARTESIAN_POINT('',(5.342624938646,3.54581495349));
#787 = CARTESIAN_POINT('',(5.536884648072,3.561924301821));
#788 = CARTESIAN_POINT('',(5.640585756592,3.570734362075));
#789 = CARTESIAN_POINT('',(5.745587990729,3.579339132879));
#790 = CARTESIAN_POINT('',(5.851601601184,3.587091748712));
#791 = CARTESIAN_POINT('',(5.958451804155,3.593392440861));
#792 = CARTESIAN_POINT('',(6.066033257019,3.597782370319));
#793 = CARTESIAN_POINT('',(6.174284920485,3.599999999109));
#794 = CARTESIAN_POINT('',(6.28318530718,3.6));
#795 = ( GEOMETRIC_REPRESENTATION_CONTEXT(2) 
PARAMETRIC_REPRESENTATION_CONTEXT() REPRESENTATION_CONTEXT('2D SPACE',''
  ) );
#796 = ADVANCED_FACE('',(#797,#828,#859,#862),#360,.F.);
#797 = FACE_BOUND('',#798,.F.);
#798 = EDGE_LOOP('',(#799));
#799 = ORIENTED_EDGE('',*,*,#800,.T.);
#800 = EDGE_CURVE('',#801,#801,#803,.T.);
#801 = VERTEX_POINT('',#802);
#802 = CARTESIAN_POINT('',(5.,-1.224646799147E-15,0.));
#803 = SURFACE_CURVE('',#804,(#809,#816),.PCURVE_S1.);
#804 = CIRCLE('',#805,5.);
#805 = AXIS2_PLACEMENT_3D('',#806,#807,#808);
#806 = CARTESIAN_POINT('',(0.,0.,0.));
#807 = DIRECTION('',(0.,0.,1.));
#808 = DIRECTION('',(1.,0.,-0.));
#809 = PCURVE('',#360,#810);
#810 = DEFINITIONAL_REPRESENTATION('',(#811),#815);
#811 = CIRCLE('',#812,5.);
#812 = AXIS2_PLACEMENT_2D('',#813,#814);
#813 = CARTESIAN_POINT('',(0.,0.));
#814 = DIRECTION('',(1.,0.));
#815 = ( GEOMETRIC_REPRESENTATION_CONTEXT(2) 
PARAMETRIC_REPRESENTATION_CONTEXT() REPRESENTATION_CONTEXT('2D SPACE',''
  ) );
#816 = PCURVE('',#817,#822);
#817 = CYLINDRICAL_SURFACE('',#818,5.);
#818 = AXIS2_PLACEMENT_3D('',#819,#820,#821);
#819 = CARTESIAN_POINT('',(0.,0.,0.));
#820 = DIRECTION('',(0.,0.,1.));
#821 = DIRECTION('',(1.,0.,-0.));
#822 = DEFINITIONAL_REPRESENTATION('',(#823),#827);
#823 = LINE('',#824,#825);
#824 = CARTESIAN_POINT('',(0.,0.));
#825 = VECTOR('',#826,1.);
#826 = DIRECTION('',(1.,0.));
#827 = ( GEOMETRIC_REPRESENTATION_CONTEXT(2) 
PARAMETRIC_REPRESENTATION_CONTEXT() REPRESENTATION_CONTEXT('2D SPACE',''
  ) );
#828 = FACE_BOUND('',#829,.F.);
#829 = EDGE_LOOP('',(#830));
#830 = ORIENTED_EDGE('',*,*,#831,.F.);
#831 = EDGE_CURVE('',#832,#832,#834,.T.);
#832 = VERTEX_POINT('',#833);
#833 = CARTESIAN_POINT('',(-2.5,-2.694222958124E-16,0.));
#834 = SURFACE_CURVE('',#835,(#840,#847),.PCURVE_S1.);
#835 = CIRCLE('',#836,1.1);
#836 = AXIS2_PLACEMENT_3D('',#837,#838,#839);
#837 = CARTESIAN_POINT('',(-3.6,0.,0.));
#838 = DIRECTION('',(0.,0.,1.));
#839 = DIRECTION('',(1.,0.,-0.));
#840 = PCURVE('',#360,#841);
#841 = DEFINITIONAL_REPRESENTATION('',(#842),#846);
#842 = CIRCLE('',#843,1.1);
#843 = AXIS2_PLACEMENT_2D('',#844,#845);
#844 = CARTESIAN_POINT('',(-3.6,0.));
#845 = DIRECTION('',(1.,0.));
#846 = ( GEOMETRIC_REPRESENTATION_CONTEXT(2) 
PARAMETRIC_REPRESENTATION_CONTEXT() REPRESENTATION_CONTEXT('2D SPACE',''
  ) );
#847 = PCURVE('',#848,#853);
#848 = CYLINDRICAL_SURFACE('',#849,1.1);
#849 = AXIS2_PLACEMENT_3D('',#850,#851,#852);
#850 = CARTESIAN_POINT('',(-3.6,0.,-1.));
#851 = DIRECTION('',(0.,0.,1.));
#852 = DIRECTION('',(1.,0.,-0.));
#853 = DEFINITIONAL_REPRESENTATION('',(#854),#858);
#854 = LINE('',#855,#856);
#855 = CARTESIAN_POINT('',(0.,1.));
#856 = VECTOR('',#857,1.);
#857 = DIRECTION('',(1.,0.));
#858 = ( GEOMETRIC_REPRESENTATION_CONTEXT(2) 
PARAMETRIC_REPRESENTATION_CONTEXT() REPRESENTATION_CONTEXT('2D SPACE',''
  ) );
#859 = FACE_BOUND('',#860,.F.);
#860 = EDGE_LOOP('',(#861));
#861 = ORIENTED_EDGE('',*,*,#345,.F.);
#862 = FACE_BOUND('',#863,.F.);
#863 = EDGE_LOOP('',(#864));
#864 = ORIENTED_EDGE('',*,*,#865,.F.);
#865 = EDGE_CURVE('',#866,#866,#868,.T.);
#866 = VERTEX_POINT('',#867);
#867 = CARTESIAN_POINT('',(4.7,-2.694222958124E-16,0.));
#868 = SURFACE_CURVE('',#869,(#874,#881),.PCURVE_S1.);
#869 = CIRCLE('',#870,1.1);
#870 = AXIS2_PLACEMENT_3D('',#871,#872,#873);
#871 = CARTESIAN_POINT('',(3.6,0.,0.));
#872 = DIRECTION('',(0.,0.,1.));
#873 = DIRECTION('',(1.,0.,-0.));
#874 = PCURVE('',#360,#875);
#875 = DEFINITIONAL_REPRESENTATION('',(#876),#880);
#876 = CIRCLE('',#877,1.1);
#877 = AXIS2_PLACEMENT_2D('',#878,#879);
#878 = CARTESIAN_POINT('',(3.6,0.));
#879 = DIRECTION('',(1.,0.));
#880 = ( GEOMETRIC_REPRESENTATION_CONTEXT(2) 
PARAMETRIC_REPRESENTATION_CONTEXT() REPRESENTATION_CONTEXT('2D SPACE',''
  ) );
#881 = PCURVE('',#882,#887);
#882 = CYLINDRICAL_SURFACE('',#883,1.1);
#883 = AXIS2_PLACEMENT_3D('',#884,#885,#886);
#884 = CARTESIAN_POINT('',(3.6,0.,-1.));
#885 = DIRECTION('',(0.,0.,1.));
#886 = DIRECTION('',(1.,0.,-0.));
#887 = DEFINITIONAL_REPRESENTATION('',(#888),#892);
#888 = LINE('',#889,#890);
#889 = CARTESIAN_POINT('',(0.,1.));
#890 = VECTOR('',#891,1.);
#891 = DIRECTION('',(1.,0.));
#892 = ( GEOMETRIC_REPRESENTATION_CONTEXT(2) 
PARAMETRIC_REPRESENTATION_CONTEXT() REPRESENTATION_CONTEXT('2D SPACE',''
  ) );
#893 = ADVANCED_FACE('',(#894),#500,.F.);
#894 = FACE_BOUND('',#895,.F.);
#895 = EDGE_LOOP('',(#896,#897,#918,#919));
#896 = ORIENTED_EDGE('',*,*,#651,.F.);
#897 = ORIENTED_EDGE('',*,*,#898,.F.);
#898 = EDGE_CURVE('',#375,#652,#899,.T.);
#899 = SEAM_CURVE('',#900,(#904,#911),.PCURVE_S1.);
#900 = LINE('',#901,#902);
#901 = CARTESIAN_POINT('',(-1.469576158977E-16,-1.4,3.8));
#902 = VECTOR('',#903,1.);
#903 = DIRECTION('',(0.,1.,0.));
#904 = PCURVE('',#500,#905);
#905 = DEFINITIONAL_REPRESENTATION('',(#906),#910);
#906 = LINE('',#907,#908);
#907 = CARTESIAN_POINT('',(6.28318530718,-0.));
#908 = VECTOR('',#909,1.);
#909 = DIRECTION('',(0.,1.));
#910 = ( GEOMETRIC_REPRESENTATION_CONTEXT(2) 
PARAMETRIC_REPRESENTATION_CONTEXT() REPRESENTATION_CONTEXT('2D SPACE',''
  ) );
#911 = PCURVE('',#500,#912);
#912 = DEFINITIONAL_REPRESENTATION('',(#913),#917);
#913 = LINE('',#914,#915);
#914 = CARTESIAN_POINT('',(0.,-0.));
#915 = VECTOR('',#916,1.);
#916 = DIRECTION('',(0.,1.));
#917 = ( GEOMETRIC_REPRESENTATION_CONTEXT(2) 
PARAMETRIC_REPRESENTATION_CONTEXT() REPRESENTATION_CONTEXT('2D SPACE',''
  ) );
#918 = ORIENTED_EDGE('',*,*,#374,.T.);
#919 = ORIENTED_EDGE('',*,*,#898,.T.);
#920 = ADVANCED_FACE('',(#921,#947,#973,#976),#637,.T.);
#921 = FACE_BOUND('',#922,.T.);
#922 = EDGE_LOOP('',(#923));
#923 = ORIENTED_EDGE('',*,*,#924,.T.);
#924 = EDGE_CURVE('',#925,#925,#927,.T.);
#925 = VERTEX_POINT('',#926);
#926 = CARTESIAN_POINT('',(5.,-1.224646799147E-15,1.2));
#927 = SURFACE_CURVE('',#928,(#933,#940),.PCURVE_S1.);
#928 = CIRCLE('',#929,5.);
#929 = AXIS2_PLACEMENT_3D('',#930,#931,#932);
#930 = CARTESIAN_POINT('',(0.,0.,1.2));
#931 = DIRECTION('',(0.,0.,1.));
#932 = DIRECTION('',(1.,0.,-0.));
#933 = PCURVE('',#637,#934);
#934 = DEFINITIONAL_REPRESENTATION('',(#935),#939);
#935 = CIRCLE('',#936,5.);
#936 = AXIS2_PLACEMENT_2D('',#937,#938);
#937 = CARTESIAN_POINT('',(0.,0.));
#938 = DIRECTION('',(1.,0.));
#939 = ( GEOMETRIC_REPRESENTATION_CONTEXT(2) 
PARAMETRIC_REPRESENTATION_CONTEXT() REPRESENTATION_CONTEXT('2D SPACE',''
  ) );
#940 = PCURVE('',#817,#941);
#941 = DEFINITIONAL_REPRESENTATION('',(#942),#946);
#942 = LINE('',#943,#944);
#943 = CARTESIAN_POINT('',(0.,1.2));
#944 = VECTOR('',#945,1.);
#945 = DIRECTION('',(1.,0.));
#946 = ( GEOMETRIC_REPRESENTATION_CONTEXT(2) 
PARAMETRIC_REPRESENTATION_CONTEXT() REPRESENTATION_CONTEXT('2D SPACE',''
  ) );
#947 = FACE_BOUND('',#948,.T.);
#948 = EDGE_LOOP('',(#949));
#949 = ORIENTED_EDGE('',*,*,#950,.F.);
#950 = EDGE_CURVE('',#951,#951,#953,.T.);
#951 = VERTEX_POINT('',#952);
#952 = CARTESIAN_POINT('',(-2.5,-2.694222958124E-16,1.2));
#953 = SURFACE_CURVE('',#954,(#959,#966),.PCURVE_S1.);
#954 = CIRCLE('',#955,1.1);
#955 = AXIS2_PLACEMENT_3D('',#956,#957,#958);
#956 = CARTESIAN_POINT('',(-3.6,0.,1.2));
#957 = DIRECTION('',(0.,0.,1.));
#958 = DIRECTION('',(1.,0.,-0.));
#959 = PCURVE('',#637,#960);
#960 = DEFINITIONAL_REPRESENTATION('',(#961),#965);
#961 = CIRCLE('',#962,1.1);
#962 = AXIS2_PLACEMENT_2D('',#963,#964);
#963 = CARTESIAN_POINT('',(-3.6,0.));
#964 = DIRECTION('',(1.,0.));
#965 = ( GEOMETRIC_REPRESENTATION_CONTEXT(2) 
PARAMETRIC_REPRESENTATION_CONTEXT() REPRESENTATION_CONTEXT('2D SPACE',''
  ) );
#966 = PCURVE('',#848,#967);
#967 = DEFINITIONAL_REPRESENTATION('',(#968),#972);
#968 = LINE('',#969,#970);
#969 = CARTESIAN_POINT('',(0.,2.2));
#970 = VECTOR('',#971,1.);
#971 = DIRECTION('',(1.,0.));
#972 = ( GEOMETRIC_REPRESENTATION_CONTEXT(2) 
PARAMETRIC_REPRESENTATION_CONTEXT() REPRESENTATION_CONTEXT('2D SPACE',''
  ) );
#973 = FACE_BOUND('',#974,.T.);
#974 = EDGE_LOOP('',(#975));
#975 = ORIENTED_EDGE('',*,*,#622,.F.);
#976 = FACE_BOUND('',#977,.T.);
#977 = EDGE_LOOP('',(#978));
#978 = ORIENTED_EDGE('',*,*,#979,.F.);
#979 = EDGE_CURVE('',#980,#980,#982,.T.);
#980 = VERTEX_POINT('',#981);
#981 = CARTESIAN_POINT('',(4.7,-2.694222958124E-16,1.2));
#982 = SURFACE_CURVE('',#983,(#988,#995),.PCURVE_S1.);
#983 = CIRCLE('',#984,1.1);
#984 = AXIS2_PLACEMENT_3D('',#985,#986,#987);
#985 = CARTESIAN_POINT('',(3.6,0.,1.2));
#986 = DIRECTION('',(0.,0.,1.));
#987 = DIRECTION('',(1.,0.,-0.));
#988 = PCURVE('',#637,#989);
#989 = DEFINITIONAL_REPRESENTATION('',(#990),#994);
#990 = CIRCLE('',#991,1.1);
#991 = AXIS2_PLACEMENT_2D('',#992,#993);
#992 = CARTESIAN_POINT('',(3.6,0.));
#993 = DIRECTION('',(1.,0.));
#994 = ( GEOMETRIC_REPRESENTATION_CONTEXT(2) 
PARAMETRIC_REPRESENTATION_CONTEXT() REPRESENTATION_CONTEXT('2D SPACE',''
  ) );
#995 = PCURVE('',#882,#996);
#996 = DEFINITIONAL_REPRESENTATION('',(#997),#1001);
#997 = LINE('',#998,#999);
#998 = CARTESIAN_POINT('',(0.,2.2));
#999 = VECTOR('',#1000,1.);
#1000 = DIRECTION('',(1.,0.));
#1001 = ( GEOMETRIC_REPRESENTATION_CONTEXT(2) 
PARAMETRIC_REPRESENTATION_CONTEXT() REPRESENTATION_CONTEXT('2D SPACE',''
  ) );
#1002 = ADVANCED_FACE('',(#1003),#817,.T.);
#1003 = FACE_BOUND('',#1004,.T.);
#1004 = EDGE_LOOP('',(#1005,#1006,#1027,#1028));
#1005 = ORIENTED_EDGE('',*,*,#924,.F.);
#1006 = ORIENTED_EDGE('',*,*,#1007,.F.);
#1007 = EDGE_CURVE('',#801,#925,#1008,.T.);
#1008 = SEAM_CURVE('',#1009,(#1013,#1020),.PCURVE_S1.);
#1009 = LINE('',#1010,#1011);
#1010 = CARTESIAN_POINT('',(5.,-1.224646799147E-15,0.));
#1011 = VECTOR('',#1012,1.);
#1012 = DIRECTION('',(0.,0.,1.));
#1013 = PCURVE('',#817,#1014);
#1014 = DEFINITIONAL_REPRESENTATION('',(#1015),#1019);
#1015 = LINE('',#1016,#1017);
#1016 = CARTESIAN_POINT('',(6.28318530718,-0.));
#1017 = VECTOR('',#1018,1.);
#1018 = DIRECTION('',(0.,1.));
#1019 = ( GEOMETRIC_REPRESENTATION_CONTEXT(2) 
PARAMETRIC_REPRESENTATION_CONTEXT() REPRESENTATION_CONTEXT('2D SPACE',''
  ) );
#1020 = PCURVE('',#817,#1021);
#1021 = DEFINITIONAL_REPRESENTATION('',(#1022),#1026);
#1022 = LINE('',#1023,#1024);
#1023 = CARTESIAN_POINT('',(0.,-0.));
#1024 = VECTOR('',#1025,1.);
#1025 = DIRECTION('',(0.,1.));
#1026 = ( GEOMETRIC_REPRESENTATION_CONTEXT(2) 
PARAMETRIC_REPRESENTATION_CONTEXT() REPRESENTATION_CONTEXT('2D SPACE',''
  ) );
#1027 = ORIENTED_EDGE('',*,*,#800,.T.);
#1028 = ORIENTED_EDGE('',*,*,#1007,.T.);
#1029 = ADVANCED_FACE('',(#1030),#848,.F.);
#1030 = FACE_BOUND('',#1031,.F.);
#1031 = EDGE_LOOP('',(#1032,#1033,#1054,#1055));
#1032 = ORIENTED_EDGE('',*,*,#950,.F.);
#1033 = ORIENTED_EDGE('',*,*,#1034,.F.);
#1034 = EDGE_CURVE('',#832,#951,#1035,.T.);
#1035 = SEAM_CURVE('',#1036,(#1040,#1047),.PCURVE_S1.);
#1036 = LINE('',#1037,#1038);
#1037 = CARTESIAN_POINT('',(-2.5,-2.694222958124E-16,-1.));
#1038 = VECTOR('',#1039,1.);
#1039 = DIRECTION('',(0.,0.,1.));
#1040 = PCURVE('',#848,#1041);
#1041 = DEFINITIONAL_REPRESENTATION('',(#1042),#1046);
#1042 = LINE('',#1043,#1044);
#1043 = CARTESIAN_POINT('',(6.28318530718,-0.));
#1044 = VECTOR('',#1045,1.);
#1045 = DIRECTION('',(0.,1.));
#1046 = ( GEOMETRIC_REPRESENTATION_CONTEXT(2) 
PARAMETRIC_REPRESENTATION_CONTEXT() REPRESENTATION_CONTEXT('2D SPACE',''
  ) );
#1047 = PCURVE('',#848,#1048);
#1048 = DEFINITIONAL_REPRESENTATION('',(#1049),#1053);
#1049 = LINE('',#1050,#1051);
#1050 = CARTESIAN_POINT('',(0.,-0.));
#1051 = VECTOR('',#1052,1.);
#1052 = DIRECTION('',(0.,1.));
#1053 = ( GEOMETRIC_REPRESENTATION_CONTEXT(2) 
PARAMETRIC_REPRESENTATION_CONTEXT() REPRESENTATION_CONTEXT('2D SPACE',''
  ) );
#1054 = ORIENTED_EDGE('',*,*,#831,.T.);
#1055 = ORIENTED_EDGE('',*,*,#1034,.T.);
#1056 = ADVANCED_FACE('',(#1057),#882,.F.);
#1057 = FACE_BOUND('',#1058,.F.);
#1058 = EDGE_LOOP('',(#1059,#1060,#1081,#1082));
#1059 = ORIENTED_EDGE('',*,*,#979,.F.);
#1060 = ORIENTED_EDGE('',*,*,#1061,.F.);
#1061 = EDGE_CURVE('',#866,#980,#1062,.T.);
#1062 = SEAM_CURVE('',#1063,(#1067,#1074),.PCURVE_S1.);
#1063 = LINE('',#1064,#1065);
#1064 = CARTESIAN_POINT('',(4.7,-2.694222958124E-16,-1.));
#1065 = VECTOR('',#1066,1.);
#1066 = DIRECTION('',(0.,0.,1.));
#1067 = PCURVE('',#882,#1068);
#1068 = DEFINITIONAL_REPRESENTATION('',(#1069),#1073);
#1069 = LINE('',#1070,#1071);
#1070 = CARTESIAN_POINT('',(6.28318530718,-0.));
#1071 = VECTOR('',#1072,1.);
#1072 = DIRECTION('',(0.,1.));
#1073 = ( GEOMETRIC_REPRESENTATION_CONTEXT(2) 
PARAMETRIC_REPRESENTATION_CONTEXT() REPRESENTATION_CONTEXT('2D SPACE',''
  ) );
#1074 = PCURVE('',#882,#1075);
#1075 = DEFINITIONAL_REPRESENTATION('',(#1076),#1080);
#1076 = LINE('',#1077,#1078);
#1077 = CARTESIAN_POINT('',(0.,-0.));
#1078 = VECTOR('',#1079,1.);
#1079 = DIRECTION('',(0.,1.));
#1080 = ( GEOMETRIC_REPRESENTATION_CONTEXT(2) 
PARAMETRIC_REPRESENTATION_CONTEXT() REPRESENTATION_CONTEXT('2D SPACE',''
  ) );
#1081 = ORIENTED_EDGE('',*,*,#865,.T.);
#1082 = ORIENTED_EDGE('',*,*,#1061,.T.);
#1083 = ( GEOMETRIC_REPRESENTATION_CONTEXT(3) 
GLOBAL_UNCERTAINTY_ASSIGNED_CONTEXT((#1087)) 
GLOBAL_UNIT_ASSIGNED_CONTEXT((#1084,#1085,#1086)) REPRESENTATION_CONTEXT
('Context #1','3D Context with UNIT and UNCERTAINTY') );
#1084 = ( LENGTH_UNIT() NAMED_UNIT(*) SI_UNIT(.MILLI.,.METRE.) );
#1085 = ( NAMED_UNIT(*) PLANE_ANGLE_UNIT() SI_UNIT($,.RADIAN.) );
#1086 = ( NAMED_UNIT(*) SI_UNIT($,.STERADIAN.) SOLID_ANGLE_UNIT() );
#1087 = UNCERTAINTY_MEASURE_WITH_UNIT(LENGTH_MEASURE(1.E-07),#1084,
  'distance_accuracy_value','confusion accuracy');
#1088 = PRODUCT_RELATED_PRODUCT_CATEGORY('part',$,(#7));
ENDSEC;
END-ISO-10303-21;
