ISO-10303-21;
HEADER;
FILE_DESCRIPTION(('FreeCAD Model'),'2;1');
FILE_NAME('Open CASCADE Shape Model','2026-10-01T18:39:02',('FreeCAD'),(
    'FreeCAD'),'Open CASCADE STEP processor 7.5','FreeCAD','Unknown');
FILE_SCHEMA(('AUTOMOTIVE_DESIGN { 1 0 10303 214 1 1 1 1 }'));
ENDSEC;
DATA;
#1 = APPLICATION_PROTOCOL_DEFINITION('international standard',
  'automotive_design',2000,#2);
#2 = APPLICATION_CONTEXT(
  'core data for automotive mechanical design processes');
#3 = SHAPE_DEFINITION_REPRESENTATION(#4,#10);
#4 = PRODUCT_DEFINITION_SHAPE('','',#5);
#5 = PRODUCT_DEFINITION('design','',#6,#9);
#6 = PRODUCT_DEFINITION_FORMATION('','',#7);
#7 = PRODUCT('Open CASCADE STEP translator 7.5 5',
  'Open CASCADE STEP translator 7.5 5','',(#8));
#8 = PRODUCT_CONTEXT('',#2,'mechanical');
#9 = PRODUCT_DEFINITION_CONTEXT('part definition',#2,'design');
#10 = ADVANCED_BREP_SHAPE_REPRESENTATION('',(#11,#15),#1316);
#11 = AXIS2_PLACEMENT_3D('',#12,#13,#14);
#12 = CARTESIAN_POINT('',(0.,0.,0.));
#13 = DIRECTION('',(0.,0.,1.));
#14 = DIRECTION('',(1.,0.,-0.));
#15 = MANIFOLD_SOLID_BREP('',#16);
#16 = CLOSED_SHELL('',(#17,#105,#202,#289,#316,#719,#746,#970,#1067,
    #1094,#1149,#1231,#1258,#1285,#1312));
#17 = ADVANCED_FACE('',(#18),#31,.T.);
#18 = FACE_BOUND('',#19,.T.);
#19 = EDGE_LOOP('',(#20,#54,#77,#104));
#20 = ORIENTED_EDGE('',*,*,#21,.F.);
#21 = EDGE_CURVE('',#22,#22,#24,.T.);
#22 = VERTEX_POINT('',#23);
#23 = CARTESIAN_POINT('',(7.,-1.714505518806E-15,8.));
#24 = SURFACE_CURVE('',#25,(#30,#42),.PCURVE_S1.);
#25 = CIRCLE('',#26,7.);
#26 = AXIS2_PLACEMENT_3D('',#27,#28,#29);
#27 = CARTESIAN_POINT('',(0.,0.,8.));
#28 = DIRECTION('',(0.,0.,1.));
#29 = DIRECTION('',(1.,0.,-0.));
#30 = PCURVE('',#31,#36);
#31 = CYLINDRICAL_SURFACE('',#32,7.);
#32 = AXIS2_PLACEMENT_3D('',#33,#34,#35);
#33 = CARTESIAN_POINT('',(0.,0.,6.5));
#34 = DIRECTION('',(0.,0.,1.));
#35 = DIRECTION('',(1.,0.,-0.));
#36 = DEFINITIONAL_REPRESENTATION('',(#37),#41);
#37 = LINE('',#38,#39);
#38 = CARTESIAN_POINT('',(0.,1.5));
#39 = VECTOR('',#40,1.);
#40 = DIRECTION('',(1.,0.));
#41 = ( GEOMETRIC_REPRESENTATION_CONTEXT(2) 
PARAMETRIC_REPRESENTATION_CONTEXT() REPRESENTATION_CONTEXT('2D SPACE',''
  ) );
#42 = PCURVE('',#43,#48);
#43 = PLANE('',#44);
#44 = AXIS2_PLACEMENT_3D('',#45,#46,#47);
#45 = CARTESIAN_POINT('',(0.,0.,8.));
#46 = DIRECTION('',(0.,0.,1.));
#47 = DIRECTION('',(1.,0.,-0.));
#48 = DEFINITIONAL_REPRESENTATION('',(#49),#53);
#49 = CIRCLE('',#50,7.);
#50 = AXIS2_PLACEMENT_2D('',#51,#52);
#51 = CARTESIAN_POINT('',(0.,0.));
#52 = DIRECTION('',(1.,0.));
#53 = ( GEOMETRIC_REPRESENTATION_CONTEXT(2) 
PARAMETRIC_REPRESENTATION_CONTEXT() REPRESENTATION_CONTEXT('2D SPACE',''
  ) );
#54 = ORIENTED_EDGE('',*,*,#55,.F.);
#55 = EDGE_CURVE('',#56,#22,#58,.T.);
#56 = VERTEX_POINT('',#57);
#57 = CARTESIAN_POINT('',(7.,-1.714505518806E-15,6.5));
#58 = SEAM_CURVE('',#59,(#63,#70),.PCURVE_S1.);
#59 = LINE('',#60,#61);
#60 = CARTESIAN_POINT('',(7.,-1.714505518806E-15,6.5));
#61 = VECTOR('',#62,1.);
#62 = DIRECTION('',(0.,0.,1.));
#63 = PCURVE('',#31,#64);
#64 = DEFINITIONAL_REPRESENTATION('',(#65),#69);
#65 = LINE('',#66,#67);
#66 = CARTESIAN_POINT('',(6.28318530718,-0.));
#67 = VECTOR('',#68,1.);
#68 = DIRECTION('',(0.,1.));
#69 = ( GEOMETRIC_REPRESENTATION_CONTEXT(2) 
PARAMETRIC_REPRESENTATION_CONTEXT() REPRESENTATION_CONTEXT('2D SPACE',''
  ) );
#70 = PCURVE('',#31,#71);
#71 = DEFINITIONAL_REPRESENTATION('',(#72),#76);
#72 = LINE('',#73,#74);
#73 = CARTESIAN_POINT('',(0.,-0.));
#74 = VECTOR('',#75,1.);
#75 = DIRECTION('',(0.,1.));
#76 = ( GEOMETRIC_REPRESENTATION_CONTEXT(2) 
PARAMETRIC_REPRESENTATION_CONTEXT() REPRESENTATION_CONTEXT('2D SPACE',''
  ) );
#77 = ORIENTED_EDGE('',*,*,#78,.T.);
#78 = EDGE_CURVE('',#56,#56,#79,.T.);
#79 = SURFACE_CURVE('',#80,(#85,#92),.PCURVE_S1.);
#80 = CIRCLE('',#81,7.);
#81 = AXIS2_PLACEMENT_3D('',#82,#83,#84);
#82 = CARTESIAN_POINT('',(0.,0.,6.5));
#83 = DIRECTION('',(0.,0.,1.));
#84 = DIRECTION('',(1.,0.,-0.));
#85 = PCURVE('',#31,#86);
#86 = DEFINITIONAL_REPRESENTATION('',(#87),#91);
#87 = LINE('',#88,#89);
#88 = CARTESIAN_POINT('',(0.,0.));
#89 = VECTOR('',#90,1.);
#90 = DIRECTION('',(1.,0.));
#91 = ( GEOMETRIC_REPRESENTATION_CONTEXT(2) 
PARAMETRIC_REPRESENTATION_CONTEXT() REPRESENTATION_CONTEXT('2D SPACE',''
  ) );
#92 = PCURVE('',#93,#98);
#93 = PLANE('',#94);
#94 = AXIS2_PLACEMENT_3D('',#95,#96,#97);
#95 = CARTESIAN_POINT('',(0.,0.,6.5));
#96 = DIRECTION('',(0.,0.,1.));
#97 = DIRECTION('',(1.,0.,-0.));
#98 = DEFINITIONAL_REPRESENTATION('',(#99),#103);
#99 = CIRCLE('',#100,7.);
#100 = AXIS2_PLACEMENT_2D('',#101,#102);
#101 = CARTESIAN_POINT('',(0.,0.));
#102 = DIRECTION('',(1.,0.));
#103 = ( GEOMETRIC_REPRESENTATION_CONTEXT(2) 
PARAMETRIC_REPRESENTATION_CONTEXT() REPRESENTATION_CONTEXT('2D SPACE',''
  ) );
#104 = ORIENTED_EDGE('',*,*,#55,.T.);
#105 = ADVANCED_FACE('',(#106,#109,#140,#171),#43,.T.);
#106 = FACE_BOUND('',#107,.T.);
#107 = EDGE_LOOP('',(#108));
#108 = ORIENTED_EDGE('',*,*,#21,.T.);
#109 = FACE_BOUND('',#110,.T.);
#110 = EDGE_LOOP('',(#111));
#111 = ORIENTED_EDGE('',*,*,#112,.F.);
#112 = EDGE_CURVE('',#113,#113,#115,.T.);
#113 = VERTEX_POINT('',#114);
#114 = CARTESIAN_POINT('',(-4.1,-2.694222958124E-16,8.));
#115 = SURFACE_CURVE('',#116,(#121,#128),.PCURVE_S1.);
#116 = CIRCLE('',#117,1.1);
#117 = AXIS2_PLACEMENT_3D('',#118,#119,#120);
#118 = CARTESIAN_POINT('',(-5.2,0.,8.));
#119 = DIRECTION('',(0.,0.,1.));
#120 = DIRECTION('',(1.,0.,-0.));
#121 = PCURVE('',#43,#122);
#122 = DEFINITIONAL_REPRESENTATION('',(#123),#127);
#123 = CIRCLE('',#124,1.1);
#124 = AXIS2_PLACEMENT_2D('',#125,#126);
#125 = CARTESIAN_POINT('',(-5.2,0.));
#126 = DIRECTION('',(1.,0.));
#127 = ( GEOMETRIC_REPRESENTATION_CONTEXT(2) 
PARAMETRIC_REPRESENTATION_CONTEXT() REPRESENTATION_CONTEXT('2D SPACE',''
  ) );
#128 = PCURVE('',#129,#134);
#129 = CYLINDRICAL_SURFACE('',#130,1.1);
#130 = AXIS2_PLACEMENT_3D('',#131,#132,#133);
#131 = CARTESIAN_POINT('',(-5.2,0.,-1.));
#132 = DIRECTION('',(0.,0.,1.));
#133 = DIRECTION('',(1.,0.,-0.));
#134 = DEFINITIONAL_REPRESENTATION('',(#135),#139);
#135 = LINE('',#136,#137);
#136 = CARTESIAN_POINT('',(0.,9.));
#137 = VECTOR('',#138,1.);
#138 = DIRECTION('',(1.,0.));
#139 = ( GEOMETRIC_REPRESENTATION_CONTEXT(2) 
PARAMETRIC_REPRESENTATION_CONTEXT() REPRESENTATION_CONTEXT('2D SPACE',''
  ) );
#140 = FACE_BOUND('',#141,.T.);
#141 = EDGE_LOOP('',(#142));
#142 = ORIENTED_EDGE('',*,*,#143,.F.);
#143 = EDGE_CURVE('',#144,#144,#146,.T.);
#144 = VERTEX_POINT('',#145);
#145 = CARTESIAN_POINT('',(2.6,-6.368163355566E-16,8.));
#146 = SURFACE_CURVE('',#147,(#152,#159),.PCURVE_S1.);
#147 = CIRCLE('',#148,2.6);
#148 = AXIS2_PLACEMENT_3D('',#149,#150,#151);
#149 = CARTESIAN_POINT('',(0.,0.,8.));
#150 = DIRECTION('',(0.,0.,1.));
#151 = DIRECTION('',(1.,0.,-0.));
#152 = PCURVE('',#43,#153);
#153 = DEFINITIONAL_REPRESENTATION('',(#154),#158);
#154 = CIRCLE('',#155,2.6);
#155 = AXIS2_PLACEMENT_2D('',#156,#157);
#156 = CARTESIAN_POINT('',(0.,0.));
#157 = DIRECTION('',(1.,0.));
#158 = ( GEOMETRIC_REPRESENTATION_CONTEXT(2) 
PARAMETRIC_REPRESENTATION_CONTEXT() REPRESENTATION_CONTEXT('2D SPACE',''
  ) );
#159 = PCURVE('',#160,#165);
#160 = CYLINDRICAL_SURFACE('',#161,2.6);
#161 = AXIS2_PLACEMENT_3D('',#162,#163,#164);
#162 = CARTESIAN_POINT('',(0.,0.,-1.));
#163 = DIRECTION('',(0.,0.,1.));
#164 = DIRECTION('',(1.,0.,-0.));
#165 = DEFINITIONAL_REPRESENTATION('',(#166),#170);
#166 = LINE('',#167,#168);
#167 = CARTESIAN_POINT('',(0.,9.));
#168 = VECTOR('',#169,1.);
#169 = DIRECTION('',(1.,0.));
#170 = ( GEOMETRIC_REPRESENTATION_CONTEXT(2) 
PARAMETRIC_REPRESENTATION_CONTEXT() REPRESENTATION_CONTEXT('2D SPACE',''
  ) );
#171 = FACE_BOUND('',#172,.T.);
#172 = EDGE_LOOP('',(#173));
#173 = ORIENTED_EDGE('',*,*,#174,.F.);
#174 = EDGE_CURVE('',#175,#175,#177,.T.);
#175 = VERTEX_POINT('',#176);
#176 = CARTESIAN_POINT('',(6.3,-2.694222958124E-16,8.));
#177 = SURFACE_CURVE('',#178,(#183,#190),.PCURVE_S1.);
#178 = CIRCLE('',#179,1.1);
#179 = AXIS2_PLACEMENT_3D('',#180,#181,#182);
#180 = CARTESIAN_POINT('',(5.2,0.,8.));
#181 = DIRECTION('',(0.,0.,1.));
#182 = DIRECTION('',(1.,0.,-0.));
#183 = PCURVE('',#43,#184);
#184 = DEFINITIONAL_REPRESENTATION('',(#185),#189);
#185 = CIRCLE('',#186,1.1);
#186 = AXIS2_PLACEMENT_2D('',#187,#188);
#187 = CARTESIAN_POINT('',(5.2,0.));
#188 = DIRECTION('',(1.,0.));
#189 = ( GEOMETRIC_REPRESENTATION_CONTEXT(2) 
PARAMETRIC_REPRESENTATION_CONTEXT() REPRESENTATION_CONTEXT('2D SPACE',''
  ) );
#190 = PCURVE('',#191,#196);
#191 = CYLINDRICAL_SURFACE('',#192,1.1);
#192 = AXIS2_PLACEMENT_3D('',#193,#194,#195);
#193 = CARTESIAN_POINT('',(5.2,0.,-1.));
#194 = DIRECTION('',(0.,0.,1.));
#195 = DIRECTION('',(1.,0.,-0.));
#196 = DEFINITIONAL_REPRESENTATION('',(#197),#201);
#197 = LINE('',#198,#199);
#198 = CARTESIAN_POINT('',(0.,9.));
#199 = VECTOR('',#200,1.);
#200 = DIRECTION('',(1.,0.));
#201 = ( GEOMETRIC_REPRESENTATION_CONTEXT(2) 
PARAMETRIC_REPRESENTATION_CONTEXT() REPRESENTATION_CONTEXT('2D SPACE',''
  ) );
#202 = ADVANCED_FACE('',(#203,#206,#232,#263),#93,.F.);
#203 = FACE_BOUND('',#204,.F.);
#204 = EDGE_LOOP('',(#205));
#205 = ORIENTED_EDGE('',*,*,#78,.T.);
#206 = FACE_BOUND('',#207,.F.);
#207 = EDGE_LOOP('',(#208));
#208 = ORIENTED_EDGE('',*,*,#209,.F.);
#209 = EDGE_CURVE('',#210,#210,#212,.T.);
#210 = VERTEX_POINT('',#211);
#211 = CARTESIAN_POINT('',(-4.1,-2.694222958124E-16,6.5));
#212 = SURFACE_CURVE('',#213,(#218,#225),.PCURVE_S1.);
#213 = CIRCLE('',#214,1.1);
#214 = AXIS2_PLACEMENT_3D('',#215,#216,#217);
#215 = CARTESIAN_POINT('',(-5.2,0.,6.5));
#216 = DIRECTION('',(0.,0.,1.));
#217 = DIRECTION('',(1.,0.,-0.));
#218 = PCURVE('',#93,#219);
#219 = DEFINITIONAL_REPRESENTATION('',(#220),#224);
#220 = CIRCLE('',#221,1.1);
#221 = AXIS2_PLACEMENT_2D('',#222,#223);
#222 = CARTESIAN_POINT('',(-5.2,0.));
#223 = DIRECTION('',(1.,0.));
#224 = ( GEOMETRIC_REPRESENTATION_CONTEXT(2) 
PARAMETRIC_REPRESENTATION_CONTEXT() REPRESENTATION_CONTEXT('2D SPACE',''
  ) );
#225 = PCURVE('',#129,#226);
#226 = DEFINITIONAL_REPRESENTATION('',(#227),#231);
#227 = LINE('',#228,#229);
#228 = CARTESIAN_POINT('',(0.,7.5));
#229 = VECTOR('',#230,1.);
#230 = DIRECTION('',(1.,0.));
#231 = ( GEOMETRIC_REPRESENTATION_CONTEXT(2) 
PARAMETRIC_REPRESENTATION_CONTEXT() REPRESENTATION_CONTEXT('2D SPACE',''
  ) );
#232 = FACE_BOUND('',#233,.F.);
#233 = EDGE_LOOP('',(#234));
#234 = ORIENTED_EDGE('',*,*,#235,.F.);
#235 = EDGE_CURVE('',#236,#236,#238,.T.);
#236 = VERTEX_POINT('',#237);
#237 = CARTESIAN_POINT('',(4.,-9.797174393179E-16,6.5));
#238 = SURFACE_CURVE('',#239,(#244,#251),.PCURVE_S1.);
#239 = CIRCLE('',#240,4.);
#240 = AXIS2_PLACEMENT_3D('',#241,#242,#243);
#241 = CARTESIAN_POINT('',(0.,0.,6.5));
#242 = DIRECTION('',(0.,0.,1.));
#243 = DIRECTION('',(1.,0.,-0.));
#244 = PCURVE('',#93,#245);
#245 = DEFINITIONAL_REPRESENTATION('',(#246),#250);
#246 = CIRCLE('',#247,4.);
#247 = AXIS2_PLACEMENT_2D('',#248,#249);
#248 = CARTESIAN_POINT('',(0.,0.));
#249 = DIRECTION('',(1.,0.));
#250 = ( GEOMETRIC_REPRESENTATION_CONTEXT(2) 
PARAMETRIC_REPRESENTATION_CONTEXT() REPRESENTATION_CONTEXT('2D SPACE',''
  ) );
#251 = PCURVE('',#252,#257);
#252 = CYLINDRICAL_SURFACE('',#253,4.);
#253 = AXIS2_PLACEMENT_3D('',#254,#255,#256);
#254 = CARTESIAN_POINT('',(0.,0.,1.5));
#255 = DIRECTION('',(0.,0.,1.));
#256 = DIRECTION('',(1.,0.,-0.));
#257 = DEFINITIONAL_REPRESENTATION('',(#258),#262);
#258 = LINE('',#259,#260);
#259 = CARTESIAN_POINT('',(0.,5.));
#260 = VECTOR('',#261,1.);
#261 = DIRECTION('',(1.,0.));
#262 = ( GEOMETRIC_REPRESENTATION_CONTEXT(2) 
PARAMETRIC_REPRESENTATION_CONTEXT() REPRESENTATION_CONTEXT('2D SPACE',''
  ) );
#263 = FACE_BOUND('',#264,.F.);
#264 = EDGE_LOOP('',(#265));
#265 = ORIENTED_EDGE('',*,*,#266,.F.);
#266 = EDGE_CURVE('',#267,#267,#269,.T.);
#267 = VERTEX_POINT('',#268);
#268 = CARTESIAN_POINT('',(6.3,-2.694222958124E-16,6.5));
#269 = SURFACE_CURVE('',#270,(#275,#282),.PCURVE_S1.);
#270 = CIRCLE('',#271,1.1);
#271 = AXIS2_PLACEMENT_3D('',#272,#273,#274);
#272 = CARTESIAN_POINT('',(5.2,0.,6.5));
#273 = DIRECTION('',(0.,0.,1.));
#274 = DIRECTION('',(1.,0.,-0.));
#275 = PCURVE('',#93,#276);
#276 = DEFINITIONAL_REPRESENTATION('',(#277),#281);
#277 = CIRCLE('',#278,1.1);
#278 = AXIS2_PLACEMENT_2D('',#279,#280);
#279 = CARTESIAN_POINT('',(5.2,0.));
#280 = DIRECTION('',(1.,0.));
#281 = ( GEOMETRIC_REPRESENTATION_CONTEXT(2) 
PARAMETRIC_REPRESENTATION_CONTEXT() REPRESENTATION_CONTEXT('2D SPACE',''
  ) );
#282 = PCURVE('',#191,#283);
#283 = DEFINITIONAL_REPRESENTATION('',(#284),#288);
#284 = LINE('',#285,#286);
#285 = CARTESIAN_POINT('',(0.,7.5));
#286 = VECTOR('',#287,1.);
#287 = DIRECTION('',(1.,0.));
#288 = ( GEOMETRIC_REPRESENTATION_CONTEXT(2) 
PARAMETRIC_REPRESENTATION_CONTEXT() REPRESENTATION_CONTEXT('2D SPACE',''
  ) );
#289 = ADVANCED_FACE('',(#290),#129,.F.);
#290 = FACE_BOUND('',#291,.F.);
#291 = EDGE_LOOP('',(#292,#293,#314,#315));
#292 = ORIENTED_EDGE('',*,*,#112,.F.);
#293 = ORIENTED_EDGE('',*,*,#294,.F.);
#294 = EDGE_CURVE('',#210,#113,#295,.T.);
#295 = SEAM_CURVE('',#296,(#300,#307),.PCURVE_S1.);
#296 = LINE('',#297,#298);
#297 = CARTESIAN_POINT('',(-4.1,-2.694222958124E-16,-1.));
#298 = VECTOR('',#299,1.);
#299 = DIRECTION('',(0.,0.,1.));
#300 = PCURVE('',#129,#301);
#301 = DEFINITIONAL_REPRESENTATION('',(#302),#306);
#302 = LINE('',#303,#304);
#303 = CARTESIAN_POINT('',(6.28318530718,-0.));
#304 = VECTOR('',#305,1.);
#305 = DIRECTION('',(0.,1.));
#306 = ( GEOMETRIC_REPRESENTATION_CONTEXT(2) 
PARAMETRIC_REPRESENTATION_CONTEXT() REPRESENTATION_CONTEXT('2D SPACE',''
  ) );
#307 = PCURVE('',#129,#308);
#308 = DEFINITIONAL_REPRESENTATION('',(#309),#313);
#309 = LINE('',#310,#311);
#310 = CARTESIAN_POINT('',(0.,-0.));
#311 = VECTOR('',#312,1.);
#312 = DIRECTION('',(0.,1.));
#313 = ( GEOMETRIC_REPRESENTATION_CONTEXT(2) 
PARAMETRIC_REPRESENTATION_CONTEXT() REPRESENTATION_CONTEXT('2D SPACE',''
  ) );
#314 = ORIENTED_EDGE('',*,*,#209,.T.);
#315 = ORIENTED_EDGE('',*,*,#294,.T.);
#316 = ADVANCED_FACE('',(#317,#371,#545),#160,.F.);
#317 = FACE_BOUND('',#318,.F.);
#318 = EDGE_LOOP('',(#319,#342,#343,#344));
#319 = ORIENTED_EDGE('',*,*,#320,.T.);
#320 = EDGE_CURVE('',#321,#144,#323,.T.);
#321 = VERTEX_POINT('',#322);
#322 = CARTESIAN_POINT('',(2.6,-6.368163355566E-16,0.));
#323 = SEAM_CURVE('',#324,(#328,#335),.PCURVE_S1.);
#324 = LINE('',#325,#326);
#325 = CARTESIAN_POINT('',(2.6,-6.368163355566E-16,-1.));
#326 = VECTOR('',#327,1.);
#327 = DIRECTION('',(0.,0.,1.));
#328 = PCURVE('',#160,#329);
#329 = DEFINITIONAL_REPRESENTATION('',(#330),#334);
#330 = LINE('',#331,#332);
#331 = CARTESIAN_POINT('',(6.28318530718,-0.));
#332 = VECTOR('',#333,1.);
#333 = DIRECTION('',(0.,1.));
#334 = ( GEOMETRIC_REPRESENTATION_CONTEXT(2) 
PARAMETRIC_REPRESENTATION_CONTEXT() REPRESENTATION_CONTEXT('2D SPACE',''
  ) );
#335 = PCURVE('',#160,#336);
#336 = DEFINITIONAL_REPRESENTATION('',(#337),#341);
#337 = LINE('',#338,#339);
#338 = CARTESIAN_POINT('',(0.,-0.));
#339 = VECTOR('',#340,1.);
#340 = DIRECTION('',(0.,1.));
#341 = ( GEOMETRIC_REPRESENTATION_CONTEXT(2) 
PARAMETRIC_REPRESENTATION_CONTEXT() REPRESENTATION_CONTEXT('2D SPACE',''
  ) );
#342 = ORIENTED_EDGE('',*,*,#143,.F.);
#343 = ORIENTED_EDGE('',*,*,#320,.F.);
#344 = ORIENTED_EDGE('',*,*,#345,.T.);
#345 = EDGE_CURVE('',#321,#321,#346,.T.);
#346 = SURFACE_CURVE('',#347,(#352,#359),.PCURVE_S1.);
#347 = CIRCLE('',#348,2.6);
#348 = AXIS2_PLACEMENT_3D('',#349,#350,#351);
#349 = CARTESIAN_POINT('',(0.,0.,0.));
#350 = DIRECTION('',(0.,0.,1.));
#351 = DIRECTION('',(1.,0.,-0.));
#352 = PCURVE('',#160,#353);
#353 = DEFINITIONAL_REPRESENTATION('',(#354),#358);
#354 = LINE('',#355,#356);
#355 = CARTESIAN_POINT('',(0.,1.));
#356 = VECTOR('',#357,1.);
#357 = DIRECTION('',(1.,0.));
#358 = ( GEOMETRIC_REPRESENTATION_CONTEXT(2) 
PARAMETRIC_REPRESENTATION_CONTEXT() REPRESENTATION_CONTEXT('2D SPACE',''
  ) );
#359 = PCURVE('',#360,#365);
#360 = PLANE('',#361);
#361 = AXIS2_PLACEMENT_3D('',#362,#363,#364);
#362 = CARTESIAN_POINT('',(0.,0.,0.));
#363 = DIRECTION('',(0.,0.,1.));
#364 = DIRECTION('',(1.,0.,-0.));
#365 = DEFINITIONAL_REPRESENTATION('',(#366),#370);
#366 = CIRCLE('',#367,2.6);
#367 = AXIS2_PLACEMENT_2D('',#368,#369);
#368 = CARTESIAN_POINT('',(0.,0.));
#369 = DIRECTION('',(1.,0.));
#370 = ( GEOMETRIC_REPRESENTATION_CONTEXT(2) 
PARAMETRIC_REPRESENTATION_CONTEXT() REPRESENTATION_CONTEXT('2D SPACE',''
  ) );
#371 = FACE_BOUND('',#372,.F.);
#372 = EDGE_LOOP('',(#373));
#373 = ORIENTED_EDGE('',*,*,#374,.F.);
#374 = EDGE_CURVE('',#375,#375,#377,.T.);
#375 = VERTEX_POINT('',#376);
#376 = CARTESIAN_POINT('',(-1.836970198721E-16,2.6,4.75));
#377 = SURFACE_CURVE('',#378,(#430,#485),.PCURVE_S1.);
#378 = B_SPLINE_CURVE_WITH_KNOTS('',8,(#379,#380,#381,#382,#383,#384,
    #385,#386,#387,#388,#389,#390,#391,#392,#393,#394,#395,#396,#397,
    #398,#399,#400,#401,#402,#403,#404,#405,#406,#407,#408,#409,#410,
    #411,#412,#413,#414,#415,#416,#417,#418,#419,#420,#421,#422,#423,
    #424,#425,#426,#427,#428,#429),.UNSPECIFIED.,.T.,.F.,(9,7,7,7,7,7,7,
    9),(0.,0.124579945806,0.249923387597,0.395304674625,0.536833809014,
    0.749485527176,0.875118000921,1.),.UNSPECIFIED.);
#379 = CARTESIAN_POINT('',(0.,2.6,4.75));
#380 = CARTESIAN_POINT('',(7.942330347077E-02,2.599999998854,
    4.749999992058));
#381 = CARTESIAN_POINT('',(0.15820092417,2.597227143088,4.740387781553)
  );
#382 = CARTESIAN_POINT('',(0.234946719398,2.591760810546,4.721436494407)
  );
#383 = CARTESIAN_POINT('',(0.308336635865,2.583932266416,4.693666957148)
  );
#384 = CARTESIAN_POINT('',(0.377153792072,2.574302458632,4.65784332011)
  );
#385 = CARTESIAN_POINT('',(0.44033472836,2.563589370321,4.614976124989)
  );
#386 = CARTESIAN_POINT('',(0.497034272732,2.552555677025,4.566327145448)
  );
#387 = CARTESIAN_POINT('',(0.596723210141,2.531113732535,4.460169209431)
  );
#388 = CARTESIAN_POINT('',(0.640089219714,2.520610376888,4.402114696933)
  );
#389 = CARTESIAN_POINT('',(0.676527741122,2.51094689042,4.340149960489)
  );
#390 = CARTESIAN_POINT('',(0.705839952735,2.502648696106,4.275123745762)
  );
#391 = CARTESIAN_POINT('',(0.727899212503,2.496136154549,4.207839184125)
  );
#392 = CARTESIAN_POINT('',(0.742631206075,2.491697808573,4.139063762047)
  );
#393 = CARTESIAN_POINT('',(0.75,2.489477856901,4.069540451305));
#394 = CARTESIAN_POINT('',(0.75,2.489477856901,3.919342566577));
#395 = CARTESIAN_POINT('',(0.740086671052,2.492464203558,3.83869050901)
  );
#396 = CARTESIAN_POINT('',(0.720262266651,2.498437176327,3.759196651595)
  );
#397 = CARTESIAN_POINT('',(0.690589177232,2.50713552317,3.682031184495)
  );
#398 = CARTESIAN_POINT('',(0.651207313509,2.518034830796,3.608410585409)
  );
#399 = CARTESIAN_POINT('',(0.602363345335,2.530380095588,3.539620492187)
  );
#400 = CARTESIAN_POINT('',(0.544451796043,2.543252495246,3.477032526412)
  );
#401 = CARTESIAN_POINT('',(0.413443153231,2.567759192118,3.368652751534)
  );
#402 = CARTESIAN_POINT('',(0.339981012945,2.5795679421,3.321791209945));
#403 = CARTESIAN_POINT('',(0.258914795699,2.58997899122,3.284063488259)
  );
#404 = CARTESIAN_POINT('',(0.172107200979,2.597812128805,3.257310356858)
  );
#405 = CARTESIAN_POINT('',(8.177421814506E-02,2.602178023756,
    3.242701732464));
#406 = CARTESIAN_POINT('',(-9.691057266209E-03,2.602693172568,
    3.240751420591));
#407 = CARTESIAN_POINT('',(-9.986957457644E-02,2.599533179943,
    3.251315244917));
#408 = CARTESIAN_POINT('',(-0.316708363691,2.583937532944,3.306989983196
    ));
#409 = CARTESIAN_POINT('',(-0.435205717439,2.567906034884,3.365838591559
    ));
#410 = CARTESIAN_POINT('',(-0.537946420933,2.54775516349,3.445362545515)
  );
#411 = CARTESIAN_POINT('',(-0.622225900022,2.52688791317,3.541135276613)
  );
#412 = CARTESIAN_POINT('',(-0.686199215988,2.508695874829,3.648728366758
    ));
#413 = CARTESIAN_POINT('',(-0.728899287377,2.495835455745,3.763856675469
    ));
#414 = CARTESIAN_POINT('',(-0.75,2.489477856901,3.882324964501));
#415 = CARTESIAN_POINT('',(-0.75,2.489477856901,4.06952121495));
#416 = CARTESIAN_POINT('',(-0.742635309226,2.491696562525,4.139040772409
    ));
#417 = CARTESIAN_POINT('',(-0.727905694784,2.496134207251,4.207823767248
    ));
#418 = CARTESIAN_POINT('',(-0.705844208735,2.502647571575,4.275121541294
    ));
#419 = CARTESIAN_POINT('',(-0.676525333458,2.51094781758,4.340160385315)
  );
#420 = CARTESIAN_POINT('',(-0.640079011558,2.520613171371,4.402131566315
    ));
#421 = CARTESIAN_POINT('',(-0.596710560295,2.531116453371,4.460182680148
    ));
#422 = CARTESIAN_POINT('',(-0.497040964411,2.552554237722,4.566320019534
    ));
#423 = CARTESIAN_POINT('',(-0.440341891143,2.56358814174,4.614971658902)
  );
#424 = CARTESIAN_POINT('',(-0.377155688438,2.574302552467,4.657844455148
    ));
#425 = CARTESIAN_POINT('',(-0.308330021647,2.583933671918,4.693672310174
    ));
#426 = CARTESIAN_POINT('',(-0.234931854196,2.591762587411,4.721442648009
    ));
#427 = CARTESIAN_POINT('',(-0.158181992491,2.597228188083,4.740391406379
    ));
#428 = CARTESIAN_POINT('',(-7.940832809909E-02,2.599999998855,
    4.749999992059));
#429 = CARTESIAN_POINT('',(0.,2.6,4.75));
#430 = PCURVE('',#160,#431);
#431 = DEFINITIONAL_REPRESENTATION('',(#432),#484);
#432 = B_SPLINE_CURVE_WITH_KNOTS('',8,(#433,#434,#435,#436,#437,#438,
    #439,#440,#441,#442,#443,#444,#445,#446,#447,#448,#449,#450,#451,
    #452,#453,#454,#455,#456,#457,#458,#459,#460,#461,#462,#463,#464,
    #465,#466,#467,#468,#469,#470,#471,#472,#473,#474,#475,#476,#477,
    #478,#479,#480,#481,#482,#483),.UNSPECIFIED.,.T.,.F.,(9,7,7,7,7,7,7,
    9),(0.,0.124579945806,0.249923387597,0.395304674625,0.536833809014,
    0.749485527176,0.875118000921,1.),.UNSPECIFIED.);
#433 = CARTESIAN_POINT('',(1.570796326795,5.75));
#434 = CARTESIAN_POINT('',(1.540248902383,5.749999991975));
#435 = CARTESIAN_POINT('',(1.509949782075,5.740387781719));
#436 = CARTESIAN_POINT('',(1.480388875267,5.721436494302));
#437 = CARTESIAN_POINT('',(1.452034402843,5.693666957096));
#438 = CARTESIAN_POINT('',(1.425332327764,5.65784332022));
#439 = CARTESIAN_POINT('',(1.400697323441,5.614976124941));
#440 = CARTESIAN_POINT('',(1.378485058171,5.566327145448));
#441 = CARTESIAN_POINT('',(1.339266279413,5.460169209431));
#442 = CARTESIAN_POINT('',(1.322110595274,5.402114696933));
#443 = CARTESIAN_POINT('',(1.307615716928,5.340149960489));
#444 = CARTESIAN_POINT('',(1.295900574681,5.275123745762));
#445 = CARTESIAN_POINT('',(1.287054442817,5.207839184125));
#446 = CARTESIAN_POINT('',(1.281136542926,5.139063762047));
#447 = CARTESIAN_POINT('',(1.278176641451,5.069540451305));
#448 = CARTESIAN_POINT('',(1.278176641451,4.919342566577));
#449 = CARTESIAN_POINT('',(1.282158451053,4.83869050901));
#450 = CARTESIAN_POINT('',(1.290122415728,4.759196651595));
#451 = CARTESIAN_POINT('',(1.302014799318,4.682031184495));
#452 = CARTESIAN_POINT('',(1.317726374997,4.608410585409));
#453 = CARTESIAN_POINT('',(1.33709279506,4.539620492187));
#454 = CARTESIAN_POINT('',(1.359896739542,4.477032526412));
#455 = CARTESIAN_POINT('',(1.41115868819,4.368652751534));
#456 = CARTESIAN_POINT('',(1.439766629728,4.321791209945));
#457 = CARTESIAN_POINT('',(1.471175719058,4.284063488259));
#458 = CARTESIAN_POINT('',(1.504648095763,4.257310356858));
#459 = CARTESIAN_POINT('',(1.539370728462,4.242701732464));
#460 = CARTESIAN_POINT('',(1.574501329917,4.240751420591));
#461 = CARTESIAN_POINT('',(1.609183289713,4.251315244917));
#462 = CARTESIAN_POINT('',(1.692798253859,4.306989983196));
#463 = CARTESIAN_POINT('',(1.738699140938,4.365838591559));
#464 = CARTESIAN_POINT('',(1.778861381304,4.445362545515));
#465 = CARTESIAN_POINT('',(1.812209345645,4.541135276613));
#466 = CARTESIAN_POINT('',(1.837788601419,4.648728366758));
#467 = CARTESIAN_POINT('',(1.854939905409,4.763856675469));
#468 = CARTESIAN_POINT('',(1.863416012139,4.882324964501));
#469 = CARTESIAN_POINT('',(1.863416012139,5.06952121495));
#470 = CARTESIAN_POINT('',(1.86045777181,5.139040772409));
#471 = CARTESIAN_POINT('',(1.854540812717,5.207823767248));
#472 = CARTESIAN_POINT('',(1.845693761648,5.275121541294));
#473 = CARTESIAN_POINT('',(1.833975949027,5.340160385315));
#474 = CARTESIAN_POINT('',(1.819477997056,5.402131566315));
#475 = CARTESIAN_POINT('',(1.802321397582,5.460182680148));
#476 = CARTESIAN_POINT('',(1.763110228003,5.566320019534));
#477 = CARTESIAN_POINT('',(1.740898123147,5.614971658855));
#478 = CARTESIAN_POINT('',(1.716261034862,5.657844455255));
#479 = CARTESIAN_POINT('',(1.689555661415,5.693672310123));
#480 = CARTESIAN_POINT('',(1.661198035348,5.721442647907));
#481 = CARTESIAN_POINT('',(1.63163559049,5.74039140654));
#482 = CARTESIAN_POINT('',(1.601337991448,5.749999991977));
#483 = CARTESIAN_POINT('',(1.570796326795,5.75));
#484 = ( GEOMETRIC_REPRESENTATION_CONTEXT(2) 
PARAMETRIC_REPRESENTATION_CONTEXT() REPRESENTATION_CONTEXT('2D SPACE',''
  ) );
#485 = PCURVE('',#486,#491);
#486 = CYLINDRICAL_SURFACE('',#487,0.75);
#487 = AXIS2_PLACEMENT_3D('',#488,#489,#490);
#488 = CARTESIAN_POINT('',(0.,-3.,4.));
#489 = DIRECTION('',(0.,1.,0.));
#490 = DIRECTION('',(0.,-0.,1.));
#491 = DEFINITIONAL_REPRESENTATION('',(#492),#544);
#492 = B_SPLINE_CURVE_WITH_KNOTS('',8,(#493,#494,#495,#496,#497,#498,
    #499,#500,#501,#502,#503,#504,#505,#506,#507,#508,#509,#510,#511,
    #512,#513,#514,#515,#516,#517,#518,#519,#520,#521,#522,#523,#524,
    #525,#526,#527,#528,#529,#530,#531,#532,#533,#534,#535,#536,#537,
    #538,#539,#540,#541,#542,#543),.UNSPECIFIED.,.F.,.F.,(9,7,7,7,7,7,7,
    9),(0.,0.124579945806,0.249923387597,0.395304674625,0.536833809014,
    0.749485527176,0.875118000921,1.),.UNSPECIFIED.);
#493 = CARTESIAN_POINT('',(0.,5.6));
#494 = CARTESIAN_POINT('',(0.105897737961,5.599999998854));
#495 = CARTESIAN_POINT('',(0.210934588552,5.597227143088));
#496 = CARTESIAN_POINT('',(0.315071831713,5.591760810546));
#497 = CARTESIAN_POINT('',(0.418230671022,5.583932266416));
#498 = CARTESIAN_POINT('',(0.520275492486,5.574302458632));
#499 = CARTESIAN_POINT('',(0.620989554118,5.563589370321));
#500 = CARTESIAN_POINT('',(0.720025624677,5.552555677025));
#501 = CARTESIAN_POINT('',(0.914195729349,5.531113732535));
#502 = CARTESIAN_POINT('',(1.010204007629,5.520610376888));
#503 = CARTESIAN_POINT('',(1.105096165043,5.51094689042));
#504 = CARTESIAN_POINT('',(1.199108339746,5.502648696106));
#505 = CARTESIAN_POINT('',(1.292463021501,5.496136154549));
#506 = CARTESIAN_POINT('',(1.385377845327,5.491697808573));
#507 = CARTESIAN_POINT('',(1.478075725055,5.489477856901));
#508 = CARTESIAN_POINT('',(1.678339571358,5.489477856901));
#509 = CARTESIAN_POINT('',(1.785876322011,5.492464203558));
#510 = CARTESIAN_POINT('',(1.893761787225,5.498437176327));
#511 = CARTESIAN_POINT('',(2.002334747567,5.50713552317));
#512 = CARTESIAN_POINT('',(2.111926629856,5.518034830796));
#513 = CARTESIAN_POINT('',(2.22287886497,5.530380095588));
#514 = CARTESIAN_POINT('',(2.335568529291,5.543252495246));
#515 = CARTESIAN_POINT('',(2.562272212913,5.567759192118));
#516 = CARTESIAN_POINT('',(2.677571132216,5.5795679421));
#517 = CARTESIAN_POINT('',(2.79505047532,5.58997899122));
#518 = CARTESIAN_POINT('',(2.913919086608,5.597812128805));
#519 = CARTESIAN_POINT('',(3.033617160411,5.602178023756));
#520 = CARTESIAN_POINT('',(3.153679051716,5.602693172568));
#521 = CARTESIAN_POINT('',(3.273642280517,5.599533179943));
#522 = CARTESIAN_POINT('',(3.572138472779,5.583937532944));
#523 = CARTESIAN_POINT('',(3.744685197399,5.567906034884));
#524 = CARTESIAN_POINT('',(3.912505686658,5.54775516349));
#525 = CARTESIAN_POINT('',(4.07669209085,5.52688791317));
#526 = CARTESIAN_POINT('',(4.238141870852,5.508695874829));
#527 = CARTESIAN_POINT('',(4.397531010118,5.495835455745));
#528 = CARTESIAN_POINT('',(4.555488933053,5.489477856901));
#529 = CARTESIAN_POINT('',(4.805083933651,5.489477856901));
#530 = CARTESIAN_POINT('',(4.897776797628,5.491696562525));
#531 = CARTESIAN_POINT('',(4.990700759963,5.496134207251));
#532 = CARTESIAN_POINT('',(5.084072268999,5.502647571575));
#533 = CARTESIAN_POINT('',(5.178102484922,5.51094781758));
#534 = CARTESIAN_POINT('',(5.273007055543,5.520613171371));
#535 = CARTESIAN_POINT('',(5.36901421669,5.531116453371));
#536 = CARTESIAN_POINT('',(5.56314664872,5.552554237722));
#537 = CARTESIAN_POINT('',(5.66218487563,5.56358814174));
#538 = CARTESIAN_POINT('',(5.762908624726,5.574302552467));
#539 = CARTESIAN_POINT('',(5.864965400976,5.583933671918));
#540 = CARTESIAN_POINT('',(5.968134314078,5.591762587411));
#541 = CARTESIAN_POINT('',(6.072275962266,5.597228188083));
#542 = CARTESIAN_POINT('',(6.177307536381,5.599999998855));
#543 = CARTESIAN_POINT('',(6.28318530718,5.6));
#544 = ( GEOMETRIC_REPRESENTATION_CONTEXT(2) 
PARAMETRIC_REPRESENTATION_CONTEXT() REPRESENTATION_CONTEXT('2D SPACE',''
  ) );
#545 = FACE_BOUND('',#546,.F.);
#546 = EDGE_LOOP('',(#547));
#547 = ORIENTED_EDGE('',*,*,#548,.T.);
#548 = EDGE_CURVE('',#549,#549,#551,.T.);
#549 = VERTEX_POINT('',#550);
#550 = CARTESIAN_POINT('',(-1.836970198721E-16,-2.6,4.75));
#551 = SURFACE_CURVE('',#552,(#604,#659),.PCURVE_S1.);
#552 = B_SPLINE_CURVE_WITH_KNOTS('',8,(#553,#554,#555,#556,#557,#558,
    #559,#560,#561,#562,#563,#564,#565,#566,#567,#568,#569,#570,#571,
    #572,#573,#574,#575,#576,#577,#578,#579,#580,#581,#582,#583,#584,
    #585,#586,#587,#588,#589,#590,#591,#592,#593,#594,#595,#596,#597,
    #598,#599,#600,#601,#602,#603),.UNSPECIFIED.,.T.,.F.,(9,7,7,7,7,7,7,
    9),(0.,0.124579945807,0.2499233876,0.39530467463,0.536833809019,
    0.749485527182,0.875118000921,1.),.UNSPECIFIED.);
#553 = CARTESIAN_POINT('',(-3.330669073875E-16,-2.6,4.75));
#554 = CARTESIAN_POINT('',(7.942330347081E-02,-2.599999998854,
    4.749999992058));
#555 = CARTESIAN_POINT('',(0.15820092417,-2.597227143088,4.740387781553)
  );
#556 = CARTESIAN_POINT('',(0.234946719398,-2.591760810546,4.721436494407
    ));
#557 = CARTESIAN_POINT('',(0.308336635865,-2.583932266416,4.693666957148
    ));
#558 = CARTESIAN_POINT('',(0.377153792072,-2.574302458632,4.65784332011)
  );
#559 = CARTESIAN_POINT('',(0.44033472836,-2.563589370321,4.614976124989)
  );
#560 = CARTESIAN_POINT('',(0.497034272732,-2.552555677025,4.566327145448
    ));
#561 = CARTESIAN_POINT('',(0.596723210141,-2.531113732535,4.460169209431
    ));
#562 = CARTESIAN_POINT('',(0.640089219714,-2.520610376888,4.402114696933
    ));
#563 = CARTESIAN_POINT('',(0.676527741122,-2.51094689042,4.340149960488)
  );
#564 = CARTESIAN_POINT('',(0.705839952735,-2.502648696106,4.275123745762
    ));
#565 = CARTESIAN_POINT('',(0.727899212503,-2.496136154549,4.207839184125
    ));
#566 = CARTESIAN_POINT('',(0.742631206075,-2.491697808573,4.139063762047
    ));
#567 = CARTESIAN_POINT('',(0.75,-2.489477856901,4.069540451305));
#568 = CARTESIAN_POINT('',(0.75,-2.489477856901,3.919342566577));
#569 = CARTESIAN_POINT('',(0.740086671052,-2.492464203558,3.83869050901)
  );
#570 = CARTESIAN_POINT('',(0.720262266651,-2.498437176327,3.759196651595
    ));
#571 = CARTESIAN_POINT('',(0.690589177232,-2.50713552317,3.682031184495)
  );
#572 = CARTESIAN_POINT('',(0.651207313509,-2.518034830796,3.608410585409
    ));
#573 = CARTESIAN_POINT('',(0.602363345335,-2.530380095588,3.539620492187
    ));
#574 = CARTESIAN_POINT('',(0.544451796043,-2.543252495246,3.477032526412
    ));
#575 = CARTESIAN_POINT('',(0.413443153231,-2.567759192118,3.368652751534
    ));
#576 = CARTESIAN_POINT('',(0.339981012945,-2.5795679421,3.321791209944)
  );
#577 = CARTESIAN_POINT('',(0.258914795699,-2.58997899122,3.284063488259)
  );
#578 = CARTESIAN_POINT('',(0.172107200979,-2.597812128805,3.257310356858
    ));
#579 = CARTESIAN_POINT('',(8.177421814483E-02,-2.602178023756,
    3.242701732464));
#580 = CARTESIAN_POINT('',(-9.691057265892E-03,-2.602693172568,
    3.240751420591));
#581 = CARTESIAN_POINT('',(-9.98695745763E-02,-2.599533179943,
    3.251315244917));
#582 = CARTESIAN_POINT('',(-0.316708363691,-2.583937532944,
    3.306989983196));
#583 = CARTESIAN_POINT('',(-0.43520571744,-2.567906034884,3.365838591559
    ));
#584 = CARTESIAN_POINT('',(-0.537946420933,-2.54775516349,3.445362545515
    ));
#585 = CARTESIAN_POINT('',(-0.622225900022,-2.52688791317,3.541135276613
    ));
#586 = CARTESIAN_POINT('',(-0.686199215988,-2.508695874829,
    3.648728366759));
#587 = CARTESIAN_POINT('',(-0.728899287377,-2.495835455745,
    3.763856675469));
#588 = CARTESIAN_POINT('',(-0.75,-2.489477856901,3.882324964501));
#589 = CARTESIAN_POINT('',(-0.75,-2.489477856901,4.069521214947));
#590 = CARTESIAN_POINT('',(-0.742635309227,-2.491696562525,
    4.139040772406));
#591 = CARTESIAN_POINT('',(-0.727905694785,-2.496134207251,
    4.207823767245));
#592 = CARTESIAN_POINT('',(-0.705844208735,-2.502647571575,
    4.275121541293));
#593 = CARTESIAN_POINT('',(-0.676525333458,-2.510947817581,
    4.340160385316));
#594 = CARTESIAN_POINT('',(-0.640079011556,-2.520613171371,
    4.402131566318));
#595 = CARTESIAN_POINT('',(-0.596710560293,-2.531116453372,4.46018268015
    ));
#596 = CARTESIAN_POINT('',(-0.497040964411,-2.552554237722,
    4.566320019533));
#597 = CARTESIAN_POINT('',(-0.440341891142,-2.56358814174,4.614971658902
    ));
#598 = CARTESIAN_POINT('',(-0.377155688438,-2.574302552467,
    4.657844455149));
#599 = CARTESIAN_POINT('',(-0.308330021647,-2.583933671918,
    4.693672310174));
#600 = CARTESIAN_POINT('',(-0.234931854196,-2.591762587411,
    4.721442648009));
#601 = CARTESIAN_POINT('',(-0.158181992492,-2.597228188083,
    4.740391406379));
#602 = CARTESIAN_POINT('',(-7.940832809876E-02,-2.599999998855,
    4.749999992059));
#603 = CARTESIAN_POINT('',(-3.330669073875E-16,-2.6,4.75));
#604 = PCURVE('',#160,#605);
#605 = DEFINITIONAL_REPRESENTATION('',(#606),#658);
#606 = B_SPLINE_CURVE_WITH_KNOTS('',8,(#607,#608,#609,#610,#611,#612,
    #613,#614,#615,#616,#617,#618,#619,#620,#621,#622,#623,#624,#625,
    #626,#627,#628,#629,#630,#631,#632,#633,#634,#635,#636,#637,#638,
    #639,#640,#641,#642,#643,#644,#645,#646,#647,#648,#649,#650,#651,
    #652,#653,#654,#655,#656,#657),.UNSPECIFIED.,.T.,.F.,(9,7,7,7,7,7,7,
    9),(0.,0.124579945807,0.2499233876,0.39530467463,0.536833809019,
    0.749485527182,0.875118000921,1.),.UNSPECIFIED.);
#607 = CARTESIAN_POINT('',(4.712388980385,5.75));
#608 = CARTESIAN_POINT('',(4.742936404797,5.749999991975));
#609 = CARTESIAN_POINT('',(4.773235525104,5.740387781719));
#610 = CARTESIAN_POINT('',(4.802796431913,5.721436494302));
#611 = CARTESIAN_POINT('',(4.831150904337,5.693666957096));
#612 = CARTESIAN_POINT('',(4.857852979416,5.65784332022));
#613 = CARTESIAN_POINT('',(4.882487983739,5.614976124941));
#614 = CARTESIAN_POINT('',(4.904700249009,5.566327145448));
#615 = CARTESIAN_POINT('',(4.943919027767,5.460169209431));
#616 = CARTESIAN_POINT('',(4.961074711906,5.402114696933));
#617 = CARTESIAN_POINT('',(4.975569590252,5.340149960488));
#618 = CARTESIAN_POINT('',(4.987284732499,5.275123745762));
#619 = CARTESIAN_POINT('',(4.996130864363,5.207839184125));
#620 = CARTESIAN_POINT('',(5.002048764253,5.139063762047));
#621 = CARTESIAN_POINT('',(5.005008665729,5.069540451305));
#622 = CARTESIAN_POINT('',(5.005008665729,4.919342566577));
#623 = CARTESIAN_POINT('',(5.001026856127,4.83869050901));
#624 = CARTESIAN_POINT('',(4.993062891451,4.759196651595));
#625 = CARTESIAN_POINT('',(4.981170507861,4.682031184495));
#626 = CARTESIAN_POINT('',(4.965458932183,4.608410585409));
#627 = CARTESIAN_POINT('',(4.94609251212,4.539620492187));
#628 = CARTESIAN_POINT('',(4.923288567637,4.477032526412));
#629 = CARTESIAN_POINT('',(4.87202661899,4.368652751534));
#630 = CARTESIAN_POINT('',(4.843418677451,4.321791209944));
#631 = CARTESIAN_POINT('',(4.812009588122,4.284063488259));
#632 = CARTESIAN_POINT('',(4.778537211416,4.257310356858));
#633 = CARTESIAN_POINT('',(4.743814578718,4.242701732464));
#634 = CARTESIAN_POINT('',(4.708683977263,4.240751420591));
#635 = CARTESIAN_POINT('',(4.674002017467,4.251315244917));
#636 = CARTESIAN_POINT('',(4.59038705332,4.306989983196));
#637 = CARTESIAN_POINT('',(4.544486166241,4.365838591559));
#638 = CARTESIAN_POINT('',(4.504323925875,4.445362545515));
#639 = CARTESIAN_POINT('',(4.470975961534,4.541135276613));
#640 = CARTESIAN_POINT('',(4.445396705761,4.648728366759));
#641 = CARTESIAN_POINT('',(4.42824540177,4.763856675469));
#642 = CARTESIAN_POINT('',(4.41976929504,4.882324964501));
#643 = CARTESIAN_POINT('',(4.41976929504,5.069521214947));
#644 = CARTESIAN_POINT('',(4.422727535369,5.139040772406));
#645 = CARTESIAN_POINT('',(4.428644494462,5.207823767245));
#646 = CARTESIAN_POINT('',(4.437491545531,5.275121541293));
#647 = CARTESIAN_POINT('',(4.449209358153,5.340160385316));
#648 = CARTESIAN_POINT('',(4.463707310124,5.402131566318));
#649 = CARTESIAN_POINT('',(4.480863909599,5.46018268015));
#650 = CARTESIAN_POINT('',(4.520075079177,5.566320019533));
#651 = CARTESIAN_POINT('',(4.542287184033,5.614971658855));
#652 = CARTESIAN_POINT('',(4.566924272317,5.657844455256));
#653 = CARTESIAN_POINT('',(4.593629645765,5.693672310123));
#654 = CARTESIAN_POINT('',(4.621987271832,5.721442647907));
#655 = CARTESIAN_POINT('',(4.651549716689,5.74039140654));
#656 = CARTESIAN_POINT('',(4.681847315731,5.749999991977));
#657 = CARTESIAN_POINT('',(4.712388980385,5.75));
#658 = ( GEOMETRIC_REPRESENTATION_CONTEXT(2) 
PARAMETRIC_REPRESENTATION_CONTEXT() REPRESENTATION_CONTEXT('2D SPACE',''
  ) );
#659 = PCURVE('',#660,#665);
#660 = CYLINDRICAL_SURFACE('',#661,0.75);
#661 = AXIS2_PLACEMENT_3D('',#662,#663,#664);
#662 = CARTESIAN_POINT('',(0.,-3.,4.));
#663 = DIRECTION('',(0.,1.,0.));
#664 = DIRECTION('',(0.,-0.,1.));
#665 = DEFINITIONAL_REPRESENTATION('',(#666),#718);
#666 = B_SPLINE_CURVE_WITH_KNOTS('',8,(#667,#668,#669,#670,#671,#672,
    #673,#674,#675,#676,#677,#678,#679,#680,#681,#682,#683,#684,#685,
    #686,#687,#688,#689,#690,#691,#692,#693,#694,#695,#696,#697,#698,
    #699,#700,#701,#702,#703,#704,#705,#706,#707,#708,#709,#710,#711,
    #712,#713,#714,#715,#716,#717),.UNSPECIFIED.,.F.,.F.,(9,7,7,7,7,7,7,
    9),(0.,0.124579945807,0.2499233876,0.39530467463,0.536833809019,
    0.749485527182,0.875118000921,1.),.UNSPECIFIED.);
#667 = CARTESIAN_POINT('',(0.,0.4));
#668 = CARTESIAN_POINT('',(0.105897737961,0.400000001146));
#669 = CARTESIAN_POINT('',(0.210934588552,0.402772856912));
#670 = CARTESIAN_POINT('',(0.315071831713,0.408239189454));
#671 = CARTESIAN_POINT('',(0.418230671022,0.416067733584));
#672 = CARTESIAN_POINT('',(0.520275492486,0.425697541368));
#673 = CARTESIAN_POINT('',(0.620989554118,0.436410629679));
#674 = CARTESIAN_POINT('',(0.720025624677,0.447444322975));
#675 = CARTESIAN_POINT('',(0.914195729349,0.468886267465));
#676 = CARTESIAN_POINT('',(1.010204007629,0.479389623112));
#677 = CARTESIAN_POINT('',(1.105096165043,0.48905310958));
#678 = CARTESIAN_POINT('',(1.199108339746,0.497351303894));
#679 = CARTESIAN_POINT('',(1.292463021501,0.503863845451));
#680 = CARTESIAN_POINT('',(1.385377845327,0.508302191427));
#681 = CARTESIAN_POINT('',(1.478075725055,0.510522143099));
#682 = CARTESIAN_POINT('',(1.678339571358,0.510522143099));
#683 = CARTESIAN_POINT('',(1.785876322011,0.507535796442));
#684 = CARTESIAN_POINT('',(1.893761787225,0.501562823673));
#685 = CARTESIAN_POINT('',(2.002334747567,0.49286447683));
#686 = CARTESIAN_POINT('',(2.111926629856,0.481965169204));
#687 = CARTESIAN_POINT('',(2.22287886497,0.469619904412));
#688 = CARTESIAN_POINT('',(2.335568529291,0.456747504754));
#689 = CARTESIAN_POINT('',(2.562272212913,0.432240807882));
#690 = CARTESIAN_POINT('',(2.677571132216,0.4204320579));
#691 = CARTESIAN_POINT('',(2.79505047532,0.41002100878));
#692 = CARTESIAN_POINT('',(2.913919086609,0.402187871195));
#693 = CARTESIAN_POINT('',(3.033617160411,0.397821976244));
#694 = CARTESIAN_POINT('',(3.153679051715,0.397306827432));
#695 = CARTESIAN_POINT('',(3.273642280517,0.400466820057));
#696 = CARTESIAN_POINT('',(3.572138472779,0.416062467056));
#697 = CARTESIAN_POINT('',(3.7446851974,0.432093965116));
#698 = CARTESIAN_POINT('',(3.912505686657,0.45224483651));
#699 = CARTESIAN_POINT('',(4.076692090852,0.47311208683));
#700 = CARTESIAN_POINT('',(4.238141870851,0.491304125171));
#701 = CARTESIAN_POINT('',(4.397531010119,0.504164544255));
#702 = CARTESIAN_POINT('',(4.555488933052,0.510522143099));
#703 = CARTESIAN_POINT('',(4.805083933647,0.510522143099));
#704 = CARTESIAN_POINT('',(4.897776797623,0.508303437475));
#705 = CARTESIAN_POINT('',(4.990700759959,0.503865792749));
#706 = CARTESIAN_POINT('',(5.084072268998,0.497352428425));
#707 = CARTESIAN_POINT('',(5.178102484925,0.489052182419));
#708 = CARTESIAN_POINT('',(5.273007055547,0.479386828629));
#709 = CARTESIAN_POINT('',(5.369014216695,0.468883546628));
#710 = CARTESIAN_POINT('',(5.56314664872,0.447445762278));
#711 = CARTESIAN_POINT('',(5.66218487563,0.43641185826));
#712 = CARTESIAN_POINT('',(5.762908624726,0.425697447533));
#713 = CARTESIAN_POINT('',(5.864965400977,0.416066328082));
#714 = CARTESIAN_POINT('',(5.968134314078,0.408237412589));
#715 = CARTESIAN_POINT('',(6.072275962265,0.402771811917));
#716 = CARTESIAN_POINT('',(6.177307536381,0.400000001145));
#717 = CARTESIAN_POINT('',(6.28318530718,0.4));
#718 = ( GEOMETRIC_REPRESENTATION_CONTEXT(2) 
PARAMETRIC_REPRESENTATION_CONTEXT() REPRESENTATION_CONTEXT('2D SPACE',''
  ) );
#719 = ADVANCED_FACE('',(#720),#191,.F.);
#720 = FACE_BOUND('',#721,.F.);
#721 = EDGE_LOOP('',(#722,#723,#744,#745));
#722 = ORIENTED_EDGE('',*,*,#174,.F.);
#723 = ORIENTED_EDGE('',*,*,#724,.F.);
#724 = EDGE_CURVE('',#267,#175,#725,.T.);
#725 = SEAM_CURVE('',#726,(#730,#737),.PCURVE_S1.);
#726 = LINE('',#727,#728);
#727 = CARTESIAN_POINT('',(6.3,-2.694222958124E-16,-1.));
#728 = VECTOR('',#729,1.);
#729 = DIRECTION('',(0.,0.,1.));
#730 = PCURVE('',#191,#731);
#731 = DEFINITIONAL_REPRESENTATION('',(#732),#736);
#732 = LINE('',#733,#734);
#733 = CARTESIAN_POINT('',(6.28318530718,-0.));
#734 = VECTOR('',#735,1.);
#735 = DIRECTION('',(0.,1.));
#736 = ( GEOMETRIC_REPRESENTATION_CONTEXT(2) 
PARAMETRIC_REPRESENTATION_CONTEXT() REPRESENTATION_CONTEXT('2D SPACE',''
  ) );
#737 = PCURVE('',#191,#738);
#738 = DEFINITIONAL_REPRESENTATION('',(#739),#743);
#739 = LINE('',#740,#741);
#740 = CARTESIAN_POINT('',(0.,-0.));
#741 = VECTOR('',#742,1.);
#742 = DIRECTION('',(0.,1.));
#743 = ( GEOMETRIC_REPRESENTATION_CONTEXT(2) 
PARAMETRIC_REPRESENTATION_CONTEXT() REPRESENTATION_CONTEXT('2D SPACE',''
  ) );
#744 = ORIENTED_EDGE('',*,*,#266,.T.);
#745 = ORIENTED_EDGE('',*,*,#724,.T.);
#746 = ADVANCED_FACE('',(#747,#801),#252,.T.);
#747 = FACE_BOUND('',#748,.T.);
#748 = EDGE_LOOP('',(#749,#772,#773,#774));
#749 = ORIENTED_EDGE('',*,*,#750,.T.);
#750 = EDGE_CURVE('',#751,#236,#753,.T.);
#751 = VERTEX_POINT('',#752);
#752 = CARTESIAN_POINT('',(4.,-9.797174393179E-16,1.5));
#753 = SEAM_CURVE('',#754,(#758,#765),.PCURVE_S1.);
#754 = LINE('',#755,#756);
#755 = CARTESIAN_POINT('',(4.,-9.797174393179E-16,1.5));
#756 = VECTOR('',#757,1.);
#757 = DIRECTION('',(0.,0.,1.));
#758 = PCURVE('',#252,#759);
#759 = DEFINITIONAL_REPRESENTATION('',(#760),#764);
#760 = LINE('',#761,#762);
#761 = CARTESIAN_POINT('',(6.28318530718,-0.));
#762 = VECTOR('',#763,1.);
#763 = DIRECTION('',(0.,1.));
#764 = ( GEOMETRIC_REPRESENTATION_CONTEXT(2) 
PARAMETRIC_REPRESENTATION_CONTEXT() REPRESENTATION_CONTEXT('2D SPACE',''
  ) );
#765 = PCURVE('',#252,#766);
#766 = DEFINITIONAL_REPRESENTATION('',(#767),#771);
#767 = LINE('',#768,#769);
#768 = CARTESIAN_POINT('',(0.,-0.));
#769 = VECTOR('',#770,1.);
#770 = DIRECTION('',(0.,1.));
#771 = ( GEOMETRIC_REPRESENTATION_CONTEXT(2) 
PARAMETRIC_REPRESENTATION_CONTEXT() REPRESENTATION_CONTEXT('2D SPACE',''
  ) );
#772 = ORIENTED_EDGE('',*,*,#235,.F.);
#773 = ORIENTED_EDGE('',*,*,#750,.F.);
#774 = ORIENTED_EDGE('',*,*,#775,.T.);
#775 = EDGE_CURVE('',#751,#751,#776,.T.);
#776 = SURFACE_CURVE('',#777,(#782,#789),.PCURVE_S1.);
#777 = CIRCLE('',#778,4.);
#778 = AXIS2_PLACEMENT_3D('',#779,#780,#781);
#779 = CARTESIAN_POINT('',(0.,0.,1.5));
#780 = DIRECTION('',(0.,0.,1.));
#781 = DIRECTION('',(1.,0.,-0.));
#782 = PCURVE('',#252,#783);
#783 = DEFINITIONAL_REPRESENTATION('',(#784),#788);
#784 = LINE('',#785,#786);
#785 = CARTESIAN_POINT('',(0.,0.));
#786 = VECTOR('',#787,1.);
#787 = DIRECTION('',(1.,0.));
#788 = ( GEOMETRIC_REPRESENTATION_CONTEXT(2) 
PARAMETRIC_REPRESENTATION_CONTEXT() REPRESENTATION_CONTEXT('2D SPACE',''
  ) );
#789 = PCURVE('',#790,#795);
#790 = PLANE('',#791);
#791 = AXIS2_PLACEMENT_3D('',#792,#793,#794);
#792 = CARTESIAN_POINT('',(0.,0.,1.5));
#793 = DIRECTION('',(0.,0.,1.));
#794 = DIRECTION('',(1.,0.,-0.));
#795 = DEFINITIONAL_REPRESENTATION('',(#796),#800);
#796 = CIRCLE('',#797,4.);
#797 = AXIS2_PLACEMENT_2D('',#798,#799);
#798 = CARTESIAN_POINT('',(0.,0.));
#799 = DIRECTION('',(1.,0.));
#800 = ( GEOMETRIC_REPRESENTATION_CONTEXT(2) 
PARAMETRIC_REPRESENTATION_CONTEXT() REPRESENTATION_CONTEXT('2D SPACE',''
  ) );
#801 = FACE_BOUND('',#802,.T.);
#802 = EDGE_LOOP('',(#803));
#803 = ORIENTED_EDGE('',*,*,#804,.F.);
#804 = EDGE_CURVE('',#805,#805,#807,.T.);
#805 = VERTEX_POINT('',#806);
#806 = CARTESIAN_POINT('',(-1.836970198721E-16,4.,4.75));
#807 = SURFACE_CURVE('',#808,(#860,#915),.PCURVE_S1.);
#808 = B_SPLINE_CURVE_WITH_KNOTS('',8,(#809,#810,#811,#812,#813,#814,
    #815,#816,#817,#818,#819,#820,#821,#822,#823,#824,#825,#826,#827,
    #828,#829,#830,#831,#832,#833,#834,#835,#836,#837,#838,#839,#840,
    #841,#842,#843,#844,#845,#846,#847,#848,#849,#850,#851,#852,#853,
    #854,#855,#856,#857,#858,#859),.UNSPECIFIED.,.T.,.F.,(9,7,7,7,7,7,7,
    9),(0.,0.13879669705,0.249459931169,0.395260585097,0.535795564144,
    0.748697768469,0.900298763015,1.),.UNSPECIFIED.);
#809 = CARTESIAN_POINT('',(0.,4.,4.75));
#810 = CARTESIAN_POINT('',(8.9404202058E-02,3.999999999162,4.74999999106
    ));
#811 = CARTESIAN_POINT('',(0.177835052862,3.997716136018,4.737820144848)
  );
#812 = CARTESIAN_POINT('',(0.263358107069,3.993236143436,4.713923840245)
  );
#813 = CARTESIAN_POINT('',(0.344163434213,3.986913278137,4.679138062017)
  );
#814 = CARTESIAN_POINT('',(0.418636681826,3.979333611405,4.634638607121)
  );
#815 = CARTESIAN_POINT('',(0.485432114475,3.971203563146,4.581943758678)
  );
#816 = CARTESIAN_POINT('',(0.543574443134,3.963203994282,4.52290461865)
  );
#817 = CARTESIAN_POINT('',(0.631717521036,3.949999518278,4.409271247334)
  );
#818 = CARTESIAN_POINT('',(0.665395589,3.944502651804,4.355735000765));
#819 = CARTESIAN_POINT('',(0.693550686539,3.939598203342,4.299673427355)
  );
#820 = CARTESIAN_POINT('',(0.716117982352,3.935478921359,4.241643611657)
  );
#821 = CARTESIAN_POINT('',(0.733059015591,3.932292153624,4.182168826643)
  );
#822 = CARTESIAN_POINT('',(0.744354713272,3.930136039208,4.121748414169)
  );
#823 = CARTESIAN_POINT('',(0.75,3.929058411375,4.060866565232));
#824 = CARTESIAN_POINT('',(0.75,3.929058411375,3.91980728664));
#825 = CARTESIAN_POINT('',(0.740200561195,3.93092896879,3.83951869311));
#826 = CARTESIAN_POINT('',(0.720560774238,3.934677960695,3.760255110929)
  );
#827 = CARTESIAN_POINT('',(0.691089320807,3.94016174137,3.683167775478)
  );
#828 = CARTESIAN_POINT('',(0.651866930428,3.947078247678,3.609464826649)
  );
#829 = CARTESIAN_POINT('',(0.603064401441,3.954974687693,3.540432318934)
  );
#830 = CARTESIAN_POINT('',(0.544973492661,3.963274543404,3.477464111388)
  );
#831 = CARTESIAN_POINT('',(0.413578822775,3.979091815675,3.368764987141)
  );
#832 = CARTESIAN_POINT('',(0.340213036916,3.986709169671,3.321924734997)
  );
#833 = CARTESIAN_POINT('',(0.259182914147,3.993460856788,3.284158437159)
  );
#834 = CARTESIAN_POINT('',(0.172347832875,3.998566990056,3.257347614128)
  );
#835 = CARTESIAN_POINT('',(8.193983200821E-02,4.001420397177,
    3.242695960472));
#836 = CARTESIAN_POINT('',(-9.616046803562E-03,4.001754083435,
    3.240734560661));
#837 = CARTESIAN_POINT('',(-9.986122069057E-02,3.99969416277,
    3.251313100003));
#838 = CARTESIAN_POINT('',(-0.317796439226,3.989520918506,3.30726935351)
  );
#839 = CARTESIAN_POINT('',(-0.436938367624,3.979019148174,3.366760505788
    ));
#840 = CARTESIAN_POINT('',(-0.539767973697,3.965907295466,3.446977584142
    ));
#841 = CARTESIAN_POINT('',(-0.623722532413,3.952533759621,3.543196778456
    ));
#842 = CARTESIAN_POINT('',(-0.687194577057,3.941046720743,3.650903832656
    ));
#843 = CARTESIAN_POINT('',(-0.729348201877,3.933000606997,3.765798720397
    ));
#844 = CARTESIAN_POINT('',(-0.75,3.929058411375,3.883583631656));
#845 = CARTESIAN_POINT('',(-0.75,3.929058411375,4.082896451347));
#846 = CARTESIAN_POINT('',(-0.739528627413,3.931057225158,4.16591243756)
  );
#847 = CARTESIAN_POINT('',(-0.718533189879,3.935065011881,4.247802018549
    ));
#848 = CARTESIAN_POINT('',(-0.687022953516,3.940917825333,4.32728309697)
  );
#849 = CARTESIAN_POINT('',(-0.645095608601,3.948269038926,4.403008161779
    ));
#850 = CARTESIAN_POINT('',(-0.592957673479,3.956599583866,4.473541445192
    ));
#851 = CARTESIAN_POINT('',(-0.530961343317,3.965252708364,4.537325006883
    ));
#852 = CARTESIAN_POINT('',(-0.412801909351,3.978922162759,4.628978858848
    ));
#853 = CARTESIAN_POINT('',(-0.361781384194,3.984183864883,4.66176653141)
  );
#854 = CARTESIAN_POINT('',(-0.307047331762,3.989040649432,4.69021337018)
  );
#855 = CARTESIAN_POINT('',(-0.249158520843,3.993242157739,4.713687859451
    ));
#856 = CARTESIAN_POINT('',(-0.188769733812,3.996567377235,4.731693728606
    ));
#857 = CARTESIAN_POINT('',(-0.126602105522,3.99885102023,4.743871394704)
  );
#858 = CARTESIAN_POINT('',(-6.341793929293E-02,3.999999999405,
    4.749999993658));
#859 = CARTESIAN_POINT('',(0.,4.,4.75));
#860 = PCURVE('',#252,#861);
#861 = DEFINITIONAL_REPRESENTATION('',(#862),#914);
#862 = B_SPLINE_CURVE_WITH_KNOTS('',8,(#863,#864,#865,#866,#867,#868,
    #869,#870,#871,#872,#873,#874,#875,#876,#877,#878,#879,#880,#881,
    #882,#883,#884,#885,#886,#887,#888,#889,#890,#891,#892,#893,#894,
    #895,#896,#897,#898,#899,#900,#901,#902,#903,#904,#905,#906,#907,
    #908,#909,#910,#911,#912,#913),.UNSPECIFIED.,.T.,.F.,(9,7,7,7,7,7,7,
    9),(0.,0.13879669705,0.249459931169,0.395260585097,0.535795564144,
    0.748697768469,0.900298763015,1.),.UNSPECIFIED.);
#863 = CARTESIAN_POINT('',(1.570796326795,3.25));
#864 = CARTESIAN_POINT('',(1.54844527628,3.24999999102));
#865 = CARTESIAN_POINT('',(1.526337532191,3.237820144927));
#866 = CARTESIAN_POINT('',(1.504939884469,3.213923840195));
#867 = CARTESIAN_POINT('',(1.48468883336,3.179138061992));
#868 = CARTESIAN_POINT('',(1.465982271563,3.134638607173));
#869 = CARTESIAN_POINT('',(1.449163552379,3.081943758655));
#870 = CARTESIAN_POINT('',(1.434492116472,3.02290461865));
#871 = CARTESIAN_POINT('',(1.412210453091,2.909271247334));
#872 = CARTESIAN_POINT('',(1.403680260985,2.855735000765));
#873 = CARTESIAN_POINT('',(1.396536024789,2.799673427355));
#874 = CARTESIAN_POINT('',(1.390801180736,2.741643611657));
#875 = CARTESIAN_POINT('',(1.386491660499,2.682168826643));
#876 = CARTESIAN_POINT('',(1.383616742009,2.621748414169));
#877 = CARTESIAN_POINT('',(1.382179940619,2.560866565232));
#878 = CARTESIAN_POINT('',(1.382179940619,2.41980728664));
#879 = CARTESIAN_POINT('',(1.384674040386,2.33951869311));
#880 = CARTESIAN_POINT('',(1.389672612549,2.260255110929));
#881 = CARTESIAN_POINT('',(1.397166907293,2.183167775478));
#882 = CARTESIAN_POINT('',(1.407122762832,2.109464826649));
#883 = CARTESIAN_POINT('',(1.419479197722,2.040432318934));
#884 = CARTESIAN_POINT('',(1.434145814935,1.977464111388));
#885 = CARTESIAN_POINT('',(1.467231636461,1.868764987141));
#886 = CARTESIAN_POINT('',(1.485669172945,1.821924734997));
#887 = CARTESIAN_POINT('',(1.505989945925,1.784158437159));
#888 = CARTESIAN_POINT('',(1.5277223062,1.757347614128));
#889 = CARTESIAN_POINT('',(1.550318577232,1.742695960472));
#890 = CARTESIAN_POINT('',(1.573194150533,1.740734560661));
#891 = CARTESIAN_POINT('',(1.595754955686,1.751313100003));
#892 = CARTESIAN_POINT('',(1.650298089063,1.80726935351));
#893 = CARTESIAN_POINT('',(1.680173603254,1.866760505788));
#894 = CARTESIAN_POINT('',(1.706059888361,1.946977584142));
#895 = CARTESIAN_POINT('',(1.727302694811,2.043196778456));
#896 = CARTESIAN_POINT('',(1.743427922246,2.150903832656));
#897 = CARTESIAN_POINT('',(1.754156531002,2.265798720397));
#898 = CARTESIAN_POINT('',(1.75941271297,2.383583631656));
#899 = CARTESIAN_POINT('',(1.75941271297,2.582896451347));
#900 = CARTESIAN_POINT('',(1.756747594591,2.66591243756));
#901 = CARTESIAN_POINT('',(1.751403999498,2.747802018549));
#902 = CARTESIAN_POINT('',(1.743391732395,2.82728309697));
#903 = CARTESIAN_POINT('',(1.732751271643,2.903008161779));
#904 = CARTESIAN_POINT('',(1.719554972637,2.973541445192));
#905 = CARTESIAN_POINT('',(1.703909980118,3.037325006883));
#906 = CARTESIAN_POINT('',(1.674173107154,3.128978858848));
#907 = CARTESIAN_POINT('',(1.661351299998,3.161766531424));
#908 = CARTESIAN_POINT('',(1.647616435437,3.190213370169));
#909 = CARTESIAN_POINT('',(1.633110070866,3.213687859433));
#910 = CARTESIAN_POINT('',(1.617994805611,3.231693728619));
#911 = CARTESIAN_POINT('',(1.602446867711,3.243871394729));
#912 = CARTESIAN_POINT('',(1.586650811618,3.24999999363));
#913 = CARTESIAN_POINT('',(1.570796326795,3.25));
#914 = ( GEOMETRIC_REPRESENTATION_CONTEXT(2) 
PARAMETRIC_REPRESENTATION_CONTEXT() REPRESENTATION_CONTEXT('2D SPACE',''
  ) );
#915 = PCURVE('',#486,#916);
#916 = DEFINITIONAL_REPRESENTATION('',(#917),#969);
#917 = B_SPLINE_CURVE_WITH_KNOTS('',8,(#918,#919,#920,#921,#922,#923,
    #924,#925,#926,#927,#928,#929,#930,#931,#932,#933,#934,#935,#936,
    #937,#938,#939,#940,#941,#942,#943,#944,#945,#946,#947,#948,#949,
    #950,#951,#952,#953,#954,#955,#956,#957,#958,#959,#960,#961,#962,
    #963,#964,#965,#966,#967,#968),.UNSPECIFIED.,.F.,.F.,(9,7,7,7,7,7,7,
    9),(0.,0.13879669705,0.249459931169,0.395260585097,0.535795564144,
    0.748697768469,0.900298763015,1.),.UNSPECIFIED.);
#918 = CARTESIAN_POINT('',(0.,7.));
#919 = CARTESIAN_POINT('',(0.119205602744,6.999999999162));
#920 = CARTESIAN_POINT('',(0.237113441603,6.997716136018));
#921 = CARTESIAN_POINT('',(0.35372516042,6.993236143436));
#922 = CARTESIAN_POINT('',(0.468973730984,6.986913278137));
#923 = CARTESIAN_POINT('',(0.58270789934,6.979333611405));
#924 = CARTESIAN_POINT('',(0.694660620517,6.971203563146));
#925 = CARTESIAN_POINT('',(0.804375076157,6.963203994282));
#926 = CARTESIAN_POINT('',(0.996123732284,6.949999518278));
#927 = CARTESIAN_POINT('',(1.080048587112,6.944502651804));
#928 = CARTESIAN_POINT('',(1.163057515623,6.939598203342));
#929 = CARTESIAN_POINT('',(1.245345184951,6.935478921359));
#930 = CARTESIAN_POINT('',(1.327090384809,6.932292153624));
#931 = CARTESIAN_POINT('',(1.408464926867,6.930136039208));
#932 = CARTESIAN_POINT('',(1.489640906486,6.929058411375));
#933 = CARTESIAN_POINT('',(1.677719944608,6.929058411375));
#934 = CARTESIAN_POINT('',(1.784771333291,6.93092896879));
#935 = CARTESIAN_POINT('',(1.892319095045,6.934677960695));
#936 = CARTESIAN_POINT('',(2.000708847041,6.94016174137));
#937 = CARTESIAN_POINT('',(2.110297146014,6.947078247678));
#938 = CARTESIAN_POINT('',(2.221469282739,6.954974687693));
#939 = CARTESIAN_POINT('',(2.334665760265,6.963274543404));
#940 = CARTESIAN_POINT('',(2.562037443782,6.979091815675));
#941 = CARTESIAN_POINT('',(2.677219330449,6.986709169671));
#942 = CARTESIAN_POINT('',(2.794680744268,6.993460856788));
#943 = CARTESIAN_POINT('',(2.913603421906,6.998566990056));
#944 = CARTESIAN_POINT('',(3.033400397377,7.001420397177));
#945 = CARTESIAN_POINT('',(3.153576664515,7.001754083435));
#946 = CARTESIAN_POINT('',(3.273630780715,6.99969416277));
#947 = CARTESIAN_POINT('',(3.573636297063,6.989520918506));
#948 = CARTESIAN_POINT('',(3.74722840326,6.979019148174));
#949 = CARTESIAN_POINT('',(3.915615985579,6.965907295466));
#950 = CARTESIAN_POINT('',(4.079958749619,6.952533759621));
#951 = CARTESIAN_POINT('',(4.241229337408,6.941046720743));
#952 = CARTESIAN_POINT('',(4.400120400819,6.933000606997));
#953 = CARTESIAN_POINT('',(4.557167155926,6.929058411375));
#954 = CARTESIAN_POINT('',(4.822917582181,6.929058411375));
#955 = CARTESIAN_POINT('',(4.933605472081,6.931057225158));
#956 = CARTESIAN_POINT('',(5.044849480086,6.935065011881));
#957 = CARTESIAN_POINT('',(5.157021502665,6.940917825333));
#958 = CARTESIAN_POINT('',(5.270507774054,6.948269038926));
#959 = CARTESIAN_POINT('',(5.385728559543,6.956599583866));
#960 = CARTESIAN_POINT('',(5.503168876623,6.965252708364));
#961 = CARTESIAN_POINT('',(5.702554958452,6.978922162759));
#962 = CARTESIAN_POINT('',(5.783101188921,6.984183864883));
#963 = CARTESIAN_POINT('',(5.864767821379,6.989040649432));
#964 = CARTESIAN_POINT('',(5.947317512451,6.993242157739));
#965 = CARTESIAN_POINT('',(6.03057056243,6.996567377235));
#966 = CARTESIAN_POINT('',(6.114382795741,6.99885102023));
#967 = CARTESIAN_POINT('',(6.198628054789,6.999999999405));
#968 = CARTESIAN_POINT('',(6.28318530718,7.));
#969 = ( GEOMETRIC_REPRESENTATION_CONTEXT(2) 
PARAMETRIC_REPRESENTATION_CONTEXT() REPRESENTATION_CONTEXT('2D SPACE',''
  ) );
#970 = ADVANCED_FACE('',(#971,#1002,#1033,#1036),#360,.F.);
#971 = FACE_BOUND('',#972,.F.);
#972 = EDGE_LOOP('',(#973));
#973 = ORIENTED_EDGE('',*,*,#974,.T.);
#974 = EDGE_CURVE('',#975,#975,#977,.T.);
#975 = VERTEX_POINT('',#976);
#976 = CARTESIAN_POINT('',(7.,-1.714505518806E-15,0.));
#977 = SURFACE_CURVE('',#978,(#983,#990),.PCURVE_S1.);
#978 = CIRCLE('',#979,7.);
#979 = AXIS2_PLACEMENT_3D('',#980,#981,#982);
#980 = CARTESIAN_POINT('',(0.,0.,0.));
#981 = DIRECTION('',(0.,0.,1.));
#982 = DIRECTION('',(1.,0.,-0.));
#983 = PCURVE('',#360,#984);
#984 = DEFINITIONAL_REPRESENTATION('',(#985),#989);
#985 = CIRCLE('',#986,7.);
#986 = AXIS2_PLACEMENT_2D('',#987,#988);
#987 = CARTESIAN_POINT('',(0.,0.));
#988 = DIRECTION('',(1.,0.));
#989 = ( GEOMETRIC_REPRESENTATION_CONTEXT(2) 
PARAMETRIC_REPRESENTATION_CONTEXT() REPRESENTATION_CONTEXT('2D SPACE',''
  ) );
#990 = PCURVE('',#991,#996);
#991 = CYLINDRICAL_SURFACE('',#992,7.);
#992 = AXIS2_PLACEMENT_3D('',#993,#994,#995);
#993 = CARTESIAN_POINT('',(0.,0.,0.));
#994 = DIRECTION('',(0.,0.,1.));
#995 = DIRECTION('',(1.,0.,-0.));
#996 = DEFINITIONAL_REPRESENTATION('',(#997),#1001);
#997 = LINE('',#998,#999);
#998 = CARTESIAN_POINT('',(0.,0.));
#999 = VECTOR('',#1000,1.);
#1000 = DIRECTION('',(1.,0.));
#1001 = ( GEOMETRIC_REPRESENTATION_CONTEXT(2) 
PARAMETRIC_REPRESENTATION_CONTEXT() REPRESENTATION_CONTEXT('2D SPACE',''
  ) );
#1002 = FACE_BOUND('',#1003,.F.);
#1003 = EDGE_LOOP('',(#1004));
#1004 = ORIENTED_EDGE('',*,*,#1005,.F.);
#1005 = EDGE_CURVE('',#1006,#1006,#1008,.T.);
#1006 = VERTEX_POINT('',#1007);
#1007 = CARTESIAN_POINT('',(-4.1,-2.694222958124E-16,0.));
#1008 = SURFACE_CURVE('',#1009,(#1014,#1021),.PCURVE_S1.);
#1009 = CIRCLE('',#1010,1.1);
#1010 = AXIS2_PLACEMENT_3D('',#1011,#1012,#1013);
#1011 = CARTESIAN_POINT('',(-5.2,0.,0.));
#1012 = DIRECTION('',(0.,0.,1.));
#1013 = DIRECTION('',(1.,0.,-0.));
#1014 = PCURVE('',#360,#1015);
#1015 = DEFINITIONAL_REPRESENTATION('',(#1016),#1020);
#1016 = CIRCLE('',#1017,1.1);
#1017 = AXIS2_PLACEMENT_2D('',#1018,#1019);
#1018 = CARTESIAN_POINT('',(-5.2,0.));
#1019 = DIRECTION('',(1.,0.));
#1020 = ( GEOMETRIC_REPRESENTATION_CONTEXT(2) 
PARAMETRIC_REPRESENTATION_CONTEXT() REPRESENTATION_CONTEXT('2D SPACE',''
  ) );
#1021 = PCURVE('',#1022,#1027);
#1022 = CYLINDRICAL_SURFACE('',#1023,1.1);
#1023 = AXIS2_PLACEMENT_3D('',#1024,#1025,#1026);
#1024 = CARTESIAN_POINT('',(-5.2,0.,-1.));
#1025 = DIRECTION('',(0.,0.,1.));
#1026 = DIRECTION('',(1.,0.,-0.));
#1027 = DEFINITIONAL_REPRESENTATION('',(#1028),#1032);
#1028 = LINE('',#1029,#1030);
#1029 = CARTESIAN_POINT('',(0.,1.));
#1030 = VECTOR('',#1031,1.);
#1031 = DIRECTION('',(1.,0.));
#1032 = ( GEOMETRIC_REPRESENTATION_CONTEXT(2) 
PARAMETRIC_REPRESENTATION_CONTEXT() REPRESENTATION_CONTEXT('2D SPACE',''
  ) );
#1033 = FACE_BOUND('',#1034,.F.);
#1034 = EDGE_LOOP('',(#1035));
#1035 = ORIENTED_EDGE('',*,*,#345,.F.);
#1036 = FACE_BOUND('',#1037,.F.);
#1037 = EDGE_LOOP('',(#1038));
#1038 = ORIENTED_EDGE('',*,*,#1039,.F.);
#1039 = EDGE_CURVE('',#1040,#1040,#1042,.T.);
#1040 = VERTEX_POINT('',#1041);
#1041 = CARTESIAN_POINT('',(6.3,-2.694222958124E-16,0.));
#1042 = SURFACE_CURVE('',#1043,(#1048,#1055),.PCURVE_S1.);
#1043 = CIRCLE('',#1044,1.1);
#1044 = AXIS2_PLACEMENT_3D('',#1045,#1046,#1047);
#1045 = CARTESIAN_POINT('',(5.2,0.,0.));
#1046 = DIRECTION('',(0.,0.,1.));
#1047 = DIRECTION('',(1.,0.,-0.));
#1048 = PCURVE('',#360,#1049);
#1049 = DEFINITIONAL_REPRESENTATION('',(#1050),#1054);
#1050 = CIRCLE('',#1051,1.1);
#1051 = AXIS2_PLACEMENT_2D('',#1052,#1053);
#1052 = CARTESIAN_POINT('',(5.2,0.));
#1053 = DIRECTION('',(1.,0.));
#1054 = ( GEOMETRIC_REPRESENTATION_CONTEXT(2) 
PARAMETRIC_REPRESENTATION_CONTEXT() REPRESENTATION_CONTEXT('2D SPACE',''
  ) );
#1055 = PCURVE('',#1056,#1061);
#1056 = CYLINDRICAL_SURFACE('',#1057,1.1);
#1057 = AXIS2_PLACEMENT_3D('',#1058,#1059,#1060);
#1058 = CARTESIAN_POINT('',(5.2,0.,-1.));
#1059 = DIRECTION('',(0.,0.,1.));
#1060 = DIRECTION('',(1.,0.,-0.));
#1061 = DEFINITIONAL_REPRESENTATION('',(#1062),#1066);
#1062 = LINE('',#1063,#1064);
#1063 = CARTESIAN_POINT('',(0.,1.));
#1064 = VECTOR('',#1065,1.);
#1065 = DIRECTION('',(1.,0.));
#1066 = ( GEOMETRIC_REPRESENTATION_CONTEXT(2) 
PARAMETRIC_REPRESENTATION_CONTEXT() REPRESENTATION_CONTEXT('2D SPACE',''
  ) );
#1067 = ADVANCED_FACE('',(#1068),#486,.F.);
#1068 = FACE_BOUND('',#1069,.F.);
#1069 = EDGE_LOOP('',(#1070,#1071,#1092,#1093));
#1070 = ORIENTED_EDGE('',*,*,#804,.F.);
#1071 = ORIENTED_EDGE('',*,*,#1072,.F.);
#1072 = EDGE_CURVE('',#375,#805,#1073,.T.);
#1073 = SEAM_CURVE('',#1074,(#1078,#1085),.PCURVE_S1.);
#1074 = LINE('',#1075,#1076);
#1075 = CARTESIAN_POINT('',(-1.836970198721E-16,-3.,4.75));
#1076 = VECTOR('',#1077,1.);
#1077 = DIRECTION('',(0.,1.,0.));
#1078 = PCURVE('',#486,#1079);
#1079 = DEFINITIONAL_REPRESENTATION('',(#1080),#1084);
#1080 = LINE('',#1081,#1082);
#1081 = CARTESIAN_POINT('',(6.28318530718,-0.));
#1082 = VECTOR('',#1083,1.);
#1083 = DIRECTION('',(0.,1.));
#1084 = ( GEOMETRIC_REPRESENTATION_CONTEXT(2) 
PARAMETRIC_REPRESENTATION_CONTEXT() REPRESENTATION_CONTEXT('2D SPACE',''
  ) );
#1085 = PCURVE('',#486,#1086);
#1086 = DEFINITIONAL_REPRESENTATION('',(#1087),#1091);
#1087 = LINE('',#1088,#1089);
#1088 = CARTESIAN_POINT('',(0.,-0.));
#1089 = VECTOR('',#1090,1.);
#1090 = DIRECTION('',(0.,1.));
#1091 = ( GEOMETRIC_REPRESENTATION_CONTEXT(2) 
PARAMETRIC_REPRESENTATION_CONTEXT() REPRESENTATION_CONTEXT('2D SPACE',''
  ) );
#1092 = ORIENTED_EDGE('',*,*,#374,.T.);
#1093 = ORIENTED_EDGE('',*,*,#1072,.T.);
#1094 = ADVANCED_FACE('',(#1095),#660,.F.);
#1095 = FACE_BOUND('',#1096,.F.);
#1096 = EDGE_LOOP('',(#1097,#1098,#1121,#1148));
#1097 = ORIENTED_EDGE('',*,*,#548,.F.);
#1098 = ORIENTED_EDGE('',*,*,#1099,.F.);
#1099 = EDGE_CURVE('',#1100,#549,#1102,.T.);
#1100 = VERTEX_POINT('',#1101);
#1101 = CARTESIAN_POINT('',(-1.836970198721E-16,-3.,4.75));
#1102 = SEAM_CURVE('',#1103,(#1107,#1114),.PCURVE_S1.);
#1103 = LINE('',#1104,#1105);
#1104 = CARTESIAN_POINT('',(-1.836970198721E-16,-3.,4.75));
#1105 = VECTOR('',#1106,1.);
#1106 = DIRECTION('',(0.,1.,0.));
#1107 = PCURVE('',#660,#1108);
#1108 = DEFINITIONAL_REPRESENTATION('',(#1109),#1113);
#1109 = LINE('',#1110,#1111);
#1110 = CARTESIAN_POINT('',(6.28318530718,-0.));
#1111 = VECTOR('',#1112,1.);
#1112 = DIRECTION('',(0.,1.));
#1113 = ( GEOMETRIC_REPRESENTATION_CONTEXT(2) 
PARAMETRIC_REPRESENTATION_CONTEXT() REPRESENTATION_CONTEXT('2D SPACE',''
  ) );
#1114 = PCURVE('',#660,#1115);
#1115 = DEFINITIONAL_REPRESENTATION('',(#1116),#1120);
#1116 = LINE('',#1117,#1118);
#1117 = CARTESIAN_POINT('',(0.,-0.));
#1118 = VECTOR('',#1119,1.);
#1119 = DIRECTION('',(0.,1.));
#1120 = ( GEOMETRIC_REPRESENTATION_CONTEXT(2) 
PARAMETRIC_REPRESENTATION_CONTEXT() REPRESENTATION_CONTEXT('2D SPACE',''
  ) );
#1121 = ORIENTED_EDGE('',*,*,#1122,.T.);
#1122 = EDGE_CURVE('',#1100,#1100,#1123,.T.);
#1123 = SURFACE_CURVE('',#1124,(#1129,#1136),.PCURVE_S1.);
#1124 = CIRCLE('',#1125,0.75);
#1125 = AXIS2_PLACEMENT_3D('',#1126,#1127,#1128);
#1126 = CARTESIAN_POINT('',(0.,-3.,4.));
#1127 = DIRECTION('',(0.,1.,0.));
#1128 = DIRECTION('',(0.,-0.,1.));
#1129 = PCURVE('',#660,#1130);
#1130 = DEFINITIONAL_REPRESENTATION('',(#1131),#1135);
#1131 = LINE('',#1132,#1133);
#1132 = CARTESIAN_POINT('',(0.,0.));
#1133 = VECTOR('',#1134,1.);
#1134 = DIRECTION('',(1.,0.));
#1135 = ( GEOMETRIC_REPRESENTATION_CONTEXT(2) 
PARAMETRIC_REPRESENTATION_CONTEXT() REPRESENTATION_CONTEXT('2D SPACE',''
  ) );
#1136 = PCURVE('',#1137,#1142);
#1137 = PLANE('',#1138);
#1138 = AXIS2_PLACEMENT_3D('',#1139,#1140,#1141);
#1139 = CARTESIAN_POINT('',(0.,-3.,4.));
#1140 = DIRECTION('',(0.,1.,0.));
#1141 = DIRECTION('',(0.,-0.,1.));
#1142 = DEFINITIONAL_REPRESENTATION('',(#1143),#1147);
#1143 = CIRCLE('',#1144,0.75);
#1144 = AXIS2_PLACEMENT_2D('',#1145,#1146);
#1145 = CARTESIAN_POINT('',(0.,0.));
#1146 = DIRECTION('',(1.,0.));
#1147 = ( GEOMETRIC_REPRESENTATION_CONTEXT(2) 
PARAMETRIC_REPRESENTATION_CONTEXT() REPRESENTATION_CONTEXT('2D SPACE',''
  ) );
#1148 = ORIENTED_EDGE('',*,*,#1099,.T.);
#1149 = ADVANCED_FACE('',(#1150,#1176,#1202,#1205),#790,.T.);
#1150 = FACE_BOUND('',#1151,.T.);
#1151 = EDGE_LOOP('',(#1152));
#1152 = ORIENTED_EDGE('',*,*,#1153,.T.);
#1153 = EDGE_CURVE('',#1154,#1154,#1156,.T.);
#1154 = VERTEX_POINT('',#1155);
#1155 = CARTESIAN_POINT('',(7.,-1.714505518806E-15,1.5));
#1156 = SURFACE_CURVE('',#1157,(#1162,#1169),.PCURVE_S1.);
#1157 = CIRCLE('',#1158,7.);
#1158 = AXIS2_PLACEMENT_3D('',#1159,#1160,#1161);
#1159 = CARTESIAN_POINT('',(0.,0.,1.5));
#1160 = DIRECTION('',(0.,0.,1.));
#1161 = DIRECTION('',(1.,0.,-0.));
#1162 = PCURVE('',#790,#1163);
#1163 = DEFINITIONAL_REPRESENTATION('',(#1164),#1168);
#1164 = CIRCLE('',#1165,7.);
#1165 = AXIS2_PLACEMENT_2D('',#1166,#1167);
#1166 = CARTESIAN_POINT('',(0.,0.));
#1167 = DIRECTION('',(1.,0.));
#1168 = ( GEOMETRIC_REPRESENTATION_CONTEXT(2) 
PARAMETRIC_REPRESENTATION_CONTEXT() REPRESENTATION_CONTEXT('2D SPACE',''
  ) );
#1169 = PCURVE('',#991,#1170);
#1170 = DEFINITIONAL_REPRESENTATION('',(#1171),#1175);
#1171 = LINE('',#1172,#1173);
#1172 = CARTESIAN_POINT('',(0.,1.5));
#1173 = VECTOR('',#1174,1.);
#1174 = DIRECTION('',(1.,0.));
#1175 = ( GEOMETRIC_REPRESENTATION_CONTEXT(2) 
PARAMETRIC_REPRESENTATION_CONTEXT() REPRESENTATION_CONTEXT('2D SPACE',''
  ) );
#1176 = FACE_BOUND('',#1177,.T.);
#1177 = EDGE_LOOP('',(#1178));
#1178 = ORIENTED_EDGE('',*,*,#1179,.F.);
#1179 = EDGE_CURVE('',#1180,#1180,#1182,.T.);
#1180 = VERTEX_POINT('',#1181);
#1181 = CARTESIAN_POINT('',(-4.1,-2.694222958124E-16,1.5));
#1182 = SURFACE_CURVE('',#1183,(#1188,#1195),.PCURVE_S1.);
#1183 = CIRCLE('',#1184,1.1);
#1184 = AXIS2_PLACEMENT_3D('',#1185,#1186,#1187);
#1185 = CARTESIAN_POINT('',(-5.2,0.,1.5));
#1186 = DIRECTION('',(0.,0.,1.));
#1187 = DIRECTION('',(1.,0.,-0.));
#1188 = PCURVE('',#790,#1189);
#1189 = DEFINITIONAL_REPRESENTATION('',(#1190),#1194);
#1190 = CIRCLE('',#1191,1.1);
#1191 = AXIS2_PLACEMENT_2D('',#1192,#1193);
#1192 = CARTESIAN_POINT('',(-5.2,0.));
#1193 = DIRECTION('',(1.,0.));
#1194 = ( GEOMETRIC_REPRESENTATION_CONTEXT(2) 
PARAMETRIC_REPRESENTATION_CONTEXT() REPRESENTATION_CONTEXT('2D SPACE',''
  ) );
#1195 = PCURVE('',#1022,#1196);
#1196 = DEFINITIONAL_REPRESENTATION('',(#1197),#1201);
#1197 = LINE('',#1198,#1199);
#1198 = CARTESIAN_POINT('',(0.,2.5));
#1199 = VECTOR('',#1200,1.);
#1200 = DIRECTION('',(1.,0.));
#1201 = ( GEOMETRIC_REPRESENTATION_CONTEXT(2) 
PARAMETRIC_REPRESENTATION_CONTEXT() REPRESENTATION_CONTEXT('2D SPACE',''
  ) );
#1202 = FACE_BOUND('',#1203,.T.);
#1203 = EDGE_LOOP('',(#1204));
#1204 = ORIENTED_EDGE('',*,*,#775,.F.);
#1205 = FACE_BOUND('',#1206,.T.);
#1206 = EDGE_LOOP('',(#1207));
#1207 = ORIENTED_EDGE('',*,*,#1208,.F.);
#1208 = EDGE_CURVE('',#1209,#1209,#1211,.T.);
#1209 = VERTEX_POINT('',#1210);
#1210 = CARTESIAN_POINT('',(6.3,-2.694222958124E-16,1.5));
#1211 = SURFACE_CURVE('',#1212,(#1217,#1224),.PCURVE_S1.);
#1212 = CIRCLE('',#1213,1.1);
#1213 = AXIS2_PLACEMENT_3D('',#1214,#1215,#1216);
#1214 = CARTESIAN_POINT('',(5.2,0.,1.5));
#1215 = DIRECTION('',(0.,0.,1.));
#1216 = DIRECTION('',(1.,0.,-0.));
#1217 = PCURVE('',#790,#1218);
#1218 = DEFINITIONAL_REPRESENTATION('',(#1219),#1223);
#1219 = CIRCLE('',#1220,1.1);
#1220 = AXIS2_PLACEMENT_2D('',#1221,#1222);
#1221 = CARTESIAN_POINT('',(5.2,0.));
#1222 = DIRECTION('',(1.,0.));
#1223 = ( GEOMETRIC_REPRESENTATION_CONTEXT(2) 
PARAMETRIC_REPRESENTATION_CONTEXT() REPRESENTATION_CONTEXT('2D SPACE',''
  ) );
#1224 = PCURVE('',#1056,#1225);
#1225 = DEFINITIONAL_REPRESENTATION('',(#1226),#1230);
#1226 = LINE('',#1227,#1228);
#1227 = CARTESIAN_POINT('',(0.,2.5));
#1228 = VECTOR('',#1229,1.);
#1229 = DIRECTION('',(1.,0.));
#1230 = ( GEOMETRIC_REPRESENTATION_CONTEXT(2) 
PARAMETRIC_REPRESENTATION_CONTEXT() REPRESENTATION_CONTEXT('2D SPACE',''
  ) );
#1231 = ADVANCED_FACE('',(#1232),#991,.T.);
#1232 = FACE_BOUND('',#1233,.T.);
#1233 = EDGE_LOOP('',(#1234,#1235,#1256,#1257));
#1234 = ORIENTED_EDGE('',*,*,#1153,.F.);
#1235 = ORIENTED_EDGE('',*,*,#1236,.F.);
#1236 = EDGE_CURVE('',#975,#1154,#1237,.T.);
#1237 = SEAM_CURVE('',#1238,(#1242,#1249),.PCURVE_S1.);
#1238 = LINE('',#1239,#1240);
#1239 = CARTESIAN_POINT('',(7.,-1.714505518806E-15,0.));
#1240 = VECTOR('',#1241,1.);
#1241 = DIRECTION('',(0.,0.,1.));
#1242 = PCURVE('',#991,#1243);
#1243 = DEFINITIONAL_REPRESENTATION('',(#1244),#1248);
#1244 = LINE('',#1245,#1246);
#1245 = CARTESIAN_POINT('',(6.28318530718,-0.));
#1246 = VECTOR('',#1247,1.);
#1247 = DIRECTION('',(0.,1.));
#1248 = ( GEOMETRIC_REPRESENTATION_CONTEXT(2) 
PARAMETRIC_REPRESENTATION_CONTEXT() REPRESENTATION_CONTEXT('2D SPACE',''
  ) );
#1249 = PCURVE('',#991,#1250);
#1250 = DEFINITIONAL_REPRESENTATION('',(#1251),#1255);
#1251 = LINE('',#1252,#1253);
#1252 = CARTESIAN_POINT('',(0.,-0.));
#1253 = VECTOR('',#1254,1.);
#1254 = DIRECTION('',(0.,1.));
#1255 = ( GEOMETRIC_REPRESENTATION_CONTEXT(2) 
PARAMETRIC_REPRESENTATION_CONTEXT() REPRESENTATION_CONTEXT('2D SPACE',''
  ) );
#1256 = ORIENTED_EDGE('',*,*,#974,.T.);
#1257 = ORIENTED_EDGE('',*,*,#1236,.T.);
#1258 = ADVANCED_FACE('',(#1259),#1022,.F.);
#1259 = FACE_BOUND('',#1260,.F.);
#1260 = EDGE_LOOP('',(#1261,#1262,#1283,#1284));
#1261 = ORIENTED_EDGE('',*,*,#1179,.F.);
#1262 = ORIENTED_EDGE('',*,*,#1263,.F.);
#1263 = EDGE_CURVE('',#1006,#1180,#1264,.T.);
#1264 = SEAM_CURVE('',#1265,(#1269,#1276),.PCURVE_S1.);
#1265 = LINE('',#1266,#1267);
#1266 = CARTESIAN_POINT('',(-4.1,-2.694222958124E-16,-1.));
#1267 = VECTOR('',#1268,1.);
#1268 = DIRECTION('',(0.,0.,1.));
#1269 = PCURVE('',#1022,#1270);
#1270 = DEFINITIONAL_REPRESENTATION('',(#1271),#1275);
#1271 = LINE('',#1272,#1273);
#1272 = CARTESIAN_POINT('',(6.28318530718,-0.));
#1273 = VECTOR('',#1274,1.);
#1274 = DIRECTION('',(0.,1.));
#1275 = ( GEOMETRIC_REPRESENTATION_CONTEXT(2) 
PARAMETRIC_REPRESENTATION_CONTEXT() REPRESENTATION_CONTEXT('2D SPACE',''
  ) );
#1276 = PCURVE('',#1022,#1277);
#1277 = DEFINITIONAL_REPRESENTATION('',(#1278),#1282);
#1278 = LINE('',#1279,#1280);
#1279 = CARTESIAN_POINT('',(0.,-0.));
#1280 = VECTOR('',#1281,1.);
#1281 = DIRECTION('',(0.,1.));
#1282 = ( GEOMETRIC_REPRESENTATION_CONTEXT(2) 
PARAMETRIC_REPRESENTATION_CONTEXT() REPRESENTATION_CONTEXT('2D SPACE',''
  ) );
#1283 = ORIENTED_EDGE('',*,*,#1005,.T.);
#1284 = ORIENTED_EDGE('',*,*,#1263,.T.);
#1285 = ADVANCED_FACE('',(#1286),#1056,.F.);
#1286 = FACE_BOUND('',#1287,.F.);
#1287 = EDGE_LOOP('',(#1288,#1289,#1310,#1311));
#1288 = ORIENTED_EDGE('',*,*,#1208,.F.);
#1289 = ORIENTED_EDGE('',*,*,#1290,.F.);
#1290 = EDGE_CURVE('',#1040,#1209,#1291,.T.);
#1291 = SEAM_CURVE('',#1292,(#1296,#1303),.PCURVE_S1.);
#1292 = LINE('',#1293,#1294);
#1293 = CARTESIAN_POINT('',(6.3,-2.694222958124E-16,-1.));
#1294 = VECTOR('',#1295,1.);
#1295 = DIRECTION('',(0.,0.,1.));
#1296 = PCURVE('',#1056,#1297);
#1297 = DEFINITIONAL_REPRESENTATION('',(#1298),#1302);
#1298 = LINE('',#1299,#1300);
#1299 = CARTESIAN_POINT('',(6.28318530718,-0.));
#1300 = VECTOR('',#1301,1.);
#1301 = DIRECTION('',(0.,1.));
#1302 = ( GEOMETRIC_REPRESENTATION_CONTEXT(2) 
PARAMETRIC_REPRESENTATION_CONTEXT() REPRESENTATION_CONTEXT('2D SPACE',''
  ) );
#1303 = PCURVE('',#1056,#1304);
#1304 = DEFINITIONAL_REPRESENTATION('',(#1305),#1309);
#1305 = LINE('',#1306,#1307);
#1306 = CARTESIAN_POINT('',(0.,-0.));
#1307 = VECTOR('',#1308,1.);
#1308 = DIRECTION('',(0.,1.));
#1309 = ( GEOMETRIC_REPRESENTATION_CONTEXT(2) 
PARAMETRIC_REPRESENTATION_CONTEXT() REPRESENTATION_CONTEXT('2D SPACE',''
  ) );
#1310 = ORIENTED_EDGE('',*,*,#1039,.T.);
#1311 = ORIENTED_EDGE('',*,*,#1290,.T.);
#1312 = ADVANCED_FACE('',(#1313),#1137,.T.);
#1313 = FACE_BOUND('',#1314,.F.);
#1314 = EDGE_LOOP('',(#1315));
#1315 = ORIENTED_EDGE('',*,*,#1122,.F.);
#1316 = ( GEOMETRIC_REPRESENTATION_CONTEXT(3) 
GLOBAL_UNCERTAINTY_ASSIGNED_CONTEXT((#1320)) 
GLOBAL_UNIT_ASSIGNED_CONTEXT((#1317,#1318,#1319)) REPRESENTATION_CONTEXT
('Context #1','3D Context with UNIT and UNCERTAINTY') );
#1317 = ( LENGTH_UNIT() NAMED_UNIT(*) SI_UNIT(.MILLI.,.METRE.) );
#1318 = ( NAMED_UNIT(*) PLANE_ANGLE_UNIT() SI_UNIT($,.RADIAN.) );
#1319 = ( NAMED_UNIT(*) SI_UNIT($,.STERADIAN.) SOLID_ANGLE_UNIT() );
#1320 = UNCERTAINTY_MEASURE_WITH_UNIT(LENGTH_MEASURE(1.E-07),#1317,
  'distance_accuracy_value','confusion accuracy');
#1321 = PRODUCT_RELATED_PRODUCT_CATEGORY('part',$,(#7));
ENDSEC;
END-ISO-10303-21;
