ISO-10303-21;
HEADER;
FILE_DESCRIPTION(('FreeCAD Model'),'2;1');
FILE_NAME('Open CASCADE Shape Model','2026-10-03T21:31:01',('FreeCAD'),(
    'FreeCAD'),'Open CASCADE STEP processor 7.5','FreeCAD','Unknown');
FILE_SCHEMA(('AUTOMOTIVE_DESIGN { 1 0 10303 214 1 1 1 1 }'));
ENDSEC;
DATA;
#1 = APPLICATION_PROTOCOL_DEFINITION('international standard',
  'automotive_design',2000,#2);
#2 = APPLICATION_CONTEXT(
  'core data for automotive mechanical design processes');
#3 = SHAPE_DEFINITION_REPRESENTATION(#4,#10);
#4 = PRODUCT_DEFINITION_SHAPE('','',#5);
#5 = PRODUCT_DEFINITION('design','',#6,#9);
#6 = PRODUCT_DEFINITION_FORMATION('','',#7);
#7 = PRODUCT('Open CASCADE STEP translator 7.5 10',
  'Open CASCADE STEP translator 7.5 10','',(#8));
#8 = PRODUCT_CONTEXT('',#2,'mechanical');
#9 = PRODUCT_DEFINITION_CONTEXT('part definition',#2,'design');
#10 = ADVANCED_BREP_SHAPE_REPRESENTATION('',(#11,#15),#650);
#11 = AXIS2_PLACEMENT_3D('',#12,#13,#14);
#12 = CARTESIAN_POINT('',(0.,0.,0.));
#13 = DIRECTION('',(0.,0.,1.));
#14 = DIRECTION('',(1.,0.,-0.));
#15 = MANIFOLD_SOLID_BREP('',#16);
#16 = CLOSED_SHELL('',(#17,#434,#469,#497,#501,#556,#591,#646));
#17 = ADVANCED_FACE('',(#18,#292),#31,.T.);
#18 = FACE_BOUND('',#19,.T.);
#19 = EDGE_LOOP('',(#20,#54,#77,#162,#185,#212,#213,#291));
#20 = ORIENTED_EDGE('',*,*,#21,.T.);
#21 = EDGE_CURVE('',#22,#22,#24,.T.);
#22 = VERTEX_POINT('',#23);
#23 = CARTESIAN_POINT('',(-34.,16.7,-2.45));
#24 = SURFACE_CURVE('',#25,(#30,#42),.PCURVE_S1.);
#25 = CIRCLE('',#26,2.45);
#26 = AXIS2_PLACEMENT_3D('',#27,#28,#29);
#27 = CARTESIAN_POINT('',(-34.,16.7,0.));
#28 = DIRECTION('',(-1.,0.,0.));
#29 = DIRECTION('',(0.,0.,-1.));
#30 = PCURVE('',#31,#36);
#31 = CYLINDRICAL_SURFACE('',#32,2.45);
#32 = AXIS2_PLACEMENT_3D('',#33,#34,#35);
#33 = CARTESIAN_POINT('',(-17.85,16.7,0.));
#34 = DIRECTION('',(-1.,0.,0.));
#35 = DIRECTION('',(0.,0.,-1.));
#36 = DEFINITIONAL_REPRESENTATION('',(#37),#41);
#37 = LINE('',#38,#39);
#38 = CARTESIAN_POINT('',(0.,16.15));
#39 = VECTOR('',#40,1.);
#40 = DIRECTION('',(1.,0.));
#41 = ( GEOMETRIC_REPRESENTATION_CONTEXT(2) 
PARAMETRIC_REPRESENTATION_CONTEXT() REPRESENTATION_CONTEXT('2D SPACE',''
  ) );
#42 = PCURVE('',#43,#48);
#43 = PLANE('',#44);
#44 = AXIS2_PLACEMENT_3D('',#45,#46,#47);
#45 = CARTESIAN_POINT('',(-34.,16.7,0.));
#46 = DIRECTION('',(-1.,0.,0.));
#47 = DIRECTION('',(0.,0.,-1.));
#48 = DEFINITIONAL_REPRESENTATION('',(#49),#53);
#49 = CIRCLE('',#50,2.45);
#50 = AXIS2_PLACEMENT_2D('',#51,#52);
#51 = CARTESIAN_POINT('',(0.,0.));
#52 = DIRECTION('',(1.,0.));
#53 = ( GEOMETRIC_REPRESENTATION_CONTEXT(2) 
PARAMETRIC_REPRESENTATION_CONTEXT() REPRESENTATION_CONTEXT('2D SPACE',''
  ) );
#54 = ORIENTED_EDGE('',*,*,#55,.T.);
#55 = EDGE_CURVE('',#22,#56,#58,.T.);
#56 = VERTEX_POINT('',#57);
#57 = CARTESIAN_POINT('',(-35.75,16.7,-2.45));
#58 = SEAM_CURVE('',#59,(#63,#70),.PCURVE_S1.);
#59 = LINE('',#60,#61);
#60 = CARTESIAN_POINT('',(-17.85,16.7,-2.45));
#61 = VECTOR('',#62,1.);
#62 = DIRECTION('',(-1.,0.,0.));
#63 = PCURVE('',#31,#64);
#64 = DEFINITIONAL_REPRESENTATION('',(#65),#69);
#65 = LINE('',#66,#67);
#66 = CARTESIAN_POINT('',(0.,-0.));
#67 = VECTOR('',#68,1.);
#68 = DIRECTION('',(0.,1.));
#69 = ( GEOMETRIC_REPRESENTATION_CONTEXT(2) 
PARAMETRIC_REPRESENTATION_CONTEXT() REPRESENTATION_CONTEXT('2D SPACE',''
  ) );
#70 = PCURVE('',#31,#71);
#71 = DEFINITIONAL_REPRESENTATION('',(#72),#76);
#72 = LINE('',#73,#74);
#73 = CARTESIAN_POINT('',(6.28318530718,-0.));
#74 = VECTOR('',#75,1.);
#75 = DIRECTION('',(0.,1.));
#76 = ( GEOMETRIC_REPRESENTATION_CONTEXT(2) 
PARAMETRIC_REPRESENTATION_CONTEXT() REPRESENTATION_CONTEXT('2D SPACE',''
  ) );
#77 = ORIENTED_EDGE('',*,*,#78,.T.);
#78 = EDGE_CURVE('',#56,#79,#81,.T.);
#79 = VERTEX_POINT('',#80);
#80 = CARTESIAN_POINT('',(-37.25,16.7,-2.45));
#81 = SURFACE_CURVE('',#82,(#105,#131),.PCURVE_S1.);
#82 = B_SPLINE_CURVE_WITH_KNOTS('',6,(#83,#84,#85,#86,#87,#88,#89,#90,
    #91,#92,#93,#94,#95,#96,#97,#98,#99,#100,#101,#102,#103,#104),
  .UNSPECIFIED.,.F.,.F.,(7,5,5,5,7),(0.,0.239499518513,0.500003799736,
    0.760515896122,1.),.UNSPECIFIED.);
#83 = CARTESIAN_POINT('',(-35.75,16.7,-2.45));
#84 = CARTESIAN_POINT('',(-35.75000001015,16.80155567987,-2.449999998446
    ));
#85 = CARTESIAN_POINT('',(-35.766501834,16.902079168505,-2.444948560859)
  );
#86 = CARTESIAN_POINT('',(-35.79887518477,16.998103239538,-2.43503787341
    ));
#87 = CARTESIAN_POINT('',(-35.84547643677,17.086412580729,
    -2.421527964371));
#88 = CARTESIAN_POINT('',(-35.90365213611,17.164312307896,
    -2.406550784634));
#89 = CARTESIAN_POINT('',(-36.04147763176,17.302137803546,
    -2.375992401912));
#90 = CARTESIAN_POINT('',(-36.12348390764,17.36080847836,-2.360270276636
    ));
#91 = CARTESIAN_POINT('',(-36.212834295,17.405282339957,-2.346760913094)
  );
#92 = CARTESIAN_POINT('',(-36.30694746404,17.435083111081,
    -2.337177236588));
#93 = CARTESIAN_POINT('',(-36.40344269576,17.45,-2.332380757938));
#94 = CARTESIAN_POINT('',(-36.59656020096,17.45,-2.332380757938));
#95 = CARTESIAN_POINT('',(-36.69305512225,17.435082277731,
    -2.337177476604));
#96 = CARTESIAN_POINT('',(-36.78716681327,17.405281414173,
    -2.346761246754));
#97 = CARTESIAN_POINT('',(-36.87651562699,17.360808369815,
    -2.360270212679));
#98 = CARTESIAN_POINT('',(-36.95852142777,17.302138744006,
    -2.375992193396));
#99 = CARTESIAN_POINT('',(-37.09634249904,17.164317672731,
    -2.406549595154));
#100 = CARTESIAN_POINT('',(-37.15452256934,17.086416788074,
    -2.421527393581));
#101 = CARTESIAN_POINT('',(-37.20112845445,16.998100242864,
    -2.435038959753));
#102 = CARTESIAN_POINT('',(-37.23350154861,16.902068972388,
    -2.444949606156));
#103 = CARTESIAN_POINT('',(-37.25,16.801545177324,-2.45));
#104 = CARTESIAN_POINT('',(-37.25,16.7,-2.45));
#105 = PCURVE('',#31,#106);
#106 = DEFINITIONAL_REPRESENTATION('',(#107),#130);
#107 = B_SPLINE_CURVE_WITH_KNOTS('',6,(#108,#109,#110,#111,#112,#113,
    #114,#115,#116,#117,#118,#119,#120,#121,#122,#123,#124,#125,#126,
    #127,#128,#129),.UNSPECIFIED.,.F.,.F.,(7,5,5,5,7),(0.,0.239499518513
    ,0.500003799736,0.760515896122,1.),.UNSPECIFIED.);
#108 = CARTESIAN_POINT('',(6.28318530718,17.9));
#109 = CARTESIAN_POINT('',(6.241734009273,17.900000010274));
#110 = CARTESIAN_POINT('',(6.200703742468,17.91650183376));
#111 = CARTESIAN_POINT('',(6.161383487864,17.948875185002));
#112 = CARTESIAN_POINT('',(6.124962806142,17.995476436693));
#113 = CARTESIAN_POINT('',(6.092597383541,18.053652136117));
#114 = CARTESIAN_POINT('',(6.03497594449,18.191477631766));
#115 = CARTESIAN_POINT('',(6.010207748134,18.273483907643));
#116 = CARTESIAN_POINT('',(5.991241612304,18.362834295002));
#117 = CARTESIAN_POINT('',(5.978463355031,18.456947464045));
#118 = CARTESIAN_POINT('',(5.972068048282,18.553442695767));
#119 = CARTESIAN_POINT('',(5.972068048282,18.746560200964));
#120 = CARTESIAN_POINT('',(5.978463676115,18.843055122255));
#121 = CARTESIAN_POINT('',(5.991242056155,18.937166813276));
#122 = CARTESIAN_POINT('',(6.01020776562,19.026515626994));
#123 = CARTESIAN_POINT('',(6.034975551307,19.108521427774));
#124 = CARTESIAN_POINT('',(6.092595140636,19.246342499049));
#125 = CARTESIAN_POINT('',(6.12496108309,19.30452256934));
#126 = CARTESIAN_POINT('',(6.161384757375,19.351128454457));
#127 = CARTESIAN_POINT('',(6.200707904081,19.383501548614));
#128 = CARTESIAN_POINT('',(6.241738296027,19.4));
#129 = CARTESIAN_POINT('',(6.28318530718,19.4));
#130 = ( GEOMETRIC_REPRESENTATION_CONTEXT(2) 
PARAMETRIC_REPRESENTATION_CONTEXT() REPRESENTATION_CONTEXT('2D SPACE',''
  ) );
#131 = PCURVE('',#132,#137);
#132 = CYLINDRICAL_SURFACE('',#133,0.75);
#133 = AXIS2_PLACEMENT_3D('',#134,#135,#136);
#134 = CARTESIAN_POINT('',(-36.5,16.7,-6.));
#135 = DIRECTION('',(0.,0.,1.));
#136 = DIRECTION('',(1.,0.,-0.));
#137 = DEFINITIONAL_REPRESENTATION('',(#138),#161);
#138 = B_SPLINE_CURVE_WITH_KNOTS('',6,(#139,#140,#141,#142,#143,#144,
    #145,#146,#147,#148,#149,#150,#151,#152,#153,#154,#155,#156,#157,
    #158,#159,#160),.UNSPECIFIED.,.F.,.F.,(7,5,5,5,7),(0.,0.239499518513
    ,0.500003799736,0.760515896122,1.),.UNSPECIFIED.);
#139 = CARTESIAN_POINT('',(0.,3.55));
#140 = CARTESIAN_POINT('',(0.135407573161,3.550000001554));
#141 = CARTESIAN_POINT('',(0.269437175304,3.555051439141));
#142 = CARTESIAN_POINT('',(0.401946512907,3.56496212659));
#143 = CARTESIAN_POINT('',(0.532622476176,3.578472035629));
#144 = CARTESIAN_POINT('',(0.660913847403,3.593449215366));
#145 = CARTESIAN_POINT('',(0.92080009432,3.624007598088));
#146 = CARTESIAN_POINT('',(1.053432152671,3.639729723364));
#147 = CARTESIAN_POINT('',(1.1840686666,3.653239086906));
#148 = CARTESIAN_POINT('',(1.313392768189,3.662822763412));
#149 = CARTESIAN_POINT('',(1.442053254485,3.667619242062));
#150 = CARTESIAN_POINT('',(1.699543261414,3.667619242062));
#151 = CARTESIAN_POINT('',(1.828203367473,3.662822523396));
#152 = CARTESIAN_POINT('',(1.957525716214,3.653238753246));
#153 = CARTESIAN_POINT('',(2.088160184481,3.639729787321));
#154 = CARTESIAN_POINT('',(2.220790785922,3.624007806604));
#155 = CARTESIAN_POINT('',(2.480668690158,3.593450404846));
#156 = CARTESIAN_POINT('',(2.608965269232,3.578472606419));
#157 = CARTESIAN_POINT('',(2.739651550807,3.564961040247));
#158 = CARTESIAN_POINT('',(2.872169054674,3.555050393844));
#159 = CARTESIAN_POINT('',(3.006199083825,3.55));
#160 = CARTESIAN_POINT('',(3.14159265359,3.55));
#161 = ( GEOMETRIC_REPRESENTATION_CONTEXT(2) 
PARAMETRIC_REPRESENTATION_CONTEXT() REPRESENTATION_CONTEXT('2D SPACE',''
  ) );
#162 = ORIENTED_EDGE('',*,*,#163,.T.);
#163 = EDGE_CURVE('',#79,#164,#166,.T.);
#164 = VERTEX_POINT('',#165);
#165 = CARTESIAN_POINT('',(-37.5,16.7,-2.45));
#166 = SEAM_CURVE('',#167,(#171,#178),.PCURVE_S1.);
#167 = LINE('',#168,#169);
#168 = CARTESIAN_POINT('',(-17.85,16.7,-2.45));
#169 = VECTOR('',#170,1.);
#170 = DIRECTION('',(-1.,0.,0.));
#171 = PCURVE('',#31,#172);
#172 = DEFINITIONAL_REPRESENTATION('',(#173),#177);
#173 = LINE('',#174,#175);
#174 = CARTESIAN_POINT('',(0.,-0.));
#175 = VECTOR('',#176,1.);
#176 = DIRECTION('',(0.,1.));
#177 = ( GEOMETRIC_REPRESENTATION_CONTEXT(2) 
PARAMETRIC_REPRESENTATION_CONTEXT() REPRESENTATION_CONTEXT('2D SPACE',''
  ) );
#178 = PCURVE('',#31,#179);
#179 = DEFINITIONAL_REPRESENTATION('',(#180),#184);
#180 = LINE('',#181,#182);
#181 = CARTESIAN_POINT('',(6.28318530718,-0.));
#182 = VECTOR('',#183,1.);
#183 = DIRECTION('',(0.,1.));
#184 = ( GEOMETRIC_REPRESENTATION_CONTEXT(2) 
PARAMETRIC_REPRESENTATION_CONTEXT() REPRESENTATION_CONTEXT('2D SPACE',''
  ) );
#185 = ORIENTED_EDGE('',*,*,#186,.F.);
#186 = EDGE_CURVE('',#164,#164,#187,.T.);
#187 = SURFACE_CURVE('',#188,(#193,#200),.PCURVE_S1.);
#188 = CIRCLE('',#189,2.45);
#189 = AXIS2_PLACEMENT_3D('',#190,#191,#192);
#190 = CARTESIAN_POINT('',(-37.5,16.7,0.));
#191 = DIRECTION('',(-1.,0.,0.));
#192 = DIRECTION('',(0.,0.,-1.));
#193 = PCURVE('',#31,#194);
#194 = DEFINITIONAL_REPRESENTATION('',(#195),#199);
#195 = LINE('',#196,#197);
#196 = CARTESIAN_POINT('',(0.,19.65));
#197 = VECTOR('',#198,1.);
#198 = DIRECTION('',(1.,0.));
#199 = ( GEOMETRIC_REPRESENTATION_CONTEXT(2) 
PARAMETRIC_REPRESENTATION_CONTEXT() REPRESENTATION_CONTEXT('2D SPACE',''
  ) );
#200 = PCURVE('',#201,#206);
#201 = PLANE('',#202);
#202 = AXIS2_PLACEMENT_3D('',#203,#204,#205);
#203 = CARTESIAN_POINT('',(-37.5,16.7,0.));
#204 = DIRECTION('',(-1.,0.,0.));
#205 = DIRECTION('',(0.,0.,-1.));
#206 = DEFINITIONAL_REPRESENTATION('',(#207),#211);
#207 = CIRCLE('',#208,2.45);
#208 = AXIS2_PLACEMENT_2D('',#209,#210);
#209 = CARTESIAN_POINT('',(0.,0.));
#210 = DIRECTION('',(1.,0.));
#211 = ( GEOMETRIC_REPRESENTATION_CONTEXT(2) 
PARAMETRIC_REPRESENTATION_CONTEXT() REPRESENTATION_CONTEXT('2D SPACE',''
  ) );
#212 = ORIENTED_EDGE('',*,*,#163,.F.);
#213 = ORIENTED_EDGE('',*,*,#214,.T.);
#214 = EDGE_CURVE('',#79,#56,#215,.T.);
#215 = SURFACE_CURVE('',#216,(#239,#265),.PCURVE_S1.);
#216 = B_SPLINE_CURVE_WITH_KNOTS('',6,(#217,#218,#219,#220,#221,#222,
    #223,#224,#225,#226,#227,#228,#229,#230,#231,#232,#233,#234,#235,
    #236,#237,#238),.UNSPECIFIED.,.F.,.F.,(7,5,5,5,7),(0.,0.239502526598
    ,0.50001209599,0.760524311055,1.),.UNSPECIFIED.);
#217 = CARTESIAN_POINT('',(-37.25,16.7,-2.45));
#218 = CARTESIAN_POINT('',(-37.25,16.598444354161,-2.45));
#219 = CARTESIAN_POINT('',(-37.23349815251,16.497920795472,
    -2.444948559887));
#220 = CARTESIAN_POINT('',(-37.20112481658,16.40189675808,
    -2.435037871119));
#221 = CARTESIAN_POINT('',(-37.15452356359,16.313587426926,
    -2.421527965658));
#222 = CARTESIAN_POINT('',(-37.0963478681,16.235687696325,-2.40655078557
    ));
#223 = CARTESIAN_POINT('',(-36.95852180786,16.097861636088,
    -2.375992277669));
#224 = CARTESIAN_POINT('',(-36.87651582395,16.039191593639,
    -2.360270236424));
#225 = CARTESIAN_POINT('',(-36.7871663272,15.994718154517,
    -2.346761105955));
#226 = CARTESIAN_POINT('',(-36.69305394286,15.964917416438,
    -2.337177380065));
#227 = CARTESIAN_POINT('',(-36.59655922033,15.95,-2.332380757938));
#228 = CARTESIAN_POINT('',(-36.40343979903,15.95,-2.332380757938));
#229 = CARTESIAN_POINT('',(-36.30694487774,15.964917722269,
    -2.337177476604));
#230 = CARTESIAN_POINT('',(-36.21283318672,15.994718585827,
    -2.346761246754));
#231 = CARTESIAN_POINT('',(-36.123484373,16.039191630186,-2.360270212679
    ));
#232 = CARTESIAN_POINT('',(-36.04147857222,16.097861255994,
    -2.375992193396));
#233 = CARTESIAN_POINT('',(-35.90365985055,16.23567997767,
    -2.406549074205));
#234 = CARTESIAN_POINT('',(-35.84547688982,16.313582363456,
    -2.421527365955));
#235 = CARTESIAN_POINT('',(-35.79886931145,16.401902715129,
    -2.43503966077));
#236 = CARTESIAN_POINT('',(-35.76649633817,16.497937385153,
    -2.444950240262));
#237 = CARTESIAN_POINT('',(-35.75000001015,16.598461233556,
    -2.449999998446));
#238 = CARTESIAN_POINT('',(-35.75,16.7,-2.45));
#239 = PCURVE('',#31,#240);
#240 = DEFINITIONAL_REPRESENTATION('',(#241),#264);
#241 = B_SPLINE_CURVE_WITH_KNOTS('',6,(#242,#243,#244,#245,#246,#247,
    #248,#249,#250,#251,#252,#253,#254,#255,#256,#257,#258,#259,#260,
    #261,#262,#263),.UNSPECIFIED.,.F.,.F.,(7,5,5,5,7),(0.,0.239502526598
    ,0.50001209599,0.760524311055,1.),.UNSPECIFIED.);
#242 = CARTESIAN_POINT('',(0.,19.4));
#243 = CARTESIAN_POINT('',(4.145128401607E-02,19.4));
#244 = CARTESIAN_POINT('',(8.248157936781E-02,19.383498152515));
#245 = CARTESIAN_POINT('',(0.1218018204,19.351124816582));
#246 = CARTESIAN_POINT('',(0.158222497872,19.30452356359));
#247 = CARTESIAN_POINT('',(0.190587921873,19.246347868105));
#248 = CARTESIAN_POINT('',(0.248209596965,19.108521807867));
#249 = CARTESIAN_POINT('',(0.272977551894,19.026515823951));
#250 = CARTESIAN_POINT('',(0.29194343962,18.937166327208));
#251 = CARTESIAN_POINT('',(0.304721759389,18.84305394286));
#252 = CARTESIAN_POINT('',(0.311117258898,18.746559220332));
#253 = CARTESIAN_POINT('',(0.311117258898,18.553439799036));
#254 = CARTESIAN_POINT('',(0.304721631064,18.456944877745));
#255 = CARTESIAN_POINT('',(0.291943251025,18.362833186724));
#256 = CARTESIAN_POINT('',(0.27297754156,18.273484373006));
#257 = CARTESIAN_POINT('',(0.248209755873,18.191478572226));
#258 = CARTESIAN_POINT('',(0.190591148853,18.053659850551));
#259 = CARTESIAN_POINT('',(0.15822456254,17.995476889742));
#260 = CARTESIAN_POINT('',(0.121799319417,17.948869311685));
#261 = CARTESIAN_POINT('',(8.247480501493E-02,17.916496337924));
#262 = CARTESIAN_POINT('',(4.144439446678E-02,17.900000010272));
#263 = CARTESIAN_POINT('',(0.,17.9));
#264 = ( GEOMETRIC_REPRESENTATION_CONTEXT(2) 
PARAMETRIC_REPRESENTATION_CONTEXT() REPRESENTATION_CONTEXT('2D SPACE',''
  ) );
#265 = PCURVE('',#132,#266);
#266 = DEFINITIONAL_REPRESENTATION('',(#267),#290);
#267 = B_SPLINE_CURVE_WITH_KNOTS('',6,(#268,#269,#270,#271,#272,#273,
    #274,#275,#276,#277,#278,#279,#280,#281,#282,#283,#284,#285,#286,
    #287,#288,#289),.UNSPECIFIED.,.F.,.F.,(7,5,5,5,7),(0.,0.239502526598
    ,0.50001209599,0.760524311055,1.),.UNSPECIFIED.);
#268 = CARTESIAN_POINT('',(3.14159265359,3.55));
#269 = CARTESIAN_POINT('',(3.277000181376,3.55));
#270 = CARTESIAN_POINT('',(3.411029875188,3.555051440113));
#271 = CARTESIAN_POINT('',(3.543539173693,3.564962128881));
#272 = CARTESIAN_POINT('',(3.674215118619,3.578472034342));
#273 = CARTESIAN_POINT('',(3.802506493032,3.59344921443));
#274 = CARTESIAN_POINT('',(4.062393804547,3.624007722331));
#275 = CARTESIAN_POINT('',(4.195024980978,3.639729763576));
#276 = CARTESIAN_POINT('',(4.325660359978,3.653238894045));
#277 = CARTESIAN_POINT('',(4.454983513468,3.662822619935));
#278 = CARTESIAN_POINT('',(4.583643353275,3.667619242062));
#279 = CARTESIAN_POINT('',(4.841135915004,3.667619242062));
#280 = CARTESIAN_POINT('',(4.969796021063,3.662822523396));
#281 = CARTESIAN_POINT('',(5.099118369804,3.653238753246));
#282 = CARTESIAN_POINT('',(5.229752838071,3.639729787321));
#283 = CARTESIAN_POINT('',(5.362383439512,3.624007806604));
#284 = CARTESIAN_POINT('',(5.622256913301,3.593450925795));
#285 = CARTESIAN_POINT('',(5.750557583068,3.578472634045));
#286 = CARTESIAN_POINT('',(5.881248898691,3.56496033923));
#287 = CARTESIAN_POINT('',(6.013770183592,3.555049759738));
#288 = CARTESIAN_POINT('',(6.147800285255,3.550000001554));
#289 = CARTESIAN_POINT('',(6.28318530718,3.55));
#290 = ( GEOMETRIC_REPRESENTATION_CONTEXT(2) 
PARAMETRIC_REPRESENTATION_CONTEXT() REPRESENTATION_CONTEXT('2D SPACE',''
  ) );
#291 = ORIENTED_EDGE('',*,*,#55,.F.);
#292 = FACE_BOUND('',#293,.T.);
#293 = EDGE_LOOP('',(#294));
#294 = ORIENTED_EDGE('',*,*,#295,.F.);
#295 = EDGE_CURVE('',#296,#296,#298,.T.);
#296 = VERTEX_POINT('',#297);
#297 = CARTESIAN_POINT('',(-35.75,16.7,2.45));
#298 = SURFACE_CURVE('',#299,(#342,#388),.PCURVE_S1.);
#299 = B_SPLINE_CURVE_WITH_KNOTS('',6,(#300,#301,#302,#303,#304,#305,
    #306,#307,#308,#309,#310,#311,#312,#313,#314,#315,#316,#317,#318,
    #319,#320,#321,#322,#323,#324,#325,#326,#327,#328,#329,#330,#331,
    #332,#333,#334,#335,#336,#337,#338,#339,#340,#341),.UNSPECIFIED.,.T.
  ,.F.,(7,5,5,5,5,5,5,5,7),(0.,0.119748192741,0.249998629449,
    0.380252973688,0.499993459212,0.619746289046,0.75000277768,
    0.880260589168,1.),.UNSPECIFIED.);
#300 = CARTESIAN_POINT('',(-35.75,16.7,2.45));
#301 = CARTESIAN_POINT('',(-35.75000001015,16.80155567987,2.449999998446
    ));
#302 = CARTESIAN_POINT('',(-35.766501834,16.902079168505,2.444948560859)
  );
#303 = CARTESIAN_POINT('',(-35.79887518477,16.998103239538,2.43503787341
    ));
#304 = CARTESIAN_POINT('',(-35.84547643677,17.086412580729,
    2.421527964371));
#305 = CARTESIAN_POINT('',(-35.90365213611,17.164312307896,
    2.406550784634));
#306 = CARTESIAN_POINT('',(-36.04147763176,17.302137803546,
    2.375992401912));
#307 = CARTESIAN_POINT('',(-36.12348390764,17.36080847836,2.360270276636
    ));
#308 = CARTESIAN_POINT('',(-36.212834295,17.405282339957,2.346760913094)
  );
#309 = CARTESIAN_POINT('',(-36.30694746404,17.435083111081,
    2.337177236588));
#310 = CARTESIAN_POINT('',(-36.40344269576,17.45,2.332380757938));
#311 = CARTESIAN_POINT('',(-36.59656020096,17.45,2.332380757938));
#312 = CARTESIAN_POINT('',(-36.69305512225,17.435082277731,
    2.337177476604));
#313 = CARTESIAN_POINT('',(-36.78716681327,17.405281414173,
    2.346761246754));
#314 = CARTESIAN_POINT('',(-36.87651562699,17.360808369814,
    2.360270212679));
#315 = CARTESIAN_POINT('',(-36.95852142777,17.302138744006,
    2.375992193396));
#316 = CARTESIAN_POINT('',(-37.09634249904,17.164317672731,
    2.406549595154));
#317 = CARTESIAN_POINT('',(-37.15452256934,17.086416788074,
    2.421527393581));
#318 = CARTESIAN_POINT('',(-37.20112845445,16.998100242864,
    2.435038959753));
#319 = CARTESIAN_POINT('',(-37.23350154861,16.902068972388,
    2.444949606156));
#320 = CARTESIAN_POINT('',(-37.25,16.801545177324,2.45));
#321 = CARTESIAN_POINT('',(-37.25,16.598444354161,2.45));
#322 = CARTESIAN_POINT('',(-37.23349815251,16.497920795472,
    2.444948559887));
#323 = CARTESIAN_POINT('',(-37.20112481658,16.40189675808,2.435037871119
    ));
#324 = CARTESIAN_POINT('',(-37.15452356359,16.313587426926,
    2.421527965658));
#325 = CARTESIAN_POINT('',(-37.0963478681,16.235687696325,2.40655078557)
  );
#326 = CARTESIAN_POINT('',(-36.95852180786,16.097861636088,
    2.375992277669));
#327 = CARTESIAN_POINT('',(-36.87651582395,16.039191593639,
    2.360270236424));
#328 = CARTESIAN_POINT('',(-36.7871663272,15.994718154517,2.346761105955
    ));
#329 = CARTESIAN_POINT('',(-36.69305394286,15.964917416438,
    2.337177380065));
#330 = CARTESIAN_POINT('',(-36.59655922033,15.95,2.332380757938));
#331 = CARTESIAN_POINT('',(-36.40343979903,15.95,2.332380757938));
#332 = CARTESIAN_POINT('',(-36.30694487774,15.964917722269,
    2.337177476604));
#333 = CARTESIAN_POINT('',(-36.21283318672,15.994718585827,
    2.346761246754));
#334 = CARTESIAN_POINT('',(-36.123484373,16.039191630185,2.360270212679)
  );
#335 = CARTESIAN_POINT('',(-36.04147857222,16.097861255995,
    2.375992193396));
#336 = CARTESIAN_POINT('',(-35.90365985055,16.23567997767,2.406549074205
    ));
#337 = CARTESIAN_POINT('',(-35.84547688982,16.313582363456,
    2.421527365955));
#338 = CARTESIAN_POINT('',(-35.79886931145,16.401902715129,2.43503966077
    ));
#339 = CARTESIAN_POINT('',(-35.76649633817,16.497937385153,
    2.444950240262));
#340 = CARTESIAN_POINT('',(-35.75000001015,16.598461233556,
    2.449999998446));
#341 = CARTESIAN_POINT('',(-35.75,16.7,2.45));
#342 = PCURVE('',#31,#343);
#343 = DEFINITIONAL_REPRESENTATION('',(#344),#387);
#344 = B_SPLINE_CURVE_WITH_KNOTS('',6,(#345,#346,#347,#348,#349,#350,
    #351,#352,#353,#354,#355,#356,#357,#358,#359,#360,#361,#362,#363,
    #364,#365,#366,#367,#368,#369,#370,#371,#372,#373,#374,#375,#376,
    #377,#378,#379,#380,#381,#382,#383,#384,#385,#386),.UNSPECIFIED.,.T.
  ,.F.,(7,5,5,5,5,5,5,5,7),(0.,0.119748192741,0.249998629449,
    0.380252973688,0.499993459212,0.619746289046,0.75000277768,
    0.880260589168,1.),.UNSPECIFIED.);
#345 = CARTESIAN_POINT('',(3.14159265359,17.9));
#346 = CARTESIAN_POINT('',(3.183043951496,17.900000010274));
#347 = CARTESIAN_POINT('',(3.224074218301,17.91650183376));
#348 = CARTESIAN_POINT('',(3.263394472906,17.948875185002));
#349 = CARTESIAN_POINT('',(3.299815154628,17.995476436693));
#350 = CARTESIAN_POINT('',(3.332180577228,18.053652136117));
#351 = CARTESIAN_POINT('',(3.389802016279,18.191477631766));
#352 = CARTESIAN_POINT('',(3.414570212635,18.273483907643));
#353 = CARTESIAN_POINT('',(3.433536348465,18.362834295002));
#354 = CARTESIAN_POINT('',(3.446314605738,18.456947464045));
#355 = CARTESIAN_POINT('',(3.452709912488,18.553442695767));
#356 = CARTESIAN_POINT('',(3.452709912488,18.746560200964));
#357 = CARTESIAN_POINT('',(3.446314284654,18.843055122255));
#358 = CARTESIAN_POINT('',(3.433535904615,18.937166813276));
#359 = CARTESIAN_POINT('',(3.41457019515,19.026515626994));
#360 = CARTESIAN_POINT('',(3.389802409462,19.108521427774));
#361 = CARTESIAN_POINT('',(3.332182820133,19.246342499049));
#362 = CARTESIAN_POINT('',(3.299816877679,19.30452256934));
#363 = CARTESIAN_POINT('',(3.263393203395,19.351128454457));
#364 = CARTESIAN_POINT('',(3.224070056689,19.383501548614));
#365 = CARTESIAN_POINT('',(3.183039664742,19.4));
#366 = CARTESIAN_POINT('',(3.100141369574,19.4));
#367 = CARTESIAN_POINT('',(3.059111074222,19.383498152515));
#368 = CARTESIAN_POINT('',(3.01979083319,19.351124816582));
#369 = CARTESIAN_POINT('',(2.983370155718,19.30452356359));
#370 = CARTESIAN_POINT('',(2.951004731716,19.246347868105));
#371 = CARTESIAN_POINT('',(2.893383056625,19.108521807867));
#372 = CARTESIAN_POINT('',(2.868615101696,19.026515823951));
#373 = CARTESIAN_POINT('',(2.849649213969,18.937166327208));
#374 = CARTESIAN_POINT('',(2.836870894201,18.84305394286));
#375 = CARTESIAN_POINT('',(2.830475394692,18.746559220332));
#376 = CARTESIAN_POINT('',(2.830475394692,18.553439799035));
#377 = CARTESIAN_POINT('',(2.836871022525,18.456944877745));
#378 = CARTESIAN_POINT('',(2.849649402565,18.362833186724));
#379 = CARTESIAN_POINT('',(2.86861511203,18.273484373006));
#380 = CARTESIAN_POINT('',(2.893382897717,18.191478572226));
#381 = CARTESIAN_POINT('',(2.951001504737,18.053659850551));
#382 = CARTESIAN_POINT('',(2.983368091049,17.995476889742));
#383 = CARTESIAN_POINT('',(3.019793334172,17.948869311685));
#384 = CARTESIAN_POINT('',(3.059117848575,17.916496337924));
#385 = CARTESIAN_POINT('',(3.100148259123,17.900000010272));
#386 = CARTESIAN_POINT('',(3.14159265359,17.9));
#387 = ( GEOMETRIC_REPRESENTATION_CONTEXT(2) 
PARAMETRIC_REPRESENTATION_CONTEXT() REPRESENTATION_CONTEXT('2D SPACE',''
  ) );
#388 = PCURVE('',#132,#389);
#389 = DEFINITIONAL_REPRESENTATION('',(#390),#433);
#390 = B_SPLINE_CURVE_WITH_KNOTS('',6,(#391,#392,#393,#394,#395,#396,
    #397,#398,#399,#400,#401,#402,#403,#404,#405,#406,#407,#408,#409,
    #410,#411,#412,#413,#414,#415,#416,#417,#418,#419,#420,#421,#422,
    #423,#424,#425,#426,#427,#428,#429,#430,#431,#432),.UNSPECIFIED.,.F.
  ,.F.,(7,5,5,5,5,5,5,5,7),(0.,0.119748192741,0.249998629449,
    0.380252973688,0.499993459212,0.619746289046,0.75000277768,
    0.880260589168,1.),.UNSPECIFIED.);
#391 = CARTESIAN_POINT('',(0.,8.45));
#392 = CARTESIAN_POINT('',(0.135407573161,8.449999998446));
#393 = CARTESIAN_POINT('',(0.269437175304,8.444948560859));
#394 = CARTESIAN_POINT('',(0.401946512907,8.43503787341));
#395 = CARTESIAN_POINT('',(0.532622476176,8.421527964371));
#396 = CARTESIAN_POINT('',(0.660913847403,8.406550784634));
#397 = CARTESIAN_POINT('',(0.92080009432,8.375992401912));
#398 = CARTESIAN_POINT('',(1.05343215267,8.360270276636));
#399 = CARTESIAN_POINT('',(1.1840686666,8.346760913094));
#400 = CARTESIAN_POINT('',(1.313392768189,8.337177236588));
#401 = CARTESIAN_POINT('',(1.442053254485,8.332380757938));
#402 = CARTESIAN_POINT('',(1.699543261414,8.332380757938));
#403 = CARTESIAN_POINT('',(1.828203367473,8.337177476604));
#404 = CARTESIAN_POINT('',(1.957525716214,8.346761246754));
#405 = CARTESIAN_POINT('',(2.088160184481,8.360270212679));
#406 = CARTESIAN_POINT('',(2.220790785922,8.375992193396));
#407 = CARTESIAN_POINT('',(2.480668690158,8.406549595154));
#408 = CARTESIAN_POINT('',(2.608965269232,8.421527393581));
#409 = CARTESIAN_POINT('',(2.739651550807,8.435038959753));
#410 = CARTESIAN_POINT('',(2.872169054674,8.444949606156));
#411 = CARTESIAN_POINT('',(3.006199083825,8.45));
#412 = CARTESIAN_POINT('',(3.277000181376,8.45));
#413 = CARTESIAN_POINT('',(3.411029875188,8.444948559887));
#414 = CARTESIAN_POINT('',(3.543539173692,8.435037871119));
#415 = CARTESIAN_POINT('',(3.67421511862,8.421527965658));
#416 = CARTESIAN_POINT('',(3.802506493032,8.40655078557));
#417 = CARTESIAN_POINT('',(4.062393804547,8.375992277669));
#418 = CARTESIAN_POINT('',(4.195024980978,8.360270236424));
#419 = CARTESIAN_POINT('',(4.325660359978,8.346761105955));
#420 = CARTESIAN_POINT('',(4.454983513468,8.337177380065));
#421 = CARTESIAN_POINT('',(4.583643353275,8.332380757938));
#422 = CARTESIAN_POINT('',(4.841135915004,8.332380757938));
#423 = CARTESIAN_POINT('',(4.969796021062,8.337177476604));
#424 = CARTESIAN_POINT('',(5.099118369804,8.346761246754));
#425 = CARTESIAN_POINT('',(5.229752838071,8.360270212679));
#426 = CARTESIAN_POINT('',(5.362383439512,8.375992193396));
#427 = CARTESIAN_POINT('',(5.622256913301,8.406549074205));
#428 = CARTESIAN_POINT('',(5.750557583067,8.421527365955));
#429 = CARTESIAN_POINT('',(5.881248898691,8.43503966077));
#430 = CARTESIAN_POINT('',(6.013770183591,8.444950240262));
#431 = CARTESIAN_POINT('',(6.147800285255,8.449999998446));
#432 = CARTESIAN_POINT('',(6.28318530718,8.45));
#433 = ( GEOMETRIC_REPRESENTATION_CONTEXT(2) 
PARAMETRIC_REPRESENTATION_CONTEXT() REPRESENTATION_CONTEXT('2D SPACE',''
  ) );
#434 = ADVANCED_FACE('',(#435,#466),#43,.T.);
#435 = FACE_BOUND('',#436,.T.);
#436 = EDGE_LOOP('',(#437));
#437 = ORIENTED_EDGE('',*,*,#438,.T.);
#438 = EDGE_CURVE('',#439,#439,#441,.T.);
#439 = VERTEX_POINT('',#440);
#440 = CARTESIAN_POINT('',(-34.,16.7,-5.));
#441 = SURFACE_CURVE('',#442,(#447,#454),.PCURVE_S1.);
#442 = CIRCLE('',#443,5.);
#443 = AXIS2_PLACEMENT_3D('',#444,#445,#446);
#444 = CARTESIAN_POINT('',(-34.,16.7,0.));
#445 = DIRECTION('',(-1.,0.,0.));
#446 = DIRECTION('',(0.,0.,-1.));
#447 = PCURVE('',#43,#448);
#448 = DEFINITIONAL_REPRESENTATION('',(#449),#453);
#449 = CIRCLE('',#450,5.);
#450 = AXIS2_PLACEMENT_2D('',#451,#452);
#451 = CARTESIAN_POINT('',(0.,0.));
#452 = DIRECTION('',(1.,0.));
#453 = ( GEOMETRIC_REPRESENTATION_CONTEXT(2) 
PARAMETRIC_REPRESENTATION_CONTEXT() REPRESENTATION_CONTEXT('2D SPACE',''
  ) );
#454 = PCURVE('',#455,#460);
#455 = CYLINDRICAL_SURFACE('',#456,5.);
#456 = AXIS2_PLACEMENT_3D('',#457,#458,#459);
#457 = CARTESIAN_POINT('',(-29.,16.7,0.));
#458 = DIRECTION('',(-1.,0.,0.));
#459 = DIRECTION('',(0.,0.,-1.));
#460 = DEFINITIONAL_REPRESENTATION('',(#461),#465);
#461 = LINE('',#462,#463);
#462 = CARTESIAN_POINT('',(0.,5.));
#463 = VECTOR('',#464,1.);
#464 = DIRECTION('',(1.,0.));
#465 = ( GEOMETRIC_REPRESENTATION_CONTEXT(2) 
PARAMETRIC_REPRESENTATION_CONTEXT() REPRESENTATION_CONTEXT('2D SPACE',''
  ) );
#466 = FACE_BOUND('',#467,.T.);
#467 = EDGE_LOOP('',(#468));
#468 = ORIENTED_EDGE('',*,*,#21,.F.);
#469 = ADVANCED_FACE('',(#470),#132,.F.);
#470 = FACE_BOUND('',#471,.F.);
#471 = EDGE_LOOP('',(#472,#473,#494,#495,#496));
#472 = ORIENTED_EDGE('',*,*,#295,.F.);
#473 = ORIENTED_EDGE('',*,*,#474,.F.);
#474 = EDGE_CURVE('',#56,#296,#475,.T.);
#475 = SEAM_CURVE('',#476,(#480,#487),.PCURVE_S1.);
#476 = LINE('',#477,#478);
#477 = CARTESIAN_POINT('',(-35.75,16.7,-6.));
#478 = VECTOR('',#479,1.);
#479 = DIRECTION('',(0.,0.,1.));
#480 = PCURVE('',#132,#481);
#481 = DEFINITIONAL_REPRESENTATION('',(#482),#486);
#482 = LINE('',#483,#484);
#483 = CARTESIAN_POINT('',(6.28318530718,-0.));
#484 = VECTOR('',#485,1.);
#485 = DIRECTION('',(0.,1.));
#486 = ( GEOMETRIC_REPRESENTATION_CONTEXT(2) 
PARAMETRIC_REPRESENTATION_CONTEXT() REPRESENTATION_CONTEXT('2D SPACE',''
  ) );
#487 = PCURVE('',#132,#488);
#488 = DEFINITIONAL_REPRESENTATION('',(#489),#493);
#489 = LINE('',#490,#491);
#490 = CARTESIAN_POINT('',(0.,-0.));
#491 = VECTOR('',#492,1.);
#492 = DIRECTION('',(0.,1.));
#493 = ( GEOMETRIC_REPRESENTATION_CONTEXT(2) 
PARAMETRIC_REPRESENTATION_CONTEXT() REPRESENTATION_CONTEXT('2D SPACE',''
  ) );
#494 = ORIENTED_EDGE('',*,*,#78,.T.);
#495 = ORIENTED_EDGE('',*,*,#214,.T.);
#496 = ORIENTED_EDGE('',*,*,#474,.T.);
#497 = ADVANCED_FACE('',(#498),#201,.T.);
#498 = FACE_BOUND('',#499,.T.);
#499 = EDGE_LOOP('',(#500));
#500 = ORIENTED_EDGE('',*,*,#186,.T.);
#501 = ADVANCED_FACE('',(#502),#455,.T.);
#502 = FACE_BOUND('',#503,.T.);
#503 = EDGE_LOOP('',(#504,#505,#528,#555));
#504 = ORIENTED_EDGE('',*,*,#438,.F.);
#505 = ORIENTED_EDGE('',*,*,#506,.F.);
#506 = EDGE_CURVE('',#507,#439,#509,.T.);
#507 = VERTEX_POINT('',#508);
#508 = CARTESIAN_POINT('',(-29.,16.7,-5.));
#509 = SEAM_CURVE('',#510,(#514,#521),.PCURVE_S1.);
#510 = LINE('',#511,#512);
#511 = CARTESIAN_POINT('',(-29.,16.7,-5.));
#512 = VECTOR('',#513,1.);
#513 = DIRECTION('',(-1.,0.,0.));
#514 = PCURVE('',#455,#515);
#515 = DEFINITIONAL_REPRESENTATION('',(#516),#520);
#516 = LINE('',#517,#518);
#517 = CARTESIAN_POINT('',(6.28318530718,-0.));
#518 = VECTOR('',#519,1.);
#519 = DIRECTION('',(0.,1.));
#520 = ( GEOMETRIC_REPRESENTATION_CONTEXT(2) 
PARAMETRIC_REPRESENTATION_CONTEXT() REPRESENTATION_CONTEXT('2D SPACE',''
  ) );
#521 = PCURVE('',#455,#522);
#522 = DEFINITIONAL_REPRESENTATION('',(#523),#527);
#523 = LINE('',#524,#525);
#524 = CARTESIAN_POINT('',(0.,-0.));
#525 = VECTOR('',#526,1.);
#526 = DIRECTION('',(0.,1.));
#527 = ( GEOMETRIC_REPRESENTATION_CONTEXT(2) 
PARAMETRIC_REPRESENTATION_CONTEXT() REPRESENTATION_CONTEXT('2D SPACE',''
  ) );
#528 = ORIENTED_EDGE('',*,*,#529,.T.);
#529 = EDGE_CURVE('',#507,#507,#530,.T.);
#530 = SURFACE_CURVE('',#531,(#536,#543),.PCURVE_S1.);
#531 = CIRCLE('',#532,5.);
#532 = AXIS2_PLACEMENT_3D('',#533,#534,#535);
#533 = CARTESIAN_POINT('',(-29.,16.7,0.));
#534 = DIRECTION('',(-1.,0.,0.));
#535 = DIRECTION('',(0.,0.,-1.));
#536 = PCURVE('',#455,#537);
#537 = DEFINITIONAL_REPRESENTATION('',(#538),#542);
#538 = LINE('',#539,#540);
#539 = CARTESIAN_POINT('',(0.,0.));
#540 = VECTOR('',#541,1.);
#541 = DIRECTION('',(1.,0.));
#542 = ( GEOMETRIC_REPRESENTATION_CONTEXT(2) 
PARAMETRIC_REPRESENTATION_CONTEXT() REPRESENTATION_CONTEXT('2D SPACE',''
  ) );
#543 = PCURVE('',#544,#549);
#544 = PLANE('',#545);
#545 = AXIS2_PLACEMENT_3D('',#546,#547,#548);
#546 = CARTESIAN_POINT('',(-29.,16.7,0.));
#547 = DIRECTION('',(-1.,0.,0.));
#548 = DIRECTION('',(0.,0.,-1.));
#549 = DEFINITIONAL_REPRESENTATION('',(#550),#554);
#550 = CIRCLE('',#551,5.);
#551 = AXIS2_PLACEMENT_2D('',#552,#553);
#552 = CARTESIAN_POINT('',(0.,0.));
#553 = DIRECTION('',(1.,0.));
#554 = ( GEOMETRIC_REPRESENTATION_CONTEXT(2) 
PARAMETRIC_REPRESENTATION_CONTEXT() REPRESENTATION_CONTEXT('2D SPACE',''
  ) );
#555 = ORIENTED_EDGE('',*,*,#506,.T.);
#556 = ADVANCED_FACE('',(#557,#560),#544,.F.);
#557 = FACE_BOUND('',#558,.F.);
#558 = EDGE_LOOP('',(#559));
#559 = ORIENTED_EDGE('',*,*,#529,.T.);
#560 = FACE_BOUND('',#561,.F.);
#561 = EDGE_LOOP('',(#562));
#562 = ORIENTED_EDGE('',*,*,#563,.F.);
#563 = EDGE_CURVE('',#564,#564,#566,.T.);
#564 = VERTEX_POINT('',#565);
#565 = CARTESIAN_POINT('',(-29.,16.7,-2.45));
#566 = SURFACE_CURVE('',#567,(#572,#579),.PCURVE_S1.);
#567 = CIRCLE('',#568,2.45);
#568 = AXIS2_PLACEMENT_3D('',#569,#570,#571);
#569 = CARTESIAN_POINT('',(-29.,16.7,0.));
#570 = DIRECTION('',(-1.,0.,0.));
#571 = DIRECTION('',(0.,0.,-1.));
#572 = PCURVE('',#544,#573);
#573 = DEFINITIONAL_REPRESENTATION('',(#574),#578);
#574 = CIRCLE('',#575,2.45);
#575 = AXIS2_PLACEMENT_2D('',#576,#577);
#576 = CARTESIAN_POINT('',(0.,0.));
#577 = DIRECTION('',(1.,0.));
#578 = ( GEOMETRIC_REPRESENTATION_CONTEXT(2) 
PARAMETRIC_REPRESENTATION_CONTEXT() REPRESENTATION_CONTEXT('2D SPACE',''
  ) );
#579 = PCURVE('',#580,#585);
#580 = CYLINDRICAL_SURFACE('',#581,2.45);
#581 = AXIS2_PLACEMENT_3D('',#582,#583,#584);
#582 = CARTESIAN_POINT('',(-17.85,16.7,0.));
#583 = DIRECTION('',(-1.,0.,0.));
#584 = DIRECTION('',(0.,0.,-1.));
#585 = DEFINITIONAL_REPRESENTATION('',(#586),#590);
#586 = LINE('',#587,#588);
#587 = CARTESIAN_POINT('',(0.,11.15));
#588 = VECTOR('',#589,1.);
#589 = DIRECTION('',(1.,0.));
#590 = ( GEOMETRIC_REPRESENTATION_CONTEXT(2) 
PARAMETRIC_REPRESENTATION_CONTEXT() REPRESENTATION_CONTEXT('2D SPACE',''
  ) );
#591 = ADVANCED_FACE('',(#592),#580,.T.);
#592 = FACE_BOUND('',#593,.T.);
#593 = EDGE_LOOP('',(#594,#595,#618,#645));
#594 = ORIENTED_EDGE('',*,*,#563,.F.);
#595 = ORIENTED_EDGE('',*,*,#596,.F.);
#596 = EDGE_CURVE('',#597,#564,#599,.T.);
#597 = VERTEX_POINT('',#598);
#598 = CARTESIAN_POINT('',(-17.85,16.7,-2.45));
#599 = SEAM_CURVE('',#600,(#604,#611),.PCURVE_S1.);
#600 = LINE('',#601,#602);
#601 = CARTESIAN_POINT('',(-17.85,16.7,-2.45));
#602 = VECTOR('',#603,1.);
#603 = DIRECTION('',(-1.,0.,0.));
#604 = PCURVE('',#580,#605);
#605 = DEFINITIONAL_REPRESENTATION('',(#606),#610);
#606 = LINE('',#607,#608);
#607 = CARTESIAN_POINT('',(6.28318530718,-0.));
#608 = VECTOR('',#609,1.);
#609 = DIRECTION('',(0.,1.));
#610 = ( GEOMETRIC_REPRESENTATION_CONTEXT(2) 
PARAMETRIC_REPRESENTATION_CONTEXT() REPRESENTATION_CONTEXT('2D SPACE',''
  ) );
#611 = PCURVE('',#580,#612);
#612 = DEFINITIONAL_REPRESENTATION('',(#613),#617);
#613 = LINE('',#614,#615);
#614 = CARTESIAN_POINT('',(0.,-0.));
#615 = VECTOR('',#616,1.);
#616 = DIRECTION('',(0.,1.));
#617 = ( GEOMETRIC_REPRESENTATION_CONTEXT(2) 
PARAMETRIC_REPRESENTATION_CONTEXT() REPRESENTATION_CONTEXT('2D SPACE',''
  ) );
#618 = ORIENTED_EDGE('',*,*,#619,.T.);
#619 = EDGE_CURVE('',#597,#597,#620,.T.);
#620 = SURFACE_CURVE('',#621,(#626,#633),.PCURVE_S1.);
#621 = CIRCLE('',#622,2.45);
#622 = AXIS2_PLACEMENT_3D('',#623,#624,#625);
#623 = CARTESIAN_POINT('',(-17.85,16.7,0.));
#624 = DIRECTION('',(-1.,0.,0.));
#625 = DIRECTION('',(0.,0.,-1.));
#626 = PCURVE('',#580,#627);
#627 = DEFINITIONAL_REPRESENTATION('',(#628),#632);
#628 = LINE('',#629,#630);
#629 = CARTESIAN_POINT('',(0.,0.));
#630 = VECTOR('',#631,1.);
#631 = DIRECTION('',(1.,0.));
#632 = ( GEOMETRIC_REPRESENTATION_CONTEXT(2) 
PARAMETRIC_REPRESENTATION_CONTEXT() REPRESENTATION_CONTEXT('2D SPACE',''
  ) );
#633 = PCURVE('',#634,#639);
#634 = PLANE('',#635);
#635 = AXIS2_PLACEMENT_3D('',#636,#637,#638);
#636 = CARTESIAN_POINT('',(-17.85,16.7,0.));
#637 = DIRECTION('',(-1.,0.,0.));
#638 = DIRECTION('',(0.,0.,-1.));
#639 = DEFINITIONAL_REPRESENTATION('',(#640),#644);
#640 = CIRCLE('',#641,2.45);
#641 = AXIS2_PLACEMENT_2D('',#642,#643);
#642 = CARTESIAN_POINT('',(0.,0.));
#643 = DIRECTION('',(1.,0.));
#644 = ( GEOMETRIC_REPRESENTATION_CONTEXT(2) 
PARAMETRIC_REPRESENTATION_CONTEXT() REPRESENTATION_CONTEXT('2D SPACE',''
  ) );
#645 = ORIENTED_EDGE('',*,*,#596,.T.);
#646 = ADVANCED_FACE('',(#647),#634,.F.);
#647 = FACE_BOUND('',#648,.T.);
#648 = EDGE_LOOP('',(#649));
#649 = ORIENTED_EDGE('',*,*,#619,.F.);
#650 = ( GEOMETRIC_REPRESENTATION_CONTEXT(3) 
GLOBAL_UNCERTAINTY_ASSIGNED_CONTEXT((#654)) GLOBAL_UNIT_ASSIGNED_CONTEXT
((#651,#652,#653)) REPRESENTATION_CONTEXT('Context #1',
  '3D Context with UNIT and UNCERTAINTY') );
#651 = ( LENGTH_UNIT() NAMED_UNIT(*) SI_UNIT(.MILLI.,.METRE.) );
#652 = ( NAMED_UNIT(*) PLANE_ANGLE_UNIT() SI_UNIT($,.RADIAN.) );
#653 = ( NAMED_UNIT(*) SI_UNIT($,.STERADIAN.) SOLID_ANGLE_UNIT() );
#654 = UNCERTAINTY_MEASURE_WITH_UNIT(LENGTH_MEASURE(1.E-07),#651,
  'distance_accuracy_value','confusion accuracy');
#655 = PRODUCT_RELATED_PRODUCT_CATEGORY('part',$,(#7));
ENDSEC;
END-ISO-10303-21;
