ISO-10303-21;
HEADER;
FILE_DESCRIPTION(('FreeCAD Model'),'2;1');
FILE_NAME('Open CASCADE Shape Model','2026-10-04T14:39:58',('FreeCAD'),(
    'FreeCAD'),'Open CASCADE STEP processor 7.5','FreeCAD','Unknown');
FILE_SCHEMA(('AUTOMOTIVE_DESIGN { 1 0 10303 214 1 1 1 1 }'));
ENDSEC;
DATA;
#1 = APPLICATION_PROTOCOL_DEFINITION('international standard',
  'automotive_design',2000,#2);
#2 = APPLICATION_CONTEXT(
  'core data for automotive mechanical design processes');
#3 = SHAPE_DEFINITION_REPRESENTATION(#4,#10);
#4 = PRODUCT_DEFINITION_SHAPE('','',#5);
#5 = PRODUCT_DEFINITION('design','',#6,#9);
#6 = PRODUCT_DEFINITION_FORMATION('','',#7);
#7 = PRODUCT('Open CASCADE STEP translator 7.5 9',
  'Open CASCADE STEP translator 7.5 9','',(#8));
#8 = PRODUCT_CONTEXT('',#2,'mechanical');
#9 = PRODUCT_DEFINITION_CONTEXT('part definition',#2,'design');
#10 = ADVANCED_BREP_SHAPE_REPRESENTATION('',(#11,#15),#650);
#11 = AXIS2_PLACEMENT_3D('',#12,#13,#14);
#12 = CARTESIAN_POINT('',(0.,0.,0.));
#13 = DIRECTION('',(0.,0.,1.));
#14 = DIRECTION('',(1.,0.,-0.));
#15 = MANIFOLD_SOLID_BREP('',#16);
#16 = CLOSED_SHELL('',(#17,#434,#462,#497,#501,#556,#591,#646));
#17 = ADVANCED_FACE('',(#18,#292),#51,.T.);
#18 = FACE_BOUND('',#19,.T.);
#19 = EDGE_LOOP('',(#20,#112,#135,#162,#163,#241,#264,#291));
#20 = ORIENTED_EDGE('',*,*,#21,.F.);
#21 = EDGE_CURVE('',#22,#24,#26,.T.);
#22 = VERTEX_POINT('',#23);
#23 = CARTESIAN_POINT('',(37.25,16.7,2.45));
#24 = VERTEX_POINT('',#25);
#25 = CARTESIAN_POINT('',(35.75,16.7,2.45));
#26 = SURFACE_CURVE('',#27,(#50,#81),.PCURVE_S1.);
#27 = B_SPLINE_CURVE_WITH_KNOTS('',6,(#28,#29,#30,#31,#32,#33,#34,#35,
    #36,#37,#38,#39,#40,#41,#42,#43,#44,#45,#46,#47,#48,#49),
  .UNSPECIFIED.,.F.,.F.,(7,5,5,5,7),(0.,0.239499518513,0.500003799736,
    0.760515896122,1.),.UNSPECIFIED.);
#28 = CARTESIAN_POINT('',(37.25,16.7,2.45));
#29 = CARTESIAN_POINT('',(37.249999989844,16.80155567987,2.449999998446)
  );
#30 = CARTESIAN_POINT('',(37.233498165991,16.902079168505,2.444948560859
    ));
#31 = CARTESIAN_POINT('',(37.201124815224,16.998103239538,2.43503787341)
  );
#32 = CARTESIAN_POINT('',(37.154523563223,17.086412580729,2.421527964371
    ));
#33 = CARTESIAN_POINT('',(37.096347863883,17.164312307896,2.406550784634
    ));
#34 = CARTESIAN_POINT('',(36.958522368234,17.302137803546,2.375992401912
    ));
#35 = CARTESIAN_POINT('',(36.876516092357,17.36080847836,2.360270276635)
  );
#36 = CARTESIAN_POINT('',(36.787165704999,17.405282339957,2.346760913094
    ));
#37 = CARTESIAN_POINT('',(36.693052535955,17.435083111081,2.337177236588
    ));
#38 = CARTESIAN_POINT('',(36.596557304233,17.45,2.332380757938));
#39 = CARTESIAN_POINT('',(36.403439799036,17.45,2.332380757938));
#40 = CARTESIAN_POINT('',(36.306944877745,17.435082277731,2.337177476604
    ));
#41 = CARTESIAN_POINT('',(36.212833186724,17.405281414173,2.346761246754
    ));
#42 = CARTESIAN_POINT('',(36.123484373006,17.360808369815,2.360270212679
    ));
#43 = CARTESIAN_POINT('',(36.041478572226,17.302138744006,2.375992193396
    ));
#44 = CARTESIAN_POINT('',(35.903657500951,17.164317672731,2.406549595154
    ));
#45 = CARTESIAN_POINT('',(35.84547743066,17.086416788074,2.421527393581)
  );
#46 = CARTESIAN_POINT('',(35.798871545543,16.998100242864,2.435038959753
    ));
#47 = CARTESIAN_POINT('',(35.766498451386,16.902068972388,2.444949606156
    ));
#48 = CARTESIAN_POINT('',(35.75,16.801545177324,2.45));
#49 = CARTESIAN_POINT('',(35.75,16.7,2.45));
#50 = PCURVE('',#51,#56);
#51 = CYLINDRICAL_SURFACE('',#52,2.45);
#52 = AXIS2_PLACEMENT_3D('',#53,#54,#55);
#53 = CARTESIAN_POINT('',(17.85,16.7,0.));
#54 = DIRECTION('',(1.,0.,0.));
#55 = DIRECTION('',(-0.,0.,1.));
#56 = DEFINITIONAL_REPRESENTATION('',(#57),#80);
#57 = B_SPLINE_CURVE_WITH_KNOTS('',6,(#58,#59,#60,#61,#62,#63,#64,#65,
    #66,#67,#68,#69,#70,#71,#72,#73,#74,#75,#76,#77,#78,#79),
  .UNSPECIFIED.,.F.,.F.,(7,5,5,5,7),(0.,0.239499518513,0.500003799736,
    0.760515896122,1.),.UNSPECIFIED.);
#58 = CARTESIAN_POINT('',(6.28318530718,19.4));
#59 = CARTESIAN_POINT('',(6.241734009273,19.399999989726));
#60 = CARTESIAN_POINT('',(6.200703742468,19.38349816624));
#61 = CARTESIAN_POINT('',(6.161383487864,19.351124814998));
#62 = CARTESIAN_POINT('',(6.124962806142,19.304523563307));
#63 = CARTESIAN_POINT('',(6.092597383541,19.246347863883));
#64 = CARTESIAN_POINT('',(6.03497594449,19.108522368234));
#65 = CARTESIAN_POINT('',(6.010207748134,19.026516092357));
#66 = CARTESIAN_POINT('',(5.991241612304,18.937165704999));
#67 = CARTESIAN_POINT('',(5.978463355031,18.843052535955));
#68 = CARTESIAN_POINT('',(5.972068048282,18.746557304233));
#69 = CARTESIAN_POINT('',(5.972068048282,18.553439799036));
#70 = CARTESIAN_POINT('',(5.978463676115,18.456944877745));
#71 = CARTESIAN_POINT('',(5.991242056155,18.362833186724));
#72 = CARTESIAN_POINT('',(6.01020776562,18.273484373006));
#73 = CARTESIAN_POINT('',(6.034975551307,18.191478572226));
#74 = CARTESIAN_POINT('',(6.092595140636,18.053657500951));
#75 = CARTESIAN_POINT('',(6.12496108309,17.99547743066));
#76 = CARTESIAN_POINT('',(6.161384757375,17.948871545543));
#77 = CARTESIAN_POINT('',(6.200707904081,17.916498451386));
#78 = CARTESIAN_POINT('',(6.241738296027,17.9));
#79 = CARTESIAN_POINT('',(6.28318530718,17.9));
#80 = ( GEOMETRIC_REPRESENTATION_CONTEXT(2) 
PARAMETRIC_REPRESENTATION_CONTEXT() REPRESENTATION_CONTEXT('2D SPACE',''
  ) );
#81 = PCURVE('',#82,#87);
#82 = CYLINDRICAL_SURFACE('',#83,0.75);
#83 = AXIS2_PLACEMENT_3D('',#84,#85,#86);
#84 = CARTESIAN_POINT('',(36.5,16.7,-6.));
#85 = DIRECTION('',(0.,0.,1.));
#86 = DIRECTION('',(1.,0.,-0.));
#87 = DEFINITIONAL_REPRESENTATION('',(#88),#111);
#88 = B_SPLINE_CURVE_WITH_KNOTS('',6,(#89,#90,#91,#92,#93,#94,#95,#96,
    #97,#98,#99,#100,#101,#102,#103,#104,#105,#106,#107,#108,#109,#110),
  .UNSPECIFIED.,.F.,.F.,(7,5,5,5,7),(0.,0.239499518513,0.500003799736,
    0.760515896122,1.),.UNSPECIFIED.);
#89 = CARTESIAN_POINT('',(0.,8.45));
#90 = CARTESIAN_POINT('',(0.135407573161,8.449999998446));
#91 = CARTESIAN_POINT('',(0.269437175304,8.444948560859));
#92 = CARTESIAN_POINT('',(0.401946512907,8.43503787341));
#93 = CARTESIAN_POINT('',(0.532622476176,8.421527964371));
#94 = CARTESIAN_POINT('',(0.660913847403,8.406550784634));
#95 = CARTESIAN_POINT('',(0.92080009432,8.375992401912));
#96 = CARTESIAN_POINT('',(1.053432152671,8.360270276635));
#97 = CARTESIAN_POINT('',(1.1840686666,8.346760913094));
#98 = CARTESIAN_POINT('',(1.31339276819,8.337177236588));
#99 = CARTESIAN_POINT('',(1.442053254485,8.332380757938));
#100 = CARTESIAN_POINT('',(1.699543261414,8.332380757938));
#101 = CARTESIAN_POINT('',(1.828203367473,8.337177476604));
#102 = CARTESIAN_POINT('',(1.957525716214,8.346761246754));
#103 = CARTESIAN_POINT('',(2.088160184481,8.360270212679));
#104 = CARTESIAN_POINT('',(2.220790785922,8.375992193396));
#105 = CARTESIAN_POINT('',(2.480668690158,8.406549595154));
#106 = CARTESIAN_POINT('',(2.608965269232,8.421527393581));
#107 = CARTESIAN_POINT('',(2.739651550807,8.435038959753));
#108 = CARTESIAN_POINT('',(2.872169054674,8.444949606156));
#109 = CARTESIAN_POINT('',(3.006199083825,8.45));
#110 = CARTESIAN_POINT('',(3.14159265359,8.45));
#111 = ( GEOMETRIC_REPRESENTATION_CONTEXT(2) 
PARAMETRIC_REPRESENTATION_CONTEXT() REPRESENTATION_CONTEXT('2D SPACE',''
  ) );
#112 = ORIENTED_EDGE('',*,*,#113,.T.);
#113 = EDGE_CURVE('',#22,#114,#116,.T.);
#114 = VERTEX_POINT('',#115);
#115 = CARTESIAN_POINT('',(37.5,16.7,2.45));
#116 = SEAM_CURVE('',#117,(#121,#128),.PCURVE_S1.);
#117 = LINE('',#118,#119);
#118 = CARTESIAN_POINT('',(17.85,16.7,2.45));
#119 = VECTOR('',#120,1.);
#120 = DIRECTION('',(1.,0.,0.));
#121 = PCURVE('',#51,#122);
#122 = DEFINITIONAL_REPRESENTATION('',(#123),#127);
#123 = LINE('',#124,#125);
#124 = CARTESIAN_POINT('',(0.,-0.));
#125 = VECTOR('',#126,1.);
#126 = DIRECTION('',(0.,1.));
#127 = ( GEOMETRIC_REPRESENTATION_CONTEXT(2) 
PARAMETRIC_REPRESENTATION_CONTEXT() REPRESENTATION_CONTEXT('2D SPACE',''
  ) );
#128 = PCURVE('',#51,#129);
#129 = DEFINITIONAL_REPRESENTATION('',(#130),#134);
#130 = LINE('',#131,#132);
#131 = CARTESIAN_POINT('',(6.28318530718,-0.));
#132 = VECTOR('',#133,1.);
#133 = DIRECTION('',(0.,1.));
#134 = ( GEOMETRIC_REPRESENTATION_CONTEXT(2) 
PARAMETRIC_REPRESENTATION_CONTEXT() REPRESENTATION_CONTEXT('2D SPACE',''
  ) );
#135 = ORIENTED_EDGE('',*,*,#136,.F.);
#136 = EDGE_CURVE('',#114,#114,#137,.T.);
#137 = SURFACE_CURVE('',#138,(#143,#150),.PCURVE_S1.);
#138 = CIRCLE('',#139,2.45);
#139 = AXIS2_PLACEMENT_3D('',#140,#141,#142);
#140 = CARTESIAN_POINT('',(37.5,16.7,0.));
#141 = DIRECTION('',(1.,0.,0.));
#142 = DIRECTION('',(-0.,0.,1.));
#143 = PCURVE('',#51,#144);
#144 = DEFINITIONAL_REPRESENTATION('',(#145),#149);
#145 = LINE('',#146,#147);
#146 = CARTESIAN_POINT('',(0.,19.65));
#147 = VECTOR('',#148,1.);
#148 = DIRECTION('',(1.,0.));
#149 = ( GEOMETRIC_REPRESENTATION_CONTEXT(2) 
PARAMETRIC_REPRESENTATION_CONTEXT() REPRESENTATION_CONTEXT('2D SPACE',''
  ) );
#150 = PCURVE('',#151,#156);
#151 = PLANE('',#152);
#152 = AXIS2_PLACEMENT_3D('',#153,#154,#155);
#153 = CARTESIAN_POINT('',(37.5,16.7,0.));
#154 = DIRECTION('',(1.,0.,0.));
#155 = DIRECTION('',(-0.,0.,1.));
#156 = DEFINITIONAL_REPRESENTATION('',(#157),#161);
#157 = CIRCLE('',#158,2.45);
#158 = AXIS2_PLACEMENT_2D('',#159,#160);
#159 = CARTESIAN_POINT('',(0.,0.));
#160 = DIRECTION('',(1.,0.));
#161 = ( GEOMETRIC_REPRESENTATION_CONTEXT(2) 
PARAMETRIC_REPRESENTATION_CONTEXT() REPRESENTATION_CONTEXT('2D SPACE',''
  ) );
#162 = ORIENTED_EDGE('',*,*,#113,.F.);
#163 = ORIENTED_EDGE('',*,*,#164,.F.);
#164 = EDGE_CURVE('',#24,#22,#165,.T.);
#165 = SURFACE_CURVE('',#166,(#189,#215),.PCURVE_S1.);
#166 = B_SPLINE_CURVE_WITH_KNOTS('',6,(#167,#168,#169,#170,#171,#172,
    #173,#174,#175,#176,#177,#178,#179,#180,#181,#182,#183,#184,#185,
    #186,#187,#188),.UNSPECIFIED.,.F.,.F.,(7,5,5,5,7),(0.,0.239502526598
    ,0.50001209599,0.760524311055,1.),.UNSPECIFIED.);
#167 = CARTESIAN_POINT('',(35.75,16.7,2.45));
#168 = CARTESIAN_POINT('',(35.75,16.598444354161,2.45));
#169 = CARTESIAN_POINT('',(35.766501847485,16.497920795472,
    2.444948559887));
#170 = CARTESIAN_POINT('',(35.798875183418,16.40189675808,2.435037871119
    ));
#171 = CARTESIAN_POINT('',(35.84547643641,16.313587426926,2.421527965658
    ));
#172 = CARTESIAN_POINT('',(35.903652131895,16.235687696325,2.40655078557
    ));
#173 = CARTESIAN_POINT('',(36.041478192133,16.097861636088,
    2.375992277669));
#174 = CARTESIAN_POINT('',(36.123484176049,16.039191593639,
    2.360270236424));
#175 = CARTESIAN_POINT('',(36.212833672792,15.994718154517,
    2.346761105955));
#176 = CARTESIAN_POINT('',(36.30694605714,15.964917416438,2.337177380065
    ));
#177 = CARTESIAN_POINT('',(36.403440779668,15.95,2.332380757938));
#178 = CARTESIAN_POINT('',(36.596560200964,15.95,2.332380757938));
#179 = CARTESIAN_POINT('',(36.693055122255,15.964917722269,
    2.337177476604));
#180 = CARTESIAN_POINT('',(36.787166813276,15.994718585827,
    2.346761246754));
#181 = CARTESIAN_POINT('',(36.876515626994,16.039191630186,
    2.360270212679));
#182 = CARTESIAN_POINT('',(36.958521427774,16.097861255994,
    2.375992193396));
#183 = CARTESIAN_POINT('',(37.096340149449,16.23567997767,2.406549074205
    ));
#184 = CARTESIAN_POINT('',(37.154523110174,16.313582363456,
    2.421527365955));
#185 = CARTESIAN_POINT('',(37.201130688541,16.401902715129,2.43503966077
    ));
#186 = CARTESIAN_POINT('',(37.233503661827,16.497937385153,
    2.444950240262));
#187 = CARTESIAN_POINT('',(37.249999989846,16.598461233556,
    2.449999998446));
#188 = CARTESIAN_POINT('',(37.25,16.7,2.45));
#189 = PCURVE('',#51,#190);
#190 = DEFINITIONAL_REPRESENTATION('',(#191),#214);
#191 = B_SPLINE_CURVE_WITH_KNOTS('',6,(#192,#193,#194,#195,#196,#197,
    #198,#199,#200,#201,#202,#203,#204,#205,#206,#207,#208,#209,#210,
    #211,#212,#213),.UNSPECIFIED.,.F.,.F.,(7,5,5,5,7),(0.,0.239502526598
    ,0.50001209599,0.760524311055,1.),.UNSPECIFIED.);
#192 = CARTESIAN_POINT('',(0.,17.9));
#193 = CARTESIAN_POINT('',(4.145128401607E-02,17.9));
#194 = CARTESIAN_POINT('',(8.248157936782E-02,17.916501847485));
#195 = CARTESIAN_POINT('',(0.1218018204,17.948875183418));
#196 = CARTESIAN_POINT('',(0.158222497872,17.99547643641));
#197 = CARTESIAN_POINT('',(0.190587921873,18.053652131895));
#198 = CARTESIAN_POINT('',(0.248209596965,18.191478192133));
#199 = CARTESIAN_POINT('',(0.272977551894,18.273484176049));
#200 = CARTESIAN_POINT('',(0.29194343962,18.362833672792));
#201 = CARTESIAN_POINT('',(0.304721759389,18.45694605714));
#202 = CARTESIAN_POINT('',(0.311117258898,18.553440779668));
#203 = CARTESIAN_POINT('',(0.311117258898,18.746560200964));
#204 = CARTESIAN_POINT('',(0.304721631064,18.843055122255));
#205 = CARTESIAN_POINT('',(0.291943251025,18.937166813275));
#206 = CARTESIAN_POINT('',(0.27297754156,19.026515626994));
#207 = CARTESIAN_POINT('',(0.248209755873,19.108521427774));
#208 = CARTESIAN_POINT('',(0.190591148853,19.246340149449));
#209 = CARTESIAN_POINT('',(0.15822456254,19.304523110258));
#210 = CARTESIAN_POINT('',(0.121799319417,19.351130688315));
#211 = CARTESIAN_POINT('',(8.247480501496E-02,19.383503662076));
#212 = CARTESIAN_POINT('',(4.144439446677E-02,19.399999989728));
#213 = CARTESIAN_POINT('',(0.,19.4));
#214 = ( GEOMETRIC_REPRESENTATION_CONTEXT(2) 
PARAMETRIC_REPRESENTATION_CONTEXT() REPRESENTATION_CONTEXT('2D SPACE',''
  ) );
#215 = PCURVE('',#82,#216);
#216 = DEFINITIONAL_REPRESENTATION('',(#217),#240);
#217 = B_SPLINE_CURVE_WITH_KNOTS('',6,(#218,#219,#220,#221,#222,#223,
    #224,#225,#226,#227,#228,#229,#230,#231,#232,#233,#234,#235,#236,
    #237,#238,#239),.UNSPECIFIED.,.F.,.F.,(7,5,5,5,7),(0.,0.239502526598
    ,0.50001209599,0.760524311055,1.),.UNSPECIFIED.);
#218 = CARTESIAN_POINT('',(3.14159265359,8.45));
#219 = CARTESIAN_POINT('',(3.277000181376,8.45));
#220 = CARTESIAN_POINT('',(3.411029875188,8.444948559887));
#221 = CARTESIAN_POINT('',(3.543539173693,8.435037871119));
#222 = CARTESIAN_POINT('',(3.674215118619,8.421527965658));
#223 = CARTESIAN_POINT('',(3.802506493032,8.40655078557));
#224 = CARTESIAN_POINT('',(4.062393804547,8.375992277669));
#225 = CARTESIAN_POINT('',(4.195024980978,8.360270236424));
#226 = CARTESIAN_POINT('',(4.325660359977,8.346761105955));
#227 = CARTESIAN_POINT('',(4.454983513468,8.337177380065));
#228 = CARTESIAN_POINT('',(4.583643353275,8.332380757938));
#229 = CARTESIAN_POINT('',(4.841135915004,8.332380757938));
#230 = CARTESIAN_POINT('',(4.969796021062,8.337177476604));
#231 = CARTESIAN_POINT('',(5.099118369804,8.346761246754));
#232 = CARTESIAN_POINT('',(5.229752838071,8.360270212679));
#233 = CARTESIAN_POINT('',(5.362383439512,8.375992193396));
#234 = CARTESIAN_POINT('',(5.622256913301,8.406549074205));
#235 = CARTESIAN_POINT('',(5.750557583068,8.421527365955));
#236 = CARTESIAN_POINT('',(5.881248898691,8.43503966077));
#237 = CARTESIAN_POINT('',(6.013770183591,8.444950240262));
#238 = CARTESIAN_POINT('',(6.147800285255,8.449999998446));
#239 = CARTESIAN_POINT('',(6.28318530718,8.45));
#240 = ( GEOMETRIC_REPRESENTATION_CONTEXT(2) 
PARAMETRIC_REPRESENTATION_CONTEXT() REPRESENTATION_CONTEXT('2D SPACE',''
  ) );
#241 = ORIENTED_EDGE('',*,*,#242,.F.);
#242 = EDGE_CURVE('',#243,#24,#245,.T.);
#243 = VERTEX_POINT('',#244);
#244 = CARTESIAN_POINT('',(34.,16.7,2.45));
#245 = SEAM_CURVE('',#246,(#250,#257),.PCURVE_S1.);
#246 = LINE('',#247,#248);
#247 = CARTESIAN_POINT('',(17.85,16.7,2.45));
#248 = VECTOR('',#249,1.);
#249 = DIRECTION('',(1.,0.,0.));
#250 = PCURVE('',#51,#251);
#251 = DEFINITIONAL_REPRESENTATION('',(#252),#256);
#252 = LINE('',#253,#254);
#253 = CARTESIAN_POINT('',(6.28318530718,-0.));
#254 = VECTOR('',#255,1.);
#255 = DIRECTION('',(0.,1.));
#256 = ( GEOMETRIC_REPRESENTATION_CONTEXT(2) 
PARAMETRIC_REPRESENTATION_CONTEXT() REPRESENTATION_CONTEXT('2D SPACE',''
  ) );
#257 = PCURVE('',#51,#258);
#258 = DEFINITIONAL_REPRESENTATION('',(#259),#263);
#259 = LINE('',#260,#261);
#260 = CARTESIAN_POINT('',(0.,-0.));
#261 = VECTOR('',#262,1.);
#262 = DIRECTION('',(0.,1.));
#263 = ( GEOMETRIC_REPRESENTATION_CONTEXT(2) 
PARAMETRIC_REPRESENTATION_CONTEXT() REPRESENTATION_CONTEXT('2D SPACE',''
  ) );
#264 = ORIENTED_EDGE('',*,*,#265,.T.);
#265 = EDGE_CURVE('',#243,#243,#266,.T.);
#266 = SURFACE_CURVE('',#267,(#272,#279),.PCURVE_S1.);
#267 = CIRCLE('',#268,2.45);
#268 = AXIS2_PLACEMENT_3D('',#269,#270,#271);
#269 = CARTESIAN_POINT('',(34.,16.7,0.));
#270 = DIRECTION('',(1.,0.,0.));
#271 = DIRECTION('',(-0.,0.,1.));
#272 = PCURVE('',#51,#273);
#273 = DEFINITIONAL_REPRESENTATION('',(#274),#278);
#274 = LINE('',#275,#276);
#275 = CARTESIAN_POINT('',(0.,16.15));
#276 = VECTOR('',#277,1.);
#277 = DIRECTION('',(1.,0.));
#278 = ( GEOMETRIC_REPRESENTATION_CONTEXT(2) 
PARAMETRIC_REPRESENTATION_CONTEXT() REPRESENTATION_CONTEXT('2D SPACE',''
  ) );
#279 = PCURVE('',#280,#285);
#280 = PLANE('',#281);
#281 = AXIS2_PLACEMENT_3D('',#282,#283,#284);
#282 = CARTESIAN_POINT('',(34.,16.7,0.));
#283 = DIRECTION('',(1.,0.,0.));
#284 = DIRECTION('',(-0.,0.,1.));
#285 = DEFINITIONAL_REPRESENTATION('',(#286),#290);
#286 = CIRCLE('',#287,2.45);
#287 = AXIS2_PLACEMENT_2D('',#288,#289);
#288 = CARTESIAN_POINT('',(0.,0.));
#289 = DIRECTION('',(1.,0.));
#290 = ( GEOMETRIC_REPRESENTATION_CONTEXT(2) 
PARAMETRIC_REPRESENTATION_CONTEXT() REPRESENTATION_CONTEXT('2D SPACE',''
  ) );
#291 = ORIENTED_EDGE('',*,*,#242,.T.);
#292 = FACE_BOUND('',#293,.T.);
#293 = EDGE_LOOP('',(#294));
#294 = ORIENTED_EDGE('',*,*,#295,.T.);
#295 = EDGE_CURVE('',#296,#296,#298,.T.);
#296 = VERTEX_POINT('',#297);
#297 = CARTESIAN_POINT('',(37.25,16.7,-2.45));
#298 = SURFACE_CURVE('',#299,(#342,#388),.PCURVE_S1.);
#299 = B_SPLINE_CURVE_WITH_KNOTS('',6,(#300,#301,#302,#303,#304,#305,
    #306,#307,#308,#309,#310,#311,#312,#313,#314,#315,#316,#317,#318,
    #319,#320,#321,#322,#323,#324,#325,#326,#327,#328,#329,#330,#331,
    #332,#333,#334,#335,#336,#337,#338,#339,#340,#341),.UNSPECIFIED.,.T.
  ,.F.,(7,5,5,5,5,5,5,5,7),(0.,0.119748192741,0.249998629449,
    0.380252973688,0.499993459212,0.619746289047,0.75000277768,
    0.880260589168,1.),.UNSPECIFIED.);
#300 = CARTESIAN_POINT('',(37.25,16.7,-2.45));
#301 = CARTESIAN_POINT('',(37.249999989844,16.80155567987,
    -2.449999998446));
#302 = CARTESIAN_POINT('',(37.233498165991,16.902079168505,
    -2.444948560859));
#303 = CARTESIAN_POINT('',(37.201124815224,16.998103239538,
    -2.43503787341));
#304 = CARTESIAN_POINT('',(37.154523563223,17.086412580729,
    -2.421527964371));
#305 = CARTESIAN_POINT('',(37.096347863883,17.164312307896,
    -2.406550784634));
#306 = CARTESIAN_POINT('',(36.958522368234,17.302137803546,
    -2.375992401912));
#307 = CARTESIAN_POINT('',(36.876516092357,17.36080847836,
    -2.360270276636));
#308 = CARTESIAN_POINT('',(36.787165704998,17.405282339957,
    -2.346760913094));
#309 = CARTESIAN_POINT('',(36.693052535955,17.435083111081,
    -2.337177236588));
#310 = CARTESIAN_POINT('',(36.596557304233,17.45,-2.332380757938));
#311 = CARTESIAN_POINT('',(36.403439799036,17.45,-2.332380757938));
#312 = CARTESIAN_POINT('',(36.306944877745,17.435082277731,
    -2.337177476604));
#313 = CARTESIAN_POINT('',(36.212833186724,17.405281414173,
    -2.346761246754));
#314 = CARTESIAN_POINT('',(36.123484373006,17.360808369814,
    -2.360270212679));
#315 = CARTESIAN_POINT('',(36.041478572226,17.302138744006,
    -2.375992193396));
#316 = CARTESIAN_POINT('',(35.903657500951,17.164317672731,
    -2.406549595154));
#317 = CARTESIAN_POINT('',(35.84547743066,17.086416788074,
    -2.421527393581));
#318 = CARTESIAN_POINT('',(35.798871545543,16.998100242864,
    -2.435038959753));
#319 = CARTESIAN_POINT('',(35.766498451386,16.902068972388,
    -2.444949606156));
#320 = CARTESIAN_POINT('',(35.75,16.801545177324,-2.45));
#321 = CARTESIAN_POINT('',(35.75,16.598444354161,-2.45));
#322 = CARTESIAN_POINT('',(35.766501847485,16.497920795472,
    -2.444948559887));
#323 = CARTESIAN_POINT('',(35.798875183418,16.40189675808,
    -2.435037871119));
#324 = CARTESIAN_POINT('',(35.84547643641,16.313587426926,
    -2.421527965658));
#325 = CARTESIAN_POINT('',(35.903652131895,16.235687696325,
    -2.40655078557));
#326 = CARTESIAN_POINT('',(36.041478192133,16.097861636088,
    -2.375992277669));
#327 = CARTESIAN_POINT('',(36.123484176049,16.039191593639,
    -2.360270236424));
#328 = CARTESIAN_POINT('',(36.212833672792,15.994718154517,
    -2.346761105955));
#329 = CARTESIAN_POINT('',(36.30694605714,15.964917416438,
    -2.337177380065));
#330 = CARTESIAN_POINT('',(36.403440779668,15.95,-2.332380757938));
#331 = CARTESIAN_POINT('',(36.596560200964,15.95,-2.332380757938));
#332 = CARTESIAN_POINT('',(36.693055122255,15.964917722269,
    -2.337177476604));
#333 = CARTESIAN_POINT('',(36.787166813275,15.994718585827,
    -2.346761246753));
#334 = CARTESIAN_POINT('',(36.876515626995,16.039191630186,
    -2.360270212679));
#335 = CARTESIAN_POINT('',(36.958521427774,16.097861255994,
    -2.375992193396));
#336 = CARTESIAN_POINT('',(37.096340149449,16.23567997767,
    -2.406549074205));
#337 = CARTESIAN_POINT('',(37.154523110174,16.313582363456,
    -2.421527365955));
#338 = CARTESIAN_POINT('',(37.201130688541,16.401902715129,
    -2.43503966077));
#339 = CARTESIAN_POINT('',(37.233503661827,16.497937385153,
    -2.444950240262));
#340 = CARTESIAN_POINT('',(37.249999989846,16.598461233556,
    -2.449999998446));
#341 = CARTESIAN_POINT('',(37.25,16.7,-2.45));
#342 = PCURVE('',#51,#343);
#343 = DEFINITIONAL_REPRESENTATION('',(#344),#387);
#344 = B_SPLINE_CURVE_WITH_KNOTS('',6,(#345,#346,#347,#348,#349,#350,
    #351,#352,#353,#354,#355,#356,#357,#358,#359,#360,#361,#362,#363,
    #364,#365,#366,#367,#368,#369,#370,#371,#372,#373,#374,#375,#376,
    #377,#378,#379,#380,#381,#382,#383,#384,#385,#386),.UNSPECIFIED.,.T.
  ,.F.,(7,5,5,5,5,5,5,5,7),(0.,0.119748192741,0.249998629449,
    0.380252973688,0.499993459212,0.619746289047,0.75000277768,
    0.880260589168,1.),.UNSPECIFIED.);
#345 = CARTESIAN_POINT('',(3.14159265359,19.4));
#346 = CARTESIAN_POINT('',(3.183043951496,19.399999989726));
#347 = CARTESIAN_POINT('',(3.224074218301,19.38349816624));
#348 = CARTESIAN_POINT('',(3.263394472906,19.351124814998));
#349 = CARTESIAN_POINT('',(3.299815154628,19.304523563307));
#350 = CARTESIAN_POINT('',(3.332180577228,19.246347863883));
#351 = CARTESIAN_POINT('',(3.389802016279,19.108522368234));
#352 = CARTESIAN_POINT('',(3.414570212635,19.026516092357));
#353 = CARTESIAN_POINT('',(3.433536348465,18.937165704998));
#354 = CARTESIAN_POINT('',(3.446314605738,18.843052535955));
#355 = CARTESIAN_POINT('',(3.452709912488,18.746557304233));
#356 = CARTESIAN_POINT('',(3.452709912488,18.553439799036));
#357 = CARTESIAN_POINT('',(3.446314284654,18.456944877745));
#358 = CARTESIAN_POINT('',(3.433535904615,18.362833186724));
#359 = CARTESIAN_POINT('',(3.41457019515,18.273484373006));
#360 = CARTESIAN_POINT('',(3.389802409462,18.191478572226));
#361 = CARTESIAN_POINT('',(3.332182820133,18.053657500951));
#362 = CARTESIAN_POINT('',(3.299816877679,17.99547743066));
#363 = CARTESIAN_POINT('',(3.263393203395,17.948871545543));
#364 = CARTESIAN_POINT('',(3.224070056689,17.916498451386));
#365 = CARTESIAN_POINT('',(3.183039664742,17.9));
#366 = CARTESIAN_POINT('',(3.100141369574,17.9));
#367 = CARTESIAN_POINT('',(3.059111074222,17.916501847485));
#368 = CARTESIAN_POINT('',(3.01979083319,17.948875183418));
#369 = CARTESIAN_POINT('',(2.983370155718,17.99547643641));
#370 = CARTESIAN_POINT('',(2.951004731716,18.053652131895));
#371 = CARTESIAN_POINT('',(2.893383056625,18.191478192133));
#372 = CARTESIAN_POINT('',(2.868615101696,18.273484176049));
#373 = CARTESIAN_POINT('',(2.849649213969,18.362833672792));
#374 = CARTESIAN_POINT('',(2.836870894201,18.45694605714));
#375 = CARTESIAN_POINT('',(2.830475394692,18.553440779668));
#376 = CARTESIAN_POINT('',(2.830475394692,18.746560200964));
#377 = CARTESIAN_POINT('',(2.836871022525,18.843055122255));
#378 = CARTESIAN_POINT('',(2.849649402565,18.937166813275));
#379 = CARTESIAN_POINT('',(2.86861511203,19.026515626995));
#380 = CARTESIAN_POINT('',(2.893382897717,19.108521427774));
#381 = CARTESIAN_POINT('',(2.951001504737,19.246340149449));
#382 = CARTESIAN_POINT('',(2.983368091049,19.304523110258));
#383 = CARTESIAN_POINT('',(3.019793334172,19.351130688315));
#384 = CARTESIAN_POINT('',(3.059117848575,19.383503662076));
#385 = CARTESIAN_POINT('',(3.100148259123,19.399999989728));
#386 = CARTESIAN_POINT('',(3.14159265359,19.4));
#387 = ( GEOMETRIC_REPRESENTATION_CONTEXT(2) 
PARAMETRIC_REPRESENTATION_CONTEXT() REPRESENTATION_CONTEXT('2D SPACE',''
  ) );
#388 = PCURVE('',#82,#389);
#389 = DEFINITIONAL_REPRESENTATION('',(#390),#433);
#390 = B_SPLINE_CURVE_WITH_KNOTS('',6,(#391,#392,#393,#394,#395,#396,
    #397,#398,#399,#400,#401,#402,#403,#404,#405,#406,#407,#408,#409,
    #410,#411,#412,#413,#414,#415,#416,#417,#418,#419,#420,#421,#422,
    #423,#424,#425,#426,#427,#428,#429,#430,#431,#432),.UNSPECIFIED.,.F.
  ,.F.,(7,5,5,5,5,5,5,5,7),(0.,0.119748192741,0.249998629449,
    0.380252973688,0.499993459212,0.619746289047,0.75000277768,
    0.880260589168,1.),.UNSPECIFIED.);
#391 = CARTESIAN_POINT('',(0.,3.55));
#392 = CARTESIAN_POINT('',(0.135407573161,3.550000001554));
#393 = CARTESIAN_POINT('',(0.269437175304,3.555051439141));
#394 = CARTESIAN_POINT('',(0.401946512907,3.56496212659));
#395 = CARTESIAN_POINT('',(0.532622476176,3.578472035629));
#396 = CARTESIAN_POINT('',(0.660913847403,3.593449215366));
#397 = CARTESIAN_POINT('',(0.92080009432,3.624007598088));
#398 = CARTESIAN_POINT('',(1.053432152671,3.639729723364));
#399 = CARTESIAN_POINT('',(1.1840686666,3.653239086906));
#400 = CARTESIAN_POINT('',(1.313392768189,3.662822763412));
#401 = CARTESIAN_POINT('',(1.442053254485,3.667619242062));
#402 = CARTESIAN_POINT('',(1.699543261414,3.667619242062));
#403 = CARTESIAN_POINT('',(1.828203367473,3.662822523396));
#404 = CARTESIAN_POINT('',(1.957525716214,3.653238753246));
#405 = CARTESIAN_POINT('',(2.088160184481,3.639729787321));
#406 = CARTESIAN_POINT('',(2.220790785922,3.624007806604));
#407 = CARTESIAN_POINT('',(2.480668690158,3.593450404846));
#408 = CARTESIAN_POINT('',(2.608965269232,3.578472606419));
#409 = CARTESIAN_POINT('',(2.739651550807,3.564961040247));
#410 = CARTESIAN_POINT('',(2.872169054674,3.555050393844));
#411 = CARTESIAN_POINT('',(3.006199083825,3.55));
#412 = CARTESIAN_POINT('',(3.277000181376,3.55));
#413 = CARTESIAN_POINT('',(3.411029875188,3.555051440113));
#414 = CARTESIAN_POINT('',(3.543539173693,3.564962128881));
#415 = CARTESIAN_POINT('',(3.67421511862,3.578472034342));
#416 = CARTESIAN_POINT('',(3.802506493032,3.59344921443));
#417 = CARTESIAN_POINT('',(4.062393804547,3.624007722331));
#418 = CARTESIAN_POINT('',(4.195024980978,3.639729763576));
#419 = CARTESIAN_POINT('',(4.325660359977,3.653238894045));
#420 = CARTESIAN_POINT('',(4.454983513468,3.662822619935));
#421 = CARTESIAN_POINT('',(4.583643353275,3.667619242062));
#422 = CARTESIAN_POINT('',(4.841135915004,3.667619242062));
#423 = CARTESIAN_POINT('',(4.969796021063,3.662822523396));
#424 = CARTESIAN_POINT('',(5.099118369804,3.653238753247));
#425 = CARTESIAN_POINT('',(5.229752838071,3.639729787321));
#426 = CARTESIAN_POINT('',(5.362383439512,3.624007806604));
#427 = CARTESIAN_POINT('',(5.622256913301,3.593450925795));
#428 = CARTESIAN_POINT('',(5.750557583067,3.578472634045));
#429 = CARTESIAN_POINT('',(5.881248898691,3.56496033923));
#430 = CARTESIAN_POINT('',(6.013770183591,3.555049759738));
#431 = CARTESIAN_POINT('',(6.147800285255,3.550000001554));
#432 = CARTESIAN_POINT('',(6.28318530718,3.55));
#433 = ( GEOMETRIC_REPRESENTATION_CONTEXT(2) 
PARAMETRIC_REPRESENTATION_CONTEXT() REPRESENTATION_CONTEXT('2D SPACE',''
  ) );
#434 = ADVANCED_FACE('',(#435),#82,.F.);
#435 = FACE_BOUND('',#436,.F.);
#436 = EDGE_LOOP('',(#437,#438,#459,#460,#461));
#437 = ORIENTED_EDGE('',*,*,#21,.F.);
#438 = ORIENTED_EDGE('',*,*,#439,.F.);
#439 = EDGE_CURVE('',#296,#22,#440,.T.);
#440 = SEAM_CURVE('',#441,(#445,#452),.PCURVE_S1.);
#441 = LINE('',#442,#443);
#442 = CARTESIAN_POINT('',(37.25,16.7,-6.));
#443 = VECTOR('',#444,1.);
#444 = DIRECTION('',(0.,0.,1.));
#445 = PCURVE('',#82,#446);
#446 = DEFINITIONAL_REPRESENTATION('',(#447),#451);
#447 = LINE('',#448,#449);
#448 = CARTESIAN_POINT('',(6.28318530718,-0.));
#449 = VECTOR('',#450,1.);
#450 = DIRECTION('',(0.,1.));
#451 = ( GEOMETRIC_REPRESENTATION_CONTEXT(2) 
PARAMETRIC_REPRESENTATION_CONTEXT() REPRESENTATION_CONTEXT('2D SPACE',''
  ) );
#452 = PCURVE('',#82,#453);
#453 = DEFINITIONAL_REPRESENTATION('',(#454),#458);
#454 = LINE('',#455,#456);
#455 = CARTESIAN_POINT('',(0.,-0.));
#456 = VECTOR('',#457,1.);
#457 = DIRECTION('',(0.,1.));
#458 = ( GEOMETRIC_REPRESENTATION_CONTEXT(2) 
PARAMETRIC_REPRESENTATION_CONTEXT() REPRESENTATION_CONTEXT('2D SPACE',''
  ) );
#459 = ORIENTED_EDGE('',*,*,#295,.T.);
#460 = ORIENTED_EDGE('',*,*,#439,.T.);
#461 = ORIENTED_EDGE('',*,*,#164,.F.);
#462 = ADVANCED_FACE('',(#463,#494),#280,.T.);
#463 = FACE_BOUND('',#464,.T.);
#464 = EDGE_LOOP('',(#465));
#465 = ORIENTED_EDGE('',*,*,#466,.T.);
#466 = EDGE_CURVE('',#467,#467,#469,.T.);
#467 = VERTEX_POINT('',#468);
#468 = CARTESIAN_POINT('',(34.,16.7,5.));
#469 = SURFACE_CURVE('',#470,(#475,#482),.PCURVE_S1.);
#470 = CIRCLE('',#471,5.);
#471 = AXIS2_PLACEMENT_3D('',#472,#473,#474);
#472 = CARTESIAN_POINT('',(34.,16.7,0.));
#473 = DIRECTION('',(1.,0.,0.));
#474 = DIRECTION('',(-0.,0.,1.));
#475 = PCURVE('',#280,#476);
#476 = DEFINITIONAL_REPRESENTATION('',(#477),#481);
#477 = CIRCLE('',#478,5.);
#478 = AXIS2_PLACEMENT_2D('',#479,#480);
#479 = CARTESIAN_POINT('',(0.,0.));
#480 = DIRECTION('',(1.,0.));
#481 = ( GEOMETRIC_REPRESENTATION_CONTEXT(2) 
PARAMETRIC_REPRESENTATION_CONTEXT() REPRESENTATION_CONTEXT('2D SPACE',''
  ) );
#482 = PCURVE('',#483,#488);
#483 = CYLINDRICAL_SURFACE('',#484,5.);
#484 = AXIS2_PLACEMENT_3D('',#485,#486,#487);
#485 = CARTESIAN_POINT('',(29.,16.7,0.));
#486 = DIRECTION('',(1.,0.,0.));
#487 = DIRECTION('',(-0.,0.,1.));
#488 = DEFINITIONAL_REPRESENTATION('',(#489),#493);
#489 = LINE('',#490,#491);
#490 = CARTESIAN_POINT('',(0.,5.));
#491 = VECTOR('',#492,1.);
#492 = DIRECTION('',(1.,0.));
#493 = ( GEOMETRIC_REPRESENTATION_CONTEXT(2) 
PARAMETRIC_REPRESENTATION_CONTEXT() REPRESENTATION_CONTEXT('2D SPACE',''
  ) );
#494 = FACE_BOUND('',#495,.T.);
#495 = EDGE_LOOP('',(#496));
#496 = ORIENTED_EDGE('',*,*,#265,.F.);
#497 = ADVANCED_FACE('',(#498),#151,.T.);
#498 = FACE_BOUND('',#499,.T.);
#499 = EDGE_LOOP('',(#500));
#500 = ORIENTED_EDGE('',*,*,#136,.T.);
#501 = ADVANCED_FACE('',(#502),#483,.T.);
#502 = FACE_BOUND('',#503,.T.);
#503 = EDGE_LOOP('',(#504,#505,#528,#555));
#504 = ORIENTED_EDGE('',*,*,#466,.F.);
#505 = ORIENTED_EDGE('',*,*,#506,.F.);
#506 = EDGE_CURVE('',#507,#467,#509,.T.);
#507 = VERTEX_POINT('',#508);
#508 = CARTESIAN_POINT('',(29.,16.7,5.));
#509 = SEAM_CURVE('',#510,(#514,#521),.PCURVE_S1.);
#510 = LINE('',#511,#512);
#511 = CARTESIAN_POINT('',(29.,16.7,5.));
#512 = VECTOR('',#513,1.);
#513 = DIRECTION('',(1.,0.,0.));
#514 = PCURVE('',#483,#515);
#515 = DEFINITIONAL_REPRESENTATION('',(#516),#520);
#516 = LINE('',#517,#518);
#517 = CARTESIAN_POINT('',(6.28318530718,-0.));
#518 = VECTOR('',#519,1.);
#519 = DIRECTION('',(0.,1.));
#520 = ( GEOMETRIC_REPRESENTATION_CONTEXT(2) 
PARAMETRIC_REPRESENTATION_CONTEXT() REPRESENTATION_CONTEXT('2D SPACE',''
  ) );
#521 = PCURVE('',#483,#522);
#522 = DEFINITIONAL_REPRESENTATION('',(#523),#527);
#523 = LINE('',#524,#525);
#524 = CARTESIAN_POINT('',(0.,-0.));
#525 = VECTOR('',#526,1.);
#526 = DIRECTION('',(0.,1.));
#527 = ( GEOMETRIC_REPRESENTATION_CONTEXT(2) 
PARAMETRIC_REPRESENTATION_CONTEXT() REPRESENTATION_CONTEXT('2D SPACE',''
  ) );
#528 = ORIENTED_EDGE('',*,*,#529,.T.);
#529 = EDGE_CURVE('',#507,#507,#530,.T.);
#530 = SURFACE_CURVE('',#531,(#536,#543),.PCURVE_S1.);
#531 = CIRCLE('',#532,5.);
#532 = AXIS2_PLACEMENT_3D('',#533,#534,#535);
#533 = CARTESIAN_POINT('',(29.,16.7,0.));
#534 = DIRECTION('',(1.,0.,0.));
#535 = DIRECTION('',(-0.,0.,1.));
#536 = PCURVE('',#483,#537);
#537 = DEFINITIONAL_REPRESENTATION('',(#538),#542);
#538 = LINE('',#539,#540);
#539 = CARTESIAN_POINT('',(0.,0.));
#540 = VECTOR('',#541,1.);
#541 = DIRECTION('',(1.,0.));
#542 = ( GEOMETRIC_REPRESENTATION_CONTEXT(2) 
PARAMETRIC_REPRESENTATION_CONTEXT() REPRESENTATION_CONTEXT('2D SPACE',''
  ) );
#543 = PCURVE('',#544,#549);
#544 = PLANE('',#545);
#545 = AXIS2_PLACEMENT_3D('',#546,#547,#548);
#546 = CARTESIAN_POINT('',(29.,16.7,0.));
#547 = DIRECTION('',(1.,0.,0.));
#548 = DIRECTION('',(-0.,0.,1.));
#549 = DEFINITIONAL_REPRESENTATION('',(#550),#554);
#550 = CIRCLE('',#551,5.);
#551 = AXIS2_PLACEMENT_2D('',#552,#553);
#552 = CARTESIAN_POINT('',(0.,0.));
#553 = DIRECTION('',(1.,0.));
#554 = ( GEOMETRIC_REPRESENTATION_CONTEXT(2) 
PARAMETRIC_REPRESENTATION_CONTEXT() REPRESENTATION_CONTEXT('2D SPACE',''
  ) );
#555 = ORIENTED_EDGE('',*,*,#506,.T.);
#556 = ADVANCED_FACE('',(#557,#560),#544,.F.);
#557 = FACE_BOUND('',#558,.F.);
#558 = EDGE_LOOP('',(#559));
#559 = ORIENTED_EDGE('',*,*,#529,.T.);
#560 = FACE_BOUND('',#561,.F.);
#561 = EDGE_LOOP('',(#562));
#562 = ORIENTED_EDGE('',*,*,#563,.F.);
#563 = EDGE_CURVE('',#564,#564,#566,.T.);
#564 = VERTEX_POINT('',#565);
#565 = CARTESIAN_POINT('',(29.,16.7,2.45));
#566 = SURFACE_CURVE('',#567,(#572,#579),.PCURVE_S1.);
#567 = CIRCLE('',#568,2.45);
#568 = AXIS2_PLACEMENT_3D('',#569,#570,#571);
#569 = CARTESIAN_POINT('',(29.,16.7,0.));
#570 = DIRECTION('',(1.,0.,0.));
#571 = DIRECTION('',(-0.,0.,1.));
#572 = PCURVE('',#544,#573);
#573 = DEFINITIONAL_REPRESENTATION('',(#574),#578);
#574 = CIRCLE('',#575,2.45);
#575 = AXIS2_PLACEMENT_2D('',#576,#577);
#576 = CARTESIAN_POINT('',(0.,0.));
#577 = DIRECTION('',(1.,0.));
#578 = ( GEOMETRIC_REPRESENTATION_CONTEXT(2) 
PARAMETRIC_REPRESENTATION_CONTEXT() REPRESENTATION_CONTEXT('2D SPACE',''
  ) );
#579 = PCURVE('',#580,#585);
#580 = CYLINDRICAL_SURFACE('',#581,2.45);
#581 = AXIS2_PLACEMENT_3D('',#582,#583,#584);
#582 = CARTESIAN_POINT('',(17.85,16.7,0.));
#583 = DIRECTION('',(1.,0.,0.));
#584 = DIRECTION('',(-0.,0.,1.));
#585 = DEFINITIONAL_REPRESENTATION('',(#586),#590);
#586 = LINE('',#587,#588);
#587 = CARTESIAN_POINT('',(0.,11.15));
#588 = VECTOR('',#589,1.);
#589 = DIRECTION('',(1.,0.));
#590 = ( GEOMETRIC_REPRESENTATION_CONTEXT(2) 
PARAMETRIC_REPRESENTATION_CONTEXT() REPRESENTATION_CONTEXT('2D SPACE',''
  ) );
#591 = ADVANCED_FACE('',(#592),#580,.T.);
#592 = FACE_BOUND('',#593,.T.);
#593 = EDGE_LOOP('',(#594,#595,#618,#645));
#594 = ORIENTED_EDGE('',*,*,#563,.F.);
#595 = ORIENTED_EDGE('',*,*,#596,.F.);
#596 = EDGE_CURVE('',#597,#564,#599,.T.);
#597 = VERTEX_POINT('',#598);
#598 = CARTESIAN_POINT('',(17.85,16.7,2.45));
#599 = SEAM_CURVE('',#600,(#604,#611),.PCURVE_S1.);
#600 = LINE('',#601,#602);
#601 = CARTESIAN_POINT('',(17.85,16.7,2.45));
#602 = VECTOR('',#603,1.);
#603 = DIRECTION('',(1.,0.,0.));
#604 = PCURVE('',#580,#605);
#605 = DEFINITIONAL_REPRESENTATION('',(#606),#610);
#606 = LINE('',#607,#608);
#607 = CARTESIAN_POINT('',(6.28318530718,-0.));
#608 = VECTOR('',#609,1.);
#609 = DIRECTION('',(0.,1.));
#610 = ( GEOMETRIC_REPRESENTATION_CONTEXT(2) 
PARAMETRIC_REPRESENTATION_CONTEXT() REPRESENTATION_CONTEXT('2D SPACE',''
  ) );
#611 = PCURVE('',#580,#612);
#612 = DEFINITIONAL_REPRESENTATION('',(#613),#617);
#613 = LINE('',#614,#615);
#614 = CARTESIAN_POINT('',(0.,-0.));
#615 = VECTOR('',#616,1.);
#616 = DIRECTION('',(0.,1.));
#617 = ( GEOMETRIC_REPRESENTATION_CONTEXT(2) 
PARAMETRIC_REPRESENTATION_CONTEXT() REPRESENTATION_CONTEXT('2D SPACE',''
  ) );
#618 = ORIENTED_EDGE('',*,*,#619,.T.);
#619 = EDGE_CURVE('',#597,#597,#620,.T.);
#620 = SURFACE_CURVE('',#621,(#626,#633),.PCURVE_S1.);
#621 = CIRCLE('',#622,2.45);
#622 = AXIS2_PLACEMENT_3D('',#623,#624,#625);
#623 = CARTESIAN_POINT('',(17.85,16.7,0.));
#624 = DIRECTION('',(1.,0.,0.));
#625 = DIRECTION('',(-0.,0.,1.));
#626 = PCURVE('',#580,#627);
#627 = DEFINITIONAL_REPRESENTATION('',(#628),#632);
#628 = LINE('',#629,#630);
#629 = CARTESIAN_POINT('',(0.,0.));
#630 = VECTOR('',#631,1.);
#631 = DIRECTION('',(1.,0.));
#632 = ( GEOMETRIC_REPRESENTATION_CONTEXT(2) 
PARAMETRIC_REPRESENTATION_CONTEXT() REPRESENTATION_CONTEXT('2D SPACE',''
  ) );
#633 = PCURVE('',#634,#639);
#634 = PLANE('',#635);
#635 = AXIS2_PLACEMENT_3D('',#636,#637,#638);
#636 = CARTESIAN_POINT('',(17.85,16.7,0.));
#637 = DIRECTION('',(1.,0.,0.));
#638 = DIRECTION('',(-0.,0.,1.));
#639 = DEFINITIONAL_REPRESENTATION('',(#640),#644);
#640 = CIRCLE('',#641,2.45);
#641 = AXIS2_PLACEMENT_2D('',#642,#643);
#642 = CARTESIAN_POINT('',(0.,0.));
#643 = DIRECTION('',(1.,0.));
#644 = ( GEOMETRIC_REPRESENTATION_CONTEXT(2) 
PARAMETRIC_REPRESENTATION_CONTEXT() REPRESENTATION_CONTEXT('2D SPACE',''
  ) );
#645 = ORIENTED_EDGE('',*,*,#596,.T.);
#646 = ADVANCED_FACE('',(#647),#634,.F.);
#647 = FACE_BOUND('',#648,.T.);
#648 = EDGE_LOOP('',(#649));
#649 = ORIENTED_EDGE('',*,*,#619,.F.);
#650 = ( GEOMETRIC_REPRESENTATION_CONTEXT(3) 
GLOBAL_UNCERTAINTY_ASSIGNED_CONTEXT((#654)) GLOBAL_UNIT_ASSIGNED_CONTEXT
((#651,#652,#653)) REPRESENTATION_CONTEXT('Context #1',
  '3D Context with UNIT and UNCERTAINTY') );
#651 = ( LENGTH_UNIT() NAMED_UNIT(*) SI_UNIT(.MILLI.,.METRE.) );
#652 = ( NAMED_UNIT(*) PLANE_ANGLE_UNIT() SI_UNIT($,.RADIAN.) );
#653 = ( NAMED_UNIT(*) SI_UNIT($,.STERADIAN.) SOLID_ANGLE_UNIT() );
#654 = UNCERTAINTY_MEASURE_WITH_UNIT(LENGTH_MEASURE(1.E-07),#651,
  'distance_accuracy_value','confusion accuracy');
#655 = PRODUCT_RELATED_PRODUCT_CATEGORY('part',$,(#7));
ENDSEC;
END-ISO-10303-21;
